Monoto-Bold.ufo
<glyph name="exclam" format="2">
  <advance width="620"/>
  <unicode hex="0021"/>
  <outline>
    <contour>
      <point x="231" y="249" type="line"/>
      <point x="374" y="249" type="line"/>
      <point x="399" y="714" type="line"/>
      <point x="205" y="714" type="line"/>
    </contour>
    <contour>
      <point x="302" y="-11" type="curve" smooth="yes"/>
      <point x="358" y="-11"/>
      <point x="398" y="19"/>
      <point x="398" y="79" type="curve" smooth="yes"/>
      <point x="398" y="142"/>
      <point x="360" y="171"/>
      <point x="302" y="171" type="curve" smooth="yes"/>
      <point x="242" y="171"/>
      <point x="204" y="141"/>
      <point x="204" y="79" type="curve" smooth="yes"/>
      <point x="204" y="19"/>
      <point x="244" y="-11"/>
    </contour>
  </outline>
</glyph>
<glyph name="quotedbl" format="2">
  <advance width="620"/>
  <unicode hex="0022"/>
  <outline>
    <contour>
      <point x="360" y="456" type="line"/>
      <point x="487" y="456" type="line"/>
      <point x="510" y="714" type="line"/>
      <point x="337" y="714" type="line"/>
    </contour>
    <contour>
      <point x="114" y="456" type="line"/>
      <point x="241" y="456" type="line"/>
      <point x="264" y="714" type="line"/>
      <point x="91" y="714" type="line"/>
    </contour>
  </outline>
</glyph>
<glyph name="numbersign" format="2">
  <advance width="620"/>
  <unicode hex="0023"/>
  <outline>
    <contour>
      <point x="76" y="0" type="line"/>
      <point x="192" y="0" type="line"/>
      <point x="226" y="193" type="line"/>
      <point x="318" y="193" type="line"/>
      <point x="282" y="0" type="line"/>
      <point x="399" y="0" type="line"/>
      <point x="435" y="193" type="line"/>
      <point x="570" y="193" type="line"/>
      <point x="570" y="302" type="line"/>
      <point x="451" y="302" type="line"/>
      <point x="472" y="412" type="line"/>
      <point x="600" y="412" type="line"/>
      <point x="600" y="524" type="line"/>
      <point x="490" y="524" type="line"/>
      <point x="525" y="714" type="line"/>
      <point x="409" y="714" type="line"/>
      <point x="375" y="524" type="line"/>
      <point x="283" y="524" type="line"/>
      <point x="319" y="714" type="line"/>
      <point x="203" y="714" type="line"/>
      <point x="168" y="524" type="line"/>
      <point x="33" y="524" type="line"/>
      <point x="33" y="412" type="line"/>
      <point x="150" y="412" type="line"/>
      <point x="129" y="302" type="line"/>
      <point x="2" y="302" type="line"/>
      <point x="2" y="193" type="line"/>
      <point x="111" y="193" type="line"/>
    </contour>
    <contour>
      <point x="244" y="302" type="line"/>
      <point x="266" y="412" type="line"/>
      <point x="356" y="412" type="line"/>
      <point x="335" y="302" type="line"/>
    </contour>
  </outline>
</glyph>
<glyph name="dollar" format="2">
  <advance width="620"/>
  <unicode hex="0024"/>
  <outline>
    <contour>
      <point x="265" y="-58" type="line"/>
      <point x="345" y="-58" type="line"/>
      <point x="345" y="35" type="line"/>
      <point x="473" y="55"/>
      <point x="543" y="131"/>
      <point x="543" y="233" type="curve" smooth="yes"/>
      <point x="543" y="332"/>
      <point x="479" y="379"/>
      <point x="345" y="422" type="curve"/>
      <point x="345" y="566" type="line"/>
      <point x="393" y="561"/>
      <point x="444" y="549"/>
      <point x="489" y="527" type="curve"/>
      <point x="528" y="646" type="line"/>
      <point x="469" y="672"/>
      <point x="410" y="688"/>
      <point x="345" y="692" type="curve"/>
      <point x="345" y="759" type="line"/>
      <point x="265" y="759" type="line"/>
      <point x="265" y="691" type="line"/>
      <point x="145" y="679"/>
      <point x="63" y="619"/>
      <point x="63" y="509" type="curve" smooth="yes"/>
      <point x="63" y="406"/>
      <point x="133" y="351"/>
      <point x="265" y="308" type="curve"/>
      <point x="265" y="154" type="line"/>
      <point x="200" y="156"/>
      <point x="124" y="184"/>
      <point x="68" y="215" type="curve"/>
      <point x="68" y="73" type="line"/>
      <point x="124" y="50"/>
      <point x="195" y="34"/>
      <point x="265" y="31" type="curve"/>
    </contour>
    <contour>
      <point x="345" y="162" type="curve"/>
      <point x="345" y="279" type="line"/>
      <point x="391" y="264"/>
      <point x="410" y="248"/>
      <point x="410" y="221" type="curve" smooth="yes"/>
      <point x="410" y="191"/>
      <point x="391" y="172"/>
    </contour>
    <contour>
      <point x="265" y="450" type="line"/>
      <point x="217" y="468"/>
      <point x="199" y="482"/>
      <point x="199" y="508" type="curve" smooth="yes"/>
      <point x="199" y="538"/>
      <point x="218" y="557"/>
      <point x="265" y="565" type="curve"/>
    </contour>
  </outline>
</glyph>
<glyph name="percent" format="2">
  <advance width="620"/>
  <unicode hex="0025"/>
  <outline>
    <contour>
      <point x="20" y="107" type="line"/>
      <point x="153" y="107" type="line"/>
      <point x="581" y="607" type="line"/>
      <point x="448" y="607" type="line"/>
    </contour>
    <contour>
      <point x="450" y="-10" type="curve" smooth="yes"/>
      <point x="554" y="-10"/>
      <point x="612" y="53"/>
      <point x="612" y="159" type="curve" smooth="yes"/>
      <point x="612" y="266"/>
      <point x="553" y="329"/>
      <point x="450" y="329" type="curve" smooth="yes"/>
      <point x="348" y="329"/>
      <point x="290" y="266"/>
      <point x="290" y="159" type="curve" smooth="yes"/>
      <point x="290" y="52"/>
      <point x="350" y="-10"/>
    </contour>
    <contour>
      <point x="453" y="91" type="curve" smooth="yes"/>
      <point x="424" y="91"/>
      <point x="413" y="112"/>
      <point x="413" y="159" type="curve" smooth="yes"/>
      <point x="413" y="207"/>
      <point x="424" y="228"/>
      <point x="453" y="228" type="curve" smooth="yes"/>
      <point x="478" y="228"/>
      <point x="488" y="207"/>
      <point x="488" y="159" type="curve" smooth="yes"/>
      <point x="488" y="112"/>
      <point x="478" y="91"/>
    </contour>
    <contour>
      <point x="149" y="385" type="curve" smooth="yes"/>
      <point x="254" y="385"/>
      <point x="312" y="448"/>
      <point x="312" y="554" type="curve" smooth="yes"/>
      <point x="312" y="661"/>
      <point x="253" y="724"/>
      <point x="150" y="724" type="curve" smooth="yes"/>
      <point x="49" y="724"/>
      <point x="-10" y="662"/>
      <point x="-10" y="554" type="curve" smooth="yes"/>
      <point x="-10" y="448"/>
      <point x="50" y="385"/>
    </contour>
    <contour>
      <point x="151" y="486" type="curve" smooth="yes"/>
      <point x="124" y="486"/>
      <point x="113" y="507"/>
      <point x="113" y="554" type="curve" smooth="yes"/>
      <point x="113" y="602"/>
      <point x="124" y="624"/>
      <point x="151" y="624" type="curve" smooth="yes"/>
      <point x="178" y="624"/>
      <point x="188" y="602"/>
      <point x="188" y="554" type="curve" smooth="yes"/>
      <point x="188" y="507"/>
      <point x="178" y="486"/>
    </contour>
  </outline>
</glyph>
<glyph name="ampersand" format="2">
  <advance width="620"/>
  <unicode hex="0026"/>
  <outline>
    <contour>
      <point x="228" y="-10" type="curve" smooth="yes"/>
      <point x="454" y="-10"/>
      <point x="558" y="201"/>
      <point x="584" y="385" type="curve"/>
      <point x="455" y="385" type="line"/>
      <point x="440" y="286"/>
      <point x="368" y="123"/>
      <point x="249" y="123" type="curve" smooth="yes"/>
      <point x="196" y="123"/>
      <point x="159" y="149"/>
      <point x="159" y="197" type="curve" smooth="yes"/>
      <point x="159" y="247"/>
      <point x="203" y="279"/>
      <point x="268" y="328" type="curve" smooth="yes"/>
      <point x="361" y="399"/>
      <point x="446" y="457"/>
      <point x="446" y="567" type="curve" smooth="yes"/>
      <point x="446" y="660"/>
      <point x="386" y="723"/>
      <point x="265" y="723" type="curve" smooth="yes"/>
      <point x="148" y="723"/>
      <point x="78" y="665"/>
      <point x="78" y="559" type="curve" smooth="yes"/>
      <point x="78" y="471"/>
      <point x="129" y="403"/>
      <point x="170" y="347" type="curve" smooth="yes"/>
      <point x="435" y="0" type="line"/>
      <point x="590" y="0" type="line"/>
      <point x="273" y="433" type="line" smooth="yes"/>
      <point x="250" y="466"/>
      <point x="211" y="514"/>
      <point x="211" y="563" type="curve" smooth="yes"/>
      <point x="211" y="596"/>
      <point x="232" y="612"/>
      <point x="265" y="612" type="curve" smooth="yes"/>
      <point x="297" y="612"/>
      <point x="317" y="597"/>
      <point x="317" y="567" type="curve" smooth="yes"/>
      <point x="317" y="506"/>
      <point x="243" y="459"/>
      <point x="200" y="430" type="curve" smooth="yes"/>
      <point x="94" y="354"/>
      <point x="17" y="295"/>
      <point x="17" y="179" type="curve" smooth="yes"/>
      <point x="17" y="70"/>
      <point x="85" y="-10"/>
    </contour>
  </outline>
</glyph>
<glyph name="quotesingle" format="2">
  <advance width="620"/>
  <unicode hex="0027"/>
  <outline>
    <contour>
      <point x="237" y="456" type="line"/>
      <point x="365" y="456" type="line"/>
      <point x="387" y="714" type="line"/>
      <point x="215" y="714" type="line"/>
    </contour>
  </outline>
</glyph>
<glyph name="parenleft" format="2">
  <advance width="620"/>
  <unicode hex="0028"/>
  <outline>
    <contour>
      <point x="334" y="-177" type="curve"/>
      <point x="482" y="-177" type="line"/>
      <point x="386" y="-42"/>
      <point x="333" y="101"/>
      <point x="333" y="265" type="curve" smooth="yes"/>
      <point x="333" y="435"/>
      <point x="381" y="585"/>
      <point x="482" y="714" type="curve"/>
      <point x="334" y="714" type="line"/>
      <point x="236" y="601"/>
      <point x="177" y="447"/>
      <point x="177" y="264" type="curve" smooth="yes"/>
      <point x="177" y="83"/>
      <point x="234" y="-62"/>
    </contour>
  </outline>
</glyph>
<glyph name="asterisk" format="2">
  <advance width="620"/>
  <unicode hex="002A"/>
  <outline>
    <contour>
      <point x="385" y="322" type="line"/>
      <point x="504" y="400" type="line"/>
      <point x="389" y="513" type="line"/>
      <point x="551" y="532" type="line"/>
      <point x="520" y="662" type="line"/>
      <point x="354" y="614" type="line"/>
      <point x="373" y="763" type="line"/>
      <point x="227" y="763" type="line"/>
      <point x="247" y="614" type="line"/>
      <point x="83" y="662" type="line"/>
      <point x="51" y="531" type="line"/>
      <point x="213" y="513" type="line"/>
      <point x="98" y="398" type="line"/>
      <point x="217" y="323" type="line"/>
      <point x="300" y="452" type="line"/>
    </contour>
  </outline>
</glyph>
<glyph name="plus" format="2">
  <advance width="620"/>
  <unicode hex="002B"/>
  <outline>
    <contour>
      <point x="235" y="112" type="line"/>
      <point x="368" y="112" type="line"/>
      <point x="368" y="289" type="line"/>
      <point x="550" y="289" type="line"/>
      <point x="550" y="417" type="line"/>
      <point x="368" y="417" type="line"/>
      <point x="368" y="597" type="line"/>
      <point x="235" y="597" type="line"/>
      <point x="235" y="417" type="line"/>
      <point x="52" y="417" type="line"/>
      <point x="52" y="289" type="line"/>
      <point x="235" y="289" type="line"/>
    </contour>
  </outline>
</glyph>
<glyph name="comma" format="2">
  <advance width="620"/>
  <unicode hex="002C"/>
  <outline>
    <contour>
      <point x="188" y="-146" type="curve"/>
      <point x="321" y="-146" type="line"/>
      <point x="357" y="-98"/>
      <point x="390" y="41"/>
      <point x="410" y="134" type="curve"/>
      <point x="402" y="143" type="line"/>
      <point x="246" y="166" type="line"/>
      <point x="230" y="68"/>
      <point x="208" y="-95"/>
    </contour>
  </outline>
</glyph>
<glyph name="period" format="2">
  <advance width="620"/>
  <unicode hex="002E"/>
  <outline>
    <contour>
      <point x="302" y="-9" type="curve" smooth="yes"/>
      <point x="359" y="-9"/>
      <point x="397" y="20"/>
      <point x="397" y="81" type="curve" smooth="yes"/>
      <point x="397" y="142"/>
      <point x="359" y="172"/>
      <point x="302" y="172" type="curve" smooth="yes"/>
      <point x="243" y="172"/>
      <point x="205" y="142"/>
      <point x="205" y="81" type="curve" smooth="yes"/>
      <point x="205" y="20"/>
      <point x="245" y="-9"/>
    </contour>
  </outline>
</glyph>
<glyph name="slash" format="2">
  <advance width="620"/>
  <unicode hex="002F"/>
  <outline>
    <contour>
      <point x="69" y="-9" type="line"/>
      <point x="215" y="-9" type="line"/>
      <point x="533" y="723" type="line"/>
      <point x="387" y="723" type="line"/>
    </contour>
  </outline>
</glyph>
<glyph name="zero" format="2">
  <advance width="620"/>
  <unicode hex="0030"/>
  <outline>
    <contour>
      <point x="300" y="-10" type="curve" smooth="yes"/>
      <point x="513" y="-10"/>
      <point x="577" y="147"/>
      <point x="577" y="356" type="curve" smooth="yes"/>
      <point x="577" y="598"/>
      <point x="485" y="725"/>
      <point x="300" y="725" type="curve" smooth="yes"/>
      <point x="109" y="725"/>
      <point x="24" y="607"/>
      <point x="24" y="356" type="curve" smooth="yes"/>
      <point x="24" y="116"/>
      <point x="114" y="-10"/>
    </contour>
    <contour>
      <point x="197" y="132" type="line"/>
      <point x="500" y="547" type="line"/>
      <point x="398" y="580" type="line"/>
      <point x="101" y="175" type="line"/>
    </contour>
    <contour>
      <point x="300" y="143" type="curve" smooth="yes"/>
      <point x="214" y="143"/>
      <point x="188" y="213"/>
      <point x="188" y="356" type="curve" smooth="yes"/>
      <point x="188" y="500"/>
      <point x="218" y="572"/>
      <point x="300" y="572" type="curve" smooth="yes"/>
      <point x="385" y="572"/>
      <point x="413" y="500"/>
      <point x="413" y="356" type="curve" smooth="yes"/>
      <point x="413" y="208"/>
      <point x="385" y="143"/>
    </contour>
  </outline>
</glyph>
<glyph name="one" format="2">
  <advance width="620"/>
  <unicode hex="0031"/>
  <outline>
    <contour>
      <point x="237" y="0" type="line"/>
      <point x="411" y="0" type="line"/>
      <point x="411" y="714" type="line"/>
      <point x="263" y="714" type="line"/>
      <point x="33" y="587" type="line"/>
      <point x="111" y="454" type="line"/>
      <point x="175" y="484" type="line" smooth="yes"/>
      <point x="202" y="497"/>
      <point x="219" y="510"/>
      <point x="241" y="524" type="curve"/>
      <point x="239" y="480"/>
      <point x="237" y="404"/>
      <point x="237" y="367" type="curve" smooth="yes"/>
    </contour>
    <contour>
      <point x="83" y="0" type="line"/>
      <point x="559" y="0" type="line"/>
      <point x="559" y="127" type="line"/>
      <point x="410" y="140" type="line"/>
      <point x="238" y="140" type="line"/>
      <point x="83" y="127" type="line"/>
    </contour>
  </outline>
</glyph>
<glyph name="two" format="2">
  <advance width="620"/>
  <unicode hex="0032"/>
  <outline>
    <contour>
      <point x="42" y="0" type="line"/>
      <point x="560" y="0" type="line"/>
      <point x="560" y="152" type="line"/>
      <point x="268" y="152" type="line"/>
      <point x="268" y="157" type="line"/>
      <point x="380" y="252" type="line" smooth="yes"/>
      <point x="506" y="360"/>
      <point x="545" y="433"/>
      <point x="545" y="512" type="curve" smooth="yes"/>
      <point x="545" y="651"/>
      <point x="439" y="724"/>
      <point x="293" y="724" type="curve" smooth="yes"/>
      <point x="189" y="724"/>
      <point x="108" y="691"/>
      <point x="31" y="607" type="curve"/>
      <point x="121" y="491" type="line"/>
      <point x="176" y="548"/>
      <point x="223" y="572"/>
      <point x="277" y="572" type="curve" smooth="yes"/>
      <point x="333" y="572"/>
      <point x="364" y="548"/>
      <point x="364" y="504" type="curve" smooth="yes"/>
      <point x="364" y="452"/>
      <point x="327" y="404"/>
      <point x="210" y="292" type="curve" smooth="yes"/>
      <point x="42" y="124" type="line"/>
    </contour>
  </outline>
</glyph>
<glyph name="three" format="2">
  <advance width="620"/>
  <unicode hex="0033"/>
  <outline>
    <contour>
      <point x="251" y="-10" type="curve" smooth="yes"/>
      <point x="445" y="-10"/>
      <point x="554" y="74"/>
      <point x="554" y="205" type="curve" smooth="yes"/>
      <point x="554" y="301"/>
      <point x="493" y="353"/>
      <point x="386" y="371" type="curve"/>
      <point x="386" y="374" type="line"/>
      <point x="475" y="404"/>
      <point x="533" y="457"/>
      <point x="533" y="547" type="curve" smooth="yes"/>
      <point x="533" y="663"/>
      <point x="444" y="724"/>
      <point x="290" y="724" type="curve" smooth="yes"/>
      <point x="192" y="724"/>
      <point x="112" y="700"/>
      <point x="48" y="657" type="curve"/>
      <point x="117" y="530" type="line"/>
      <point x="164" y="559"/>
      <point x="216" y="574"/>
      <point x="269" y="574" type="curve" smooth="yes"/>
      <point x="327" y="574"/>
      <point x="360" y="557"/>
      <point x="360" y="514" type="curve" smooth="yes"/>
      <point x="360" y="461"/>
      <point x="312" y="435"/>
      <point x="202" y="435" type="curve" smooth="yes"/>
      <point x="151" y="435" type="line"/>
      <point x="151" y="290" type="line"/>
      <point x="201" y="290" type="line" smooth="yes"/>
      <point x="321" y="290"/>
      <point x="369" y="268"/>
      <point x="369" y="214" type="curve" smooth="yes"/>
      <point x="369" y="163"/>
      <point x="328" y="137"/>
      <point x="242" y="137" type="curve" smooth="yes"/>
      <point x="181" y="137"/>
      <point x="111" y="153"/>
      <point x="48" y="184" type="curve"/>
      <point x="48" y="27" type="line"/>
      <point x="121" y="0"/>
      <point x="188" y="-10"/>
    </contour>
  </outline>
</glyph>
<glyph name="four" format="2">
  <advance width="620"/>
  <unicode hex="0034"/>
  <outline>
    <contour>
      <point x="316" y="0" type="line"/>
      <point x="484" y="0" type="line"/>
      <point x="484" y="138" type="line"/>
      <point x="580" y="138" type="line"/>
      <point x="580" y="280" type="line"/>
      <point x="484" y="280" type="line"/>
      <point x="484" y="714" type="line"/>
      <point x="316" y="714" type="line"/>
      <point x="22" y="277" type="line"/>
      <point x="22" y="138" type="line"/>
      <point x="316" y="138" type="line"/>
    </contour>
    <contour>
      <point x="170" y="280" type="line"/>
      <point x="270" y="399" type="line" smooth="yes"/>
      <point x="285" y="419"/>
      <point x="303" y="447"/>
      <point x="315" y="477" type="curve"/>
      <point x="319" y="477" type="line"/>
      <point x="318" y="435"/>
      <point x="316" y="382"/>
      <point x="316" y="370" type="curve" smooth="yes"/>
      <point x="316" y="280" type="line"/>
    </contour>
  </outline>
</glyph>
<glyph name="five" format="2">
  <advance width="620"/>
  <unicode hex="0035"/>
  <outline>
    <contour>
      <point x="249" y="-10" type="curve" smooth="yes"/>
      <point x="444" y="-10"/>
      <point x="547" y="79"/>
      <point x="547" y="239" type="curve" smooth="yes"/>
      <point x="547" y="380"/>
      <point x="457" y="470"/>
      <point x="326" y="470" type="curve" smooth="yes"/>
      <point x="304" y="470"/>
      <point x="273" y="469"/>
      <point x="239" y="461" type="curve"/>
      <point x="250" y="561" type="line"/>
      <point x="503" y="561" type="line"/>
      <point x="503" y="714" type="line"/>
      <point x="92" y="714" type="line"/>
      <point x="66" y="341" type="line"/>
      <point x="128" y="305" type="line"/>
      <point x="162" y="316"/>
      <point x="201" y="322"/>
      <point x="235" y="322" type="curve" smooth="yes"/>
      <point x="318" y="322"/>
      <point x="364" y="290"/>
      <point x="364" y="232" type="curve" smooth="yes"/>
      <point x="364" y="173"/>
      <point x="318" y="140"/>
      <point x="238" y="140" type="curve" smooth="yes"/>
      <point x="176" y="140"/>
      <point x="108" y="161"/>
      <point x="54" y="185" type="curve"/>
      <point x="54" y="27" type="line"/>
      <point x="108" y="2"/>
      <point x="176" y="-10"/>
    </contour>
  </outline>
</glyph>
<glyph name="six" format="2">
  <advance width="620"/>
  <unicode hex="0036"/>
  <outline>
    <contour>
      <point x="310" y="-10" type="curve" smooth="yes"/>
      <point x="467" y="-10"/>
      <point x="565" y="89"/>
      <point x="565" y="245" type="curve" smooth="yes"/>
      <point x="565" y="392"/>
      <point x="486" y="478"/>
      <point x="360" y="478" type="curve" smooth="yes"/>
      <point x="288" y="478"/>
      <point x="238" y="449"/>
      <point x="210" y="395" type="curve"/>
      <point x="206" y="395" type="line"/>
      <point x="211" y="524"/>
      <point x="273" y="577"/>
      <point x="415" y="577" type="curve" smooth="yes"/>
      <point x="450" y="577"/>
      <point x="485" y="574"/>
      <point x="517" y="568" type="curve"/>
      <point x="517" y="716" type="line"/>
      <point x="480" y="721"/>
      <point x="436" y="724"/>
      <point x="398" y="724" type="curve" smooth="yes"/>
      <point x="104" y="724"/>
      <point x="37" y="515"/>
      <point x="37" y="302" type="curve" smooth="yes"/>
      <point x="37" y="103"/>
      <point x="143" y="-10"/>
    </contour>
    <contour>
      <point x="306" y="141" type="curve" smooth="yes"/>
      <point x="250" y="141"/>
      <point x="219" y="182"/>
      <point x="219" y="245" type="curve" smooth="yes"/>
      <point x="219" y="293"/>
      <point x="253" y="331"/>
      <point x="308" y="331" type="curve" smooth="yes"/>
      <point x="362" y="331"/>
      <point x="387" y="299"/>
      <point x="387" y="239" type="curve" smooth="yes"/>
      <point x="387" y="172"/>
      <point x="354" y="141"/>
    </contour>
  </outline>
</glyph>
<glyph name="seven" format="2">
  <advance width="620"/>
  <unicode hex="0037"/>
  <outline>
    <contour>
      <point x="115" y="0" type="line"/>
      <point x="305" y="0" type="line"/>
      <point x="561" y="596" type="line"/>
      <point x="561" y="713" type="line"/>
      <point x="37" y="713" type="line"/>
      <point x="37" y="560" type="line"/>
      <point x="378" y="560" type="line"/>
    </contour>
  </outline>
</glyph>
<glyph name="eight" format="2">
  <advance width="620"/>
  <unicode hex="0038"/>
  <outline>
    <contour>
      <point x="297" y="-10" type="curve" smooth="yes"/>
      <point x="465" y="-10"/>
      <point x="562" y="66"/>
      <point x="562" y="186" type="curve" smooth="yes"/>
      <point x="562" y="264"/>
      <point x="513" y="318"/>
      <point x="413" y="376" type="curve"/>
      <point x="497" y="417"/>
      <point x="541" y="473"/>
      <point x="541" y="548" type="curve" smooth="yes"/>
      <point x="541" y="662"/>
      <point x="449" y="724"/>
      <point x="303" y="724" type="curve" smooth="yes"/>
      <point x="157" y="724"/>
      <point x="62" y="662"/>
      <point x="62" y="549" type="curve" smooth="yes"/>
      <point x="62" y="480"/>
      <point x="103" y="423"/>
      <point x="175" y="373" type="curve"/>
      <point x="87" y="326"/>
      <point x="39" y="268"/>
      <point x="39" y="188" type="curve" smooth="yes"/>
      <point x="39" y="64"/>
      <point x="132" y="-10"/>
    </contour>
    <contour>
      <point x="301" y="128" type="curve" smooth="yes"/>
      <point x="237" y="128"/>
      <point x="209" y="150"/>
      <point x="209" y="192" type="curve" smooth="yes"/>
      <point x="209" y="228"/>
      <point x="239" y="258"/>
      <point x="295" y="287" type="curve"/>
      <point x="358" y="254"/>
      <point x="393" y="231"/>
      <point x="393" y="189" type="curve" smooth="yes"/>
      <point x="393" y="149"/>
      <point x="359" y="128"/>
    </contour>
    <contour>
      <point x="300" y="462" type="curve"/>
      <point x="259" y="485"/>
      <point x="231" y="508"/>
      <point x="231" y="536" type="curve" smooth="yes"/>
      <point x="231" y="566"/>
      <point x="259" y="586"/>
      <point x="301" y="586" type="curve" smooth="yes"/>
      <point x="342" y="586"/>
      <point x="373" y="570"/>
      <point x="373" y="535" type="curve" smooth="yes"/>
      <point x="373" y="509"/>
      <point x="349" y="488"/>
    </contour>
  </outline>
</glyph>
<glyph name="nine" format="2">
  <advance width="620"/>
  <unicode hex="0039"/>
  <outline>
    <contour>
      <point x="203" y="-10" type="curve" smooth="yes"/>
      <point x="487" y="-10"/>
      <point x="562" y="191"/>
      <point x="562" y="408" type="curve" smooth="yes"/>
      <point x="562" y="610"/>
      <point x="455" y="724"/>
      <point x="291" y="724" type="curve" smooth="yes"/>
      <point x="132" y="724"/>
      <point x="35" y="626"/>
      <point x="35" y="469" type="curve" smooth="yes"/>
      <point x="35" y="324"/>
      <point x="113" y="236"/>
      <point x="240" y="236" type="curve" smooth="yes"/>
      <point x="310" y="236"/>
      <point x="362" y="265"/>
      <point x="389" y="319" type="curve"/>
      <point x="395" y="319" type="line"/>
      <point x="389" y="190"/>
      <point x="326" y="137"/>
      <point x="186" y="137" type="curve" smooth="yes"/>
      <point x="152" y="137"/>
      <point x="116" y="140"/>
      <point x="84" y="146" type="curve"/>
      <point x="84" y="-1" type="line"/>
      <point x="121" y="-7"/>
      <point x="164" y="-10"/>
    </contour>
    <contour>
      <point x="291" y="383" type="curve" smooth="yes"/>
      <point x="239" y="383"/>
      <point x="212" y="415"/>
      <point x="212" y="474" type="curve" smooth="yes"/>
      <point x="212" y="543"/>
      <point x="243" y="573"/>
      <point x="294" y="573" type="curve" smooth="yes"/>
      <point x="349" y="573"/>
      <point x="381" y="542"/>
      <point x="381" y="469" type="curve" smooth="yes"/>
      <point x="381" y="432"/>
      <point x="351" y="383"/>
    </contour>
  </outline>
</glyph>
<glyph name="colon" format="2">
  <advance width="620"/>
  <unicode hex="003A"/>
  <outline>
    <contour>
      <point x="303" y="377" type="curve" smooth="yes"/>
      <point x="359" y="377"/>
      <point x="397" y="407"/>
      <point x="397" y="468" type="curve" smooth="yes"/>
      <point x="397" y="528"/>
      <point x="360" y="559"/>
      <point x="303" y="559" type="curve" smooth="yes"/>
      <point x="243" y="559"/>
      <point x="205" y="528"/>
      <point x="205" y="468" type="curve" smooth="yes"/>
      <point x="205" y="407"/>
      <point x="245" y="377"/>
    </contour>
    <contour>
      <point x="303" y="-9" type="curve" smooth="yes"/>
      <point x="359" y="-9"/>
      <point x="397" y="20"/>
      <point x="397" y="81" type="curve" smooth="yes"/>
      <point x="397" y="142"/>
      <point x="360" y="172"/>
      <point x="303" y="172" type="curve" smooth="yes"/>
      <point x="243" y="172"/>
      <point x="205" y="142"/>
      <point x="205" y="81" type="curve" smooth="yes"/>
      <point x="205" y="20"/>
      <point x="245" y="-9"/>
    </contour>
  </outline>
</glyph>
<glyph name="semicolon" format="2">
  <advance width="620"/>
  <unicode hex="003B"/>
  <outline>
    <contour>
      <point x="185" y="-147" type="curve" smooth="yes"/>
      <point x="320" y="-147" type="line"/>
      <point x="355" y="-98"/>
      <point x="388" y="40"/>
      <point x="408" y="134" type="curve"/>
      <point x="400" y="143" type="line"/>
      <point x="244" y="166" type="line"/>
      <point x="228" y="67"/>
      <point x="207" y="-147"/>
    </contour>
    <contour>
      <point x="318" y="376" type="curve" smooth="yes"/>
      <point x="374" y="376"/>
      <point x="413" y="407"/>
      <point x="413" y="468" type="curve" smooth="yes"/>
      <point x="413" y="530"/>
      <point x="376" y="560"/>
      <point x="318" y="560" type="curve" smooth="yes"/>
      <point x="258" y="560"/>
      <point x="220" y="530"/>
      <point x="220" y="468" type="curve" smooth="yes"/>
      <point x="220" y="407"/>
      <point x="260" y="376"/>
    </contour>
  </outline>
</glyph>
<glyph name="equal" format="2">
  <advance width="620"/>
  <unicode hex="003D"/>
  <outline>
    <contour>
      <point x="57" y="390" type="line"/>
      <point x="545" y="390" type="line"/>
      <point x="545" y="528" type="line"/>
      <point x="57" y="528" type="line"/>
    </contour>
    <contour>
      <point x="57" y="161" type="line"/>
      <point x="545" y="161" type="line"/>
      <point x="545" y="299" type="line"/>
      <point x="57" y="299" type="line"/>
    </contour>
  </outline>
</glyph>
<glyph name="greater" format="2">
  <advance width="620"/>
  <unicode hex="003E"/>
  <outline>
    <contour>
      <point x="56" y="109" type="line"/>
      <point x="546" y="318" type="line"/>
      <point x="546" y="399" type="line"/>
      <point x="56" y="611" type="line"/>
      <point x="56" y="470" type="line"/>
      <point x="364" y="360" type="line"/>
      <point x="56" y="250" type="line"/>
    </contour>
  </outline>
</glyph>
<glyph name="question" format="2">
  <advance width="620"/>
  <unicode hex="003F"/>
  <outline>
    <contour>
      <point x="203" y="249" type="line"/>
      <point x="347" y="249" type="line"/>
      <point x="347" y="275" type="line" smooth="yes"/>
      <point x="347" y="306"/>
      <point x="356" y="322"/>
      <point x="417" y="363" type="curve" smooth="yes"/>
      <point x="494" y="414"/>
      <point x="529" y="466"/>
      <point x="529" y="548" type="curve" smooth="yes"/>
      <point x="529" y="655"/>
      <point x="446" y="724"/>
      <point x="297" y="724" type="curve" smooth="yes"/>
      <point x="214" y="724"/>
      <point x="141" y="701"/>
      <point x="72" y="657" type="curve"/>
      <point x="128" y="531" type="line"/>
      <point x="186" y="566"/>
      <point x="235" y="583"/>
      <point x="286" y="583" type="curve" smooth="yes"/>
      <point x="338" y="583"/>
      <point x="367" y="566"/>
      <point x="367" y="533" type="curve" smooth="yes"/>
      <point x="367" y="500"/>
      <point x="351" y="476"/>
      <point x="293" y="437" type="curve" smooth="yes"/>
      <point x="225" y="393"/>
      <point x="203" y="354"/>
      <point x="203" y="291" type="curve" smooth="yes"/>
    </contour>
    <contour>
      <point x="276" y="-11" type="curve" smooth="yes"/>
      <point x="333" y="-11"/>
      <point x="373" y="19"/>
      <point x="373" y="79" type="curve" smooth="yes"/>
      <point x="373" y="142"/>
      <point x="334" y="171"/>
      <point x="276" y="171" type="curve" smooth="yes"/>
      <point x="217" y="171"/>
      <point x="179" y="141"/>
      <point x="179" y="79" type="curve" smooth="yes"/>
      <point x="179" y="19"/>
      <point x="219" y="-11"/>
    </contour>
  </outline>
</glyph>
<glyph name="at" format="2">
  <advance width="620"/>
  <unicode hex="0040"/>
  <outline>
    <contour>
      <point x="317" y="-85" type="curve" smooth="yes"/>
      <point x="377" y="-85"/>
      <point x="441" y="-71"/>
      <point x="494" y="-43" type="curve"/>
      <point x="494" y="51" type="line"/>
      <point x="433" y="21"/>
      <point x="375" y="8"/>
      <point x="320" y="8" type="curve" smooth="yes"/>
      <point x="160" y="8"/>
      <point x="93" y="130"/>
      <point x="93" y="292" type="curve" smooth="yes"/>
      <point x="93" y="497"/>
      <point x="188" y="619"/>
      <point x="321" y="619" type="curve" smooth="yes"/>
      <point x="439" y="619"/>
      <point x="510" y="533"/>
      <point x="510" y="361" type="curve" smooth="yes"/>
      <point x="510" y="269"/>
      <point x="497" y="198"/>
      <point x="469" y="198" type="curve" smooth="yes"/>
      <point x="455" y="198"/>
      <point x="448" y="219"/>
      <point x="448" y="258" type="curve" smooth="yes"/>
      <point x="448" y="266"/>
      <point x="448" y="286"/>
      <point x="449" y="299" type="curve" smooth="yes"/>
      <point x="460" y="497" type="line"/>
      <point x="425" y="512"/>
      <point x="377" y="525"/>
      <point x="331" y="525" type="curve" smooth="yes"/>
      <point x="215" y="525"/>
      <point x="143" y="435"/>
      <point x="143" y="300" type="curve" smooth="yes"/>
      <point x="143" y="182"/>
      <point x="191" y="106"/>
      <point x="274" y="106" type="curve" smooth="yes"/>
      <point x="317" y="106"/>
      <point x="351" y="126"/>
      <point x="371" y="155" type="curve"/>
      <point x="375" y="155" type="line"/>
      <point x="389" y="121"/>
      <point x="421" y="106"/>
      <point x="464" y="106" type="curve" smooth="yes"/>
      <point x="564" y="106"/>
      <point x="609" y="221"/>
      <point x="609" y="370" type="curve" smooth="yes"/>
      <point x="609" y="586"/>
      <point x="496" y="714"/>
      <point x="319" y="714" type="curve" smooth="yes"/>
      <point x="123" y="714"/>
      <point x="-7" y="555"/>
      <point x="-7" y="287" type="curve" smooth="yes"/>
      <point x="-7" y="56"/>
      <point x="102" y="-85"/>
    </contour>
    <contour>
      <point x="295" y="198" type="curve" smooth="yes"/>
      <point x="268" y="198"/>
      <point x="250" y="234"/>
      <point x="250" y="300" type="curve" smooth="yes"/>
      <point x="250" y="381"/>
      <point x="276" y="432"/>
      <point x="326" y="432" type="curve" smooth="yes"/>
      <point x="337" y="432"/>
      <point x="343" y="431"/>
      <point x="352" y="430" type="curve"/>
      <point x="347" y="347" type="line" smooth="yes"/>
      <point x="339" y="235"/>
      <point x="328" y="198"/>
    </contour>
  </outline>
</glyph>
<glyph name="A" format="2">
  <advance width="620"/>
  <unicode hex="0041"/>
  <anchor x="301" y="0" name="bottom"/>
  <anchor x="550" y="10" name="ogonek"/>
  <anchor x="301" y="714" name="top"/>
  <anchor x="589" y="714" name="topright"/>
  <outline>
    <contour>
      <point x="-1" y="0" type="line"/>
      <point x="166" y="0" type="line"/>
      <point x="268" y="427" type="line" smooth="yes"/>
      <point x="280" y="475"/>
      <point x="294" y="548"/>
      <point x="301" y="592" type="curve"/>
      <point x="309" y="548"/>
      <point x="323" y="475"/>
      <point x="335" y="427" type="curve" smooth="yes"/>
      <point x="437" y="0" type="line"/>
      <point x="603" y="0" type="line"/>
      <point x="416" y="716" type="line"/>
      <point x="183" y="716" type="line"/>
    </contour>
    <contour>
      <point x="154" y="147" type="line"/>
      <point x="451" y="147" type="line"/>
      <point x="441" y="289" type="line"/>
      <point x="166" y="289" type="line"/>
    </contour>
  </outline>
</glyph>
<glyph name="B" format="2">
  <advance width="620"/>
  <unicode hex="0042"/>
  <anchor x="301" y="0" name="bottom"/>
  <anchor x="301" y="714" name="top"/>
  <anchor x="589" y="714" name="topright"/>
  <outline>
    <contour>
      <point x="56" y="0" type="line"/>
      <point x="313" y="0" type="line" smooth="yes"/>
      <point x="473" y="0"/>
      <point x="576" y="80"/>
      <point x="576" y="215" type="curve" smooth="yes"/>
      <point x="576" y="300"/>
      <point x="528" y="352"/>
      <point x="446" y="374" type="curve"/>
      <point x="446" y="379" type="line"/>
      <point x="512" y="395"/>
      <point x="560" y="452"/>
      <point x="560" y="538" type="curve" smooth="yes"/>
      <point x="560" y="656"/>
      <point x="469" y="714"/>
      <point x="294" y="714" type="curve" smooth="yes"/>
      <point x="56" y="714" type="line"/>
    </contour>
    <contour>
      <point x="217" y="141" type="line"/>
      <point x="217" y="304" type="line"/>
      <point x="297" y="304" type="line" smooth="yes"/>
      <point x="379" y="304"/>
      <point x="412" y="273"/>
      <point x="412" y="223" type="curve" smooth="yes"/>
      <point x="412" y="174"/>
      <point x="381" y="141"/>
      <point x="300" y="141" type="curve" smooth="yes"/>
    </contour>
    <contour>
      <point x="217" y="432" type="line"/>
      <point x="217" y="573" type="line"/>
      <point x="285" y="573" type="line" smooth="yes"/>
      <point x="362" y="573"/>
      <point x="399" y="549"/>
      <point x="399" y="505" type="curve" smooth="yes"/>
      <point x="399" y="461"/>
      <point x="361" y="432"/>
      <point x="292" y="432" type="curve" smooth="yes"/>
    </contour>
  </outline>
</glyph>
<glyph name="C" format="2">
  <advance width="620"/>
  <unicode hex="0043"/>
  <anchor x="360" y="0" name="bottom"/>
  <anchor x="361" y="714" name="top"/>
  <anchor x="589" y="714" name="topright"/>
  <outline>
    <contour>
      <point x="356" y="-10" type="curve" smooth="yes"/>
      <point x="423" y="-10"/>
      <point x="493" y="3"/>
      <point x="552" y="31" type="curve"/>
      <point x="552" y="187" type="line"/>
      <point x="498" y="159"/>
      <point x="439" y="140"/>
      <point x="381" y="140" type="curve" smooth="yes"/>
      <point x="264" y="140"/>
      <point x="206" y="205"/>
      <point x="206" y="349" type="curve" smooth="yes"/>
      <point x="206" y="488"/>
      <point x="265" y="573"/>
      <point x="391" y="573" type="curve" smooth="yes"/>
      <point x="434" y="573"/>
      <point x="486" y="564"/>
      <point x="533" y="538" type="curve"/>
      <point x="582" y="678" type="line"/>
      <point x="519" y="710"/>
      <point x="458" y="725"/>
      <point x="374" y="725" type="curve" smooth="yes"/>
      <point x="159" y="725"/>
      <point x="35" y="579"/>
      <point x="35" y="343" type="curve" smooth="yes"/>
      <point x="35" y="122"/>
      <point x="142" y="-10"/>
    </contour>
  </outline>
</glyph>
<glyph name="D" format="2">
  <advance width="620"/>
  <unicode hex="0044"/>
  <anchor x="262" y="0" name="bottom"/>
  <anchor x="303" y="357" name="center"/>
  <anchor x="287" y="714" name="top"/>
  <anchor x="612" y="714" name="topright"/>
  <outline>
    <contour>
      <point x="32" y="0" type="line"/>
      <point x="254" y="0" type="line" smooth="yes"/>
      <point x="450" y="0"/>
      <point x="587" y="137"/>
      <point x="587" y="372" type="curve" smooth="yes"/>
      <point x="587" y="585"/>
      <point x="467" y="714"/>
      <point x="262" y="714" type="curve" smooth="yes"/>
      <point x="32" y="714" type="line"/>
    </contour>
    <contour>
      <point x="198" y="147" type="line"/>
      <point x="198" y="567" type="line"/>
      <point x="251" y="567" type="line" smooth="yes"/>
      <point x="357" y="567"/>
      <point x="415" y="500"/>
      <point x="415" y="360" type="curve" smooth="yes"/>
      <point x="415" y="228"/>
      <point x="360" y="147"/>
      <point x="240" y="147" type="curve" smooth="yes"/>
    </contour>
  </outline>
</glyph>
<glyph name="E" format="2">
  <advance width="620"/>
  <unicode hex="0045"/>
  <anchor x="305" y="0" name="bottom"/>
  <anchor x="474" y="10" name="ogonek"/>
  <anchor x="305" y="714" name="top"/>
  <anchor x="13" y="714" name="topleft"/>
  <anchor x="589" y="714" name="topright"/>
  <outline>
    <contour>
      <point x="56" y="0" type="line"/>
      <point x="551" y="0" type="line"/>
      <point x="551" y="149" type="line"/>
      <point x="225" y="149" type="line"/>
      <point x="225" y="289" type="line"/>
      <point x="533" y="289" type="line"/>
      <point x="533" y="438" type="line"/>
      <point x="225" y="438" type="line"/>
      <point x="225" y="565" type="line"/>
      <point x="551" y="565" type="line"/>
      <point x="551" y="714" type="line"/>
      <point x="56" y="714" type="line"/>
    </contour>
  </outline>
</glyph>
<glyph name="F" format="2">
  <advance width="620"/>
  <unicode hex="0046"/>
  <anchor x="312" y="0" name="bottom"/>
  <anchor x="312" y="714" name="top"/>
  <anchor x="589" y="714" name="topright"/>
  <outline>
    <contour>
      <point x="56" y="0" type="line"/>
      <point x="225" y="0" type="line"/>
      <point x="225" y="262" type="line"/>
      <point x="533" y="262" type="line"/>
      <point x="533" y="411" type="line"/>
      <point x="225" y="411" type="line"/>
      <point x="225" y="566" type="line"/>
      <point x="551" y="566" type="line"/>
      <point x="551" y="714" type="line"/>
      <point x="56" y="714" type="line"/>
    </contour>
  </outline>
</glyph>
<glyph name="G" format="2">
  <advance width="620"/>
  <unicode hex="0047"/>
  <anchor x="347" y="0" name="bottom"/>
  <anchor x="338" y="714" name="top"/>
  <anchor x="589" y="714" name="topright"/>
  <outline>
    <contour>
      <point x="361" y="-10" type="curve" smooth="yes"/>
      <point x="433" y="-10"/>
      <point x="503" y="0"/>
      <point x="570" y="32" type="curve"/>
      <point x="570" y="419" type="line"/>
      <point x="325" y="419" type="line"/>
      <point x="325" y="277" type="line"/>
      <point x="414" y="277" type="line"/>
      <point x="414" y="148" type="line"/>
      <point x="395" y="142"/>
      <point x="369" y="140"/>
      <point x="345" y="140" type="curve" smooth="yes"/>
      <point x="232" y="140"/>
      <point x="184" y="226"/>
      <point x="184" y="348" type="curve" smooth="yes"/>
      <point x="184" y="499"/>
      <point x="247" y="576"/>
      <point x="382" y="576" type="curve" smooth="yes"/>
      <point x="430" y="576"/>
      <point x="472" y="567"/>
      <point x="517" y="543" type="curve"/>
      <point x="566" y="680" type="line"/>
      <point x="515" y="705"/>
      <point x="452" y="725"/>
      <point x="368" y="725" type="curve" smooth="yes"/>
      <point x="144" y="725"/>
      <point x="15" y="589"/>
      <point x="15" y="342" type="curve" smooth="yes"/>
      <point x="15" y="115"/>
      <point x="126" y="-10"/>
    </contour>
  </outline>
</glyph>
<glyph name="H" format="2">
  <advance width="620"/>
  <unicode hex="0048"/>
  <anchor x="301" y="0" name="bottom"/>
  <anchor x="301" y="371" name="center"/>
  <anchor x="301" y="714" name="top"/>
  <anchor x="13" y="714" name="topleft"/>
  <anchor x="612" y="714" name="topright"/>
  <outline>
    <contour>
      <point x="32" y="0" type="line"/>
      <point x="201" y="0" type="line"/>
      <point x="201" y="295" type="line"/>
      <point x="401" y="295" type="line"/>
      <point x="401" y="0" type="line"/>
      <point x="570" y="0" type="line"/>
      <point x="570" y="714" type="line"/>
      <point x="401" y="714" type="line"/>
      <point x="401" y="444" type="line"/>
      <point x="201" y="444" type="line"/>
      <point x="201" y="714" type="line"/>
      <point x="32" y="714" type="line"/>
    </contour>
  </outline>
</glyph>
<glyph name="I" format="2">
  <advance width="620"/>
  <unicode hex="0049"/>
  <anchor x="301" y="0" name="bottom"/>
  <anchor x="405" y="10" name="ogonek"/>
  <anchor x="301" y="714" name="top"/>
  <anchor x="13" y="714" name="topleft"/>
  <anchor x="589" y="714" name="topright"/>
  <outline>
    <contour>
      <point x="68" y="0" type="line"/>
      <point x="533" y="0" type="line"/>
      <point x="533" y="123" type="line"/>
      <point x="385" y="139" type="line"/>
      <point x="385" y="575" type="line"/>
      <point x="533" y="591" type="line"/>
      <point x="533" y="714" type="line"/>
      <point x="68" y="714" type="line"/>
      <point x="68" y="591" type="line"/>
      <point x="219" y="575" type="line"/>
      <point x="219" y="139" type="line"/>
      <point x="68" y="123" type="line"/>
    </contour>
  </outline>
</glyph>
<glyph name="J" format="2">
  <advance width="620"/>
  <unicode hex="004A"/>
  <anchor x="301" y="0" name="bottom"/>
  <anchor x="429" y="714" name="top"/>
  <anchor x="589" y="714" name="topright"/>
  <outline>
    <contour>
      <point x="216" y="-9" type="curve" smooth="yes"/>
      <point x="419" y="-9"/>
      <point x="515" y="91"/>
      <point x="515" y="259" type="curve" smooth="yes"/>
      <point x="515" y="714" type="line"/>
      <point x="347" y="714" type="line"/>
      <point x="347" y="292" type="line" smooth="yes"/>
      <point x="347" y="183"/>
      <point x="291" y="137"/>
      <point x="192" y="137" type="curve" smooth="yes"/>
      <point x="159" y="137"/>
      <point x="109" y="139"/>
      <point x="55" y="153" type="curve"/>
      <point x="55" y="8" type="line"/>
      <point x="105" y="-4"/>
      <point x="164" y="-9"/>
    </contour>
  </outline>
</glyph>
<glyph name="K" format="2">
  <advance width="620"/>
  <unicode hex="004B"/>
  <anchor x="305" y="0" name="bottom"/>
  <anchor x="301" y="714" name="top"/>
  <anchor x="589" y="714" name="topright"/>
  <outline>
    <contour>
      <point x="32" y="0" type="line"/>
      <point x="199" y="0" type="line"/>
      <point x="199" y="219" type="line"/>
      <point x="262" y="260" type="line"/>
      <point x="396" y="0" type="line"/>
      <point x="588" y="0" type="line"/>
      <point x="388" y="392" type="line"/>
      <point x="590" y="714" type="line"/>
      <point x="405" y="714" type="line"/>
      <point x="261" y="490" type="line" smooth="yes"/>
      <point x="241" y="455"/>
      <point x="218" y="422"/>
      <point x="199" y="386" type="curve"/>
      <point x="199" y="714" type="line"/>
      <point x="32" y="714" type="line"/>
    </contour>
  </outline>
</glyph>
<glyph name="L" format="2">
  <advance width="620"/>
  <unicode hex="004C"/>
  <anchor x="326" y="0" name="bottom"/>
  <anchor x="301" y="357" name="center"/>
  <anchor x="154" y="714" name="top"/>
  <anchor x="462" y="714" name="topright"/>
  <outline>
    <contour>
      <point x="71" y="0" type="line"/>
      <point x="551" y="0" type="line"/>
      <point x="551" y="151" type="line"/>
      <point x="241" y="151" type="line"/>
      <point x="241" y="714" type="line"/>
      <point x="71" y="714" type="line"/>
    </contour>
  </outline>
</glyph>
<glyph name="M" format="2">
  <advance width="620"/>
  <unicode hex="004D"/>
  <anchor x="301" y="0" name="bottom"/>
  <anchor x="305" y="714" name="top"/>
  <anchor x="612" y="714" name="topright"/>
  <outline>
    <contour>
      <point x="15" y="0" type="line"/>
      <point x="162" y="0" type="line"/>
      <point x="160" y="141" type="line" smooth="yes"/>
      <point x="160" y="194"/>
      <point x="136" y="555"/>
      <point x="134" y="579" type="curve"/>
      <point x="142" y="579" type="line"/>
      <point x="220" y="168" type="line"/>
      <point x="386" y="168" type="line"/>
      <point x="464" y="579" type="line"/>
      <point x="472" y="579" type="line"/>
      <point x="469" y="558"/>
      <point x="442" y="193"/>
      <point x="442" y="141" type="curve" smooth="yes"/>
      <point x="440" y="0" type="line"/>
      <point x="586" y="0" type="line"/>
      <point x="586" y="714" type="line"/>
      <point x="360" y="714" type="line"/>
      <point x="305" y="296" type="line"/>
      <point x="301" y="296" type="line"/>
      <point x="244" y="714" type="line"/>
      <point x="15" y="714" type="line"/>
    </contour>
  </outline>
</glyph>
<glyph name="N" format="2">
  <advance width="620"/>
  <unicode hex="004E"/>
  <anchor x="301" y="0" name="bottom"/>
  <anchor x="306" y="714" name="top"/>
  <anchor x="612" y="714" name="topright"/>
  <outline>
    <contour>
      <point x="32" y="0" type="line"/>
      <point x="187" y="0" type="line"/>
      <point x="187" y="310" type="line" smooth="yes"/>
      <point x="187" y="381"/>
      <point x="177" y="446"/>
      <point x="169" y="567" type="curve"/>
      <point x="176" y="567" type="line"/>
      <point x="342" y="0" type="line"/>
      <point x="570" y="0" type="line"/>
      <point x="570" y="714" type="line"/>
      <point x="414" y="714" type="line"/>
      <point x="414" y="403" type="line" smooth="yes"/>
      <point x="414" y="336"/>
      <point x="425" y="232"/>
      <point x="430" y="149" type="curve"/>
      <point x="424" y="149" type="line"/>
      <point x="266" y="714" type="line"/>
      <point x="32" y="714" type="line"/>
    </contour>
  </outline>
</glyph>
<glyph name="O" format="2">
  <advance width="620"/>
  <unicode hex="004F"/>
  <anchor x="301" y="0" name="bottom"/>
  <anchor x="301" y="357" name="center"/>
  <anchor x="311" y="10" name="ogonek"/>
  <anchor x="301" y="714" name="top"/>
  <anchor x="13" y="714" name="topleft"/>
  <anchor x="612" y="714" name="topright"/>
  <outline>
    <contour>
      <point x="300" y="-8" type="curve" smooth="yes"/>
      <point x="499" y="-8"/>
      <point x="587" y="123"/>
      <point x="587" y="358" type="curve" smooth="yes"/>
      <point x="587" y="595"/>
      <point x="499" y="725"/>
      <point x="300" y="725" type="curve" smooth="yes"/>
      <point x="99" y="725"/>
      <point x="15" y="593"/>
      <point x="15" y="360" type="curve" smooth="yes"/>
      <point x="15" y="121"/>
      <point x="103" y="-8"/>
    </contour>
    <contour>
      <point x="303" y="142" type="curve" smooth="yes"/>
      <point x="215" y="142"/>
      <point x="188" y="219"/>
      <point x="188" y="359" type="curve" smooth="yes"/>
      <point x="188" y="500"/>
      <point x="216" y="574"/>
      <point x="302" y="574" type="curve" smooth="yes"/>
      <point x="389" y="574"/>
      <point x="414" y="504"/>
      <point x="414" y="358" type="curve" smooth="yes"/>
      <point x="414" y="222"/>
      <point x="391" y="142"/>
    </contour>
  </outline>
</glyph>
<glyph name="P" format="2">
  <advance width="620"/>
  <unicode hex="0050"/>
  <anchor x="301" y="0" name="bottom"/>
  <anchor x="305" y="714" name="top"/>
  <anchor x="612" y="714" name="topright"/>
  <outline>
    <contour>
      <point x="56" y="0" type="line"/>
      <point x="223" y="0" type="line"/>
      <point x="223" y="239" type="line"/>
      <point x="300" y="239" type="line" smooth="yes"/>
      <point x="500" y="239"/>
      <point x="576" y="345"/>
      <point x="576" y="485" type="curve" smooth="yes"/>
      <point x="576" y="633"/>
      <point x="490" y="714"/>
      <point x="306" y="714" type="curve" smooth="yes"/>
      <point x="56" y="714" type="line"/>
    </contour>
    <contour>
      <point x="223" y="381" type="line"/>
      <point x="223" y="574" type="line"/>
      <point x="294" y="574" type="line" smooth="yes"/>
      <point x="372" y="574"/>
      <point x="411" y="541"/>
      <point x="411" y="478" type="curve" smooth="yes"/>
      <point x="411" y="415"/>
      <point x="371" y="381"/>
      <point x="283" y="381" type="curve" smooth="yes"/>
    </contour>
  </outline>
</glyph>
<glyph name="Q" format="2">
  <advance width="620"/>
  <unicode hex="0051"/>
  <anchor x="301" y="-220" name="bottom"/>
  <anchor x="301" y="714" name="top"/>
  <anchor x="612" y="714" name="topright"/>
  <anchor x="3" y="714" name="topleft"/>
  <anchor x="301" y="10" name="ogonek"/>
  <anchor x="291" y="357" name="center"/>
  <outline>
    <contour>
      <point x="405" y="-180" type="line"/>
      <point x="584" y="-180" type="line"/>
      <point x="442" y="100" type="line"/>
      <point x="312" y="28" type="line"/>
    </contour>
    <component base="O" xOffset="-10"/>
  </outline>
</glyph>
<glyph name="R" format="2">
  <advance width="620"/>
  <unicode hex="0052"/>
  <anchor x="324" y="0" name="bottom"/>
  <anchor x="301" y="714" name="top"/>
  <anchor x="589" y="714" name="topright"/>
  <outline>
    <contour>
      <point x="56" y="0" type="line"/>
      <point x="221" y="0" type="line"/>
      <point x="221" y="258" type="line"/>
      <point x="291" y="258" type="line"/>
      <point x="416" y="0" type="line"/>
      <point x="601" y="0" type="line"/>
      <point x="437" y="305" type="line"/>
      <point x="519" y="351"/>
      <point x="557" y="416"/>
      <point x="557" y="503" type="curve" smooth="yes"/>
      <point x="557" y="643"/>
      <point x="464" y="714"/>
      <point x="271" y="714" type="curve" smooth="yes"/>
      <point x="56" y="714" type="line"/>
    </contour>
    <contour>
      <point x="221" y="402" type="line"/>
      <point x="221" y="570" type="line"/>
      <point x="270" y="570" type="line" smooth="yes"/>
      <point x="356" y="570"/>
      <point x="392" y="542"/>
      <point x="392" y="490" type="curve" smooth="yes"/>
      <point x="392" y="428"/>
      <point x="349" y="402"/>
      <point x="268" y="402" type="curve" smooth="yes"/>
    </contour>
  </outline>
</glyph>
<glyph name="S" format="2">
  <advance width="620"/>
  <unicode hex="0053"/>
  <anchor x="301" y="0" name="bottom"/>
  <anchor x="316" y="714" name="top"/>
  <anchor x="589" y="714" name="topright"/>
  <outline>
    <contour>
      <point x="273" y="-10" type="curve" smooth="yes"/>
      <point x="464" y="-10"/>
      <point x="558" y="69"/>
      <point x="558" y="201" type="curve" smooth="yes"/>
      <point x="558" y="314"/>
      <point x="486" y="358"/>
      <point x="358" y="426" type="curve" smooth="yes"/>
      <point x="264" y="471"/>
      <point x="230" y="488"/>
      <point x="230" y="521" type="curve" smooth="yes"/>
      <point x="230" y="556"/>
      <point x="265" y="577"/>
      <point x="331" y="577" type="curve" smooth="yes"/>
      <point x="379" y="577"/>
      <point x="434" y="566"/>
      <point x="495" y="533" type="curve"/>
      <point x="547" y="673" type="line"/>
      <point x="479" y="705"/>
      <point x="407" y="724"/>
      <point x="321" y="724" type="curve" smooth="yes"/>
      <point x="149" y="724"/>
      <point x="57" y="648"/>
      <point x="57" y="525" type="curve" smooth="yes"/>
      <point x="57" y="417"/>
      <point x="132" y="366"/>
      <point x="242" y="305" type="curve" smooth="yes"/>
      <point x="342" y="252"/>
      <point x="386" y="241"/>
      <point x="386" y="194" type="curve" smooth="yes"/>
      <point x="386" y="163"/>
      <point x="356" y="138"/>
      <point x="271" y="138" type="curve" smooth="yes"/>
      <point x="196" y="138"/>
      <point x="124" y="160"/>
      <point x="56" y="204" type="curve"/>
      <point x="56" y="35" type="line"/>
      <point x="126" y="1"/>
      <point x="197" y="-10"/>
    </contour>
  </outline>
</glyph>
<glyph name="T" format="2">
  <advance width="620"/>
  <unicode hex="0054"/>
  <anchor x="301" y="0" name="bottom"/>
  <anchor x="301" y="357" name="center"/>
  <anchor x="301" y="714" name="top"/>
  <anchor x="589" y="714" name="topright"/>
  <outline>
    <contour>
      <point x="217" y="0" type="line"/>
      <point x="386" y="0" type="line"/>
      <point x="386" y="566" type="line"/>
      <point x="587" y="566" type="line"/>
      <point x="587" y="714" type="line"/>
      <point x="15" y="714" type="line"/>
      <point x="15" y="566" type="line"/>
      <point x="217" y="566" type="line"/>
    </contour>
  </outline>
</glyph>
<glyph name="U" format="2">
  <advance width="620"/>
  <unicode hex="0055"/>
  <anchor x="301" y="0" name="bottom"/>
  <anchor x="550" y="10" name="ogonek"/>
  <anchor x="301" y="714" name="top"/>
  <anchor x="589" y="714" name="topright"/>
  <outline>
    <contour>
      <point x="300" y="-10" type="curve" smooth="yes"/>
      <point x="493" y="-10"/>
      <point x="570" y="86"/>
      <point x="570" y="275" type="curve" smooth="yes"/>
      <point x="570" y="714" type="line"/>
      <point x="399" y="714" type="line"/>
      <point x="399" y="287" type="line" smooth="yes"/>
      <point x="399" y="182"/>
      <point x="381" y="142"/>
      <point x="300" y="142" type="curve" smooth="yes"/>
      <point x="221" y="142"/>
      <point x="202" y="180"/>
      <point x="202" y="286" type="curve" smooth="yes"/>
      <point x="202" y="714" type="line"/>
      <point x="32" y="714" type="line"/>
      <point x="32" y="271" type="line" smooth="yes"/>
      <point x="32" y="81"/>
      <point x="112" y="-10"/>
    </contour>
  </outline>
</glyph>
<glyph name="V" format="2">
  <advance width="620"/>
  <unicode hex="0056"/>
  <anchor x="301" y="0" name="bottom"/>
  <anchor x="301" y="714" name="top"/>
  <anchor x="589" y="714" name="topright"/>
  <outline>
    <contour>
      <point x="196" y="0" type="line"/>
      <point x="405" y="0" type="line"/>
      <point x="602" y="714" type="line"/>
      <point x="428" y="714" type="line"/>
      <point x="334" y="307" type="line" smooth="yes"/>
      <point x="325" y="267"/>
      <point x="312" y="189"/>
      <point x="305" y="142" type="curve"/>
      <point x="300" y="142" type="line"/>
      <point x="293" y="189"/>
      <point x="280" y="266"/>
      <point x="270" y="307" type="curve" smooth="yes"/>
      <point x="171" y="714" type="line"/>
      <point x="-1" y="714" type="line"/>
    </contour>
  </outline>
</glyph>
<glyph name="W" format="2">
  <advance width="620"/>
  <unicode hex="0057"/>
  <anchor x="301" y="0" name="bottom"/>
  <anchor x="301" y="714" name="top"/>
  <anchor x="589" y="714" name="topright"/>
  <outline>
    <contour>
      <point x="51" y="0" type="line"/>
      <point x="253" y="0" type="line"/>
      <point x="279" y="164" type="line" smooth="yes"/>
      <point x="290" y="216"/>
      <point x="296" y="319"/>
      <point x="299" y="372" type="curve"/>
      <point x="304" y="372" type="line"/>
      <point x="307" y="319"/>
      <point x="314" y="216"/>
      <point x="326" y="164" type="curve" smooth="yes"/>
      <point x="353" y="0" type="line"/>
      <point x="552" y="0" type="line"/>
      <point x="602" y="714" type="line"/>
      <point x="461" y="714" type="line"/>
      <point x="452" y="566"/>
      <point x="448" y="505"/>
      <point x="443" y="415" type="curve" smooth="yes"/>
      <point x="440" y="358"/>
      <point x="437" y="260"/>
      <point x="435" y="143" type="curve"/>
      <point x="429" y="143" type="line"/>
      <point x="424" y="203"/>
      <point x="410" y="317"/>
      <point x="400" y="376" type="curve" smooth="yes"/>
      <point x="371" y="554" type="line"/>
      <point x="232" y="554" type="line"/>
      <point x="205" y="377" type="line" smooth="yes"/>
      <point x="195" y="326"/>
      <point x="180" y="206"/>
      <point x="173" y="144" type="curve"/>
      <point x="167" y="144" type="line"/>
      <point x="166" y="256"/>
      <point x="162" y="355"/>
      <point x="159" y="409" type="curve" smooth="yes"/>
      <point x="155" y="493"/>
      <point x="148" y="559"/>
      <point x="139" y="714" type="curve"/>
      <point x="-1" y="714" type="line"/>
    </contour>
  </outline>
</glyph>
<glyph name="X" format="2">
  <advance width="620"/>
  <unicode hex="0058"/>
  <anchor x="301" y="0" name="bottom"/>
  <anchor x="301" y="714" name="top"/>
  <anchor x="589" y="714" name="topright"/>
  <outline>
    <contour>
      <point x="5" y="0" type="line"/>
      <point x="184" y="0" type="line"/>
      <point x="299" y="220" type="line"/>
      <point x="413" y="0" type="line"/>
      <point x="597" y="0" type="line"/>
      <point x="394" y="363" type="line"/>
      <point x="583" y="714" type="line"/>
      <point x="400" y="714" type="line"/>
      <point x="300" y="509" type="line"/>
      <point x="198" y="714" type="line"/>
      <point x="16" y="714" type="line"/>
      <point x="204" y="364" type="line"/>
    </contour>
  </outline>
</glyph>
<glyph name="Y" format="2">
  <advance width="620"/>
  <unicode hex="0059"/>
  <anchor x="301" y="0" name="bottom"/>
  <anchor x="301" y="714" name="top"/>
  <anchor x="13" y="714" name="topleft"/>
  <anchor x="589" y="714" name="topright"/>
  <outline>
    <contour>
      <point x="218" y="0" type="line"/>
      <point x="382" y="0" type="line"/>
      <point x="382" y="277" type="line"/>
      <point x="597" y="714" type="line"/>
      <point x="416" y="714" type="line"/>
      <point x="302" y="457" type="line"/>
      <point x="188" y="714" type="line"/>
      <point x="5" y="714" type="line"/>
      <point x="218" y="276" type="line"/>
    </contour>
  </outline>
</glyph>
<glyph name="Z" format="2">
  <advance width="620"/>
  <unicode hex="005A"/>
  <anchor x="317" y="0" name="bottom"/>
  <anchor x="308" y="714" name="top"/>
  <anchor x="589" y="714" name="topright"/>
  <outline>
    <contour>
      <point x="56" y="0" type="line"/>
      <point x="553" y="0" type="line"/>
      <point x="553" y="149" type="line"/>
      <point x="249" y="149" type="line"/>
      <point x="551" y="595" type="line"/>
      <point x="551" y="714" type="line"/>
      <point x="67" y="714" type="line"/>
      <point x="67" y="567" type="line"/>
      <point x="368" y="567" type="line"/>
      <point x="56" y="119" type="line"/>
    </contour>
  </outline>
</glyph>
<glyph name="bracketleft" format="2">
  <advance width="620"/>
  <unicode hex="005B"/>
  <outline>
    <contour>
      <point x="214" y="-167" type="line"/>
      <point x="489" y="-167" type="line"/>
      <point x="489" y="-48" type="line"/>
      <point x="364" y="-48" type="line"/>
      <point x="364" y="613" type="line"/>
      <point x="489" y="613" type="line"/>
      <point x="489" y="733" type="line"/>
      <point x="214" y="733" type="line"/>
    </contour>
  </outline>
</glyph>
<glyph name="asciicircum" format="2">
  <advance width="620"/>
  <unicode hex="005E"/>
  <outline>
    <contour>
      <point x="15" y="256" type="line"/>
      <point x="163" y="256" type="line"/>
      <point x="297" y="511" type="line"/>
      <point x="438" y="256" type="line"/>
      <point x="587" y="256" type="line"/>
      <point x="338" y="714" type="line"/>
      <point x="255" y="714" type="line"/>
    </contour>
  </outline>
</glyph>
<glyph name="underscore" format="2">
  <advance width="620"/>
  <unicode hex="005F"/>
  <outline>
    <contour>
      <point x="-10" y="-195" type="line"/>
      <point x="612" y="-195" type="line"/>
      <point x="612" y="-57" type="line"/>
      <point x="-10" y="-57" type="line"/>
    </contour>
  </outline>
</glyph>
<glyph name="grave" format="2">
  <advance width="620"/>
  <unicode hex="0060"/>
  <outline>
    <contour>
      <point x="313" y="606" type="curve"/>
      <point x="428" y="606" type="line"/>
      <point x="428" y="619" type="line"/>
      <point x="401" y="650"/>
      <point x="350" y="725"/>
      <point x="326" y="766" type="curve"/>
      <point x="143" y="766" type="line"/>
      <point x="143" y="757" type="line"/>
      <point x="175" y="721"/>
      <point x="269" y="637"/>
    </contour>
  </outline>
</glyph>
<glyph name="a" format="2">
  <advance width="620"/>
  <unicode hex="0061"/>
  <anchor x="309" y="0" name="bottom"/>
  <anchor x="550" y="10" name="ogonek"/>
  <anchor x="314" y="554" name="top"/>
  <anchor x="600" y="554" name="topright"/>
  <outline>
    <contour>
      <point x="228" y="-10" type="curve" smooth="yes"/>
      <point x="293" y="-10"/>
      <point x="353" y="8"/>
      <point x="399" y="70" type="curve"/>
      <point x="402" y="70" type="line"/>
      <point x="423" y="0" type="line"/>
      <point x="551" y="0" type="line"/>
      <point x="551" y="376" type="line" smooth="yes"/>
      <point x="551" y="500"/>
      <point x="468" y="564"/>
      <point x="308" y="564" type="curve" smooth="yes"/>
      <point x="222" y="564"/>
      <point x="150" y="548"/>
      <point x="84" y="514" type="curve"/>
      <point x="139" y="390" type="line"/>
      <point x="187" y="412"/>
      <point x="236" y="422"/>
      <point x="286" y="422" type="curve" smooth="yes"/>
      <point x="352" y="422"/>
      <point x="391" y="405"/>
      <point x="391" y="366" type="curve" smooth="yes"/>
      <point x="391" y="353" type="line"/>
      <point x="277" y="349" type="line" smooth="yes"/>
      <point x="134" y="345"/>
      <point x="42" y="293"/>
      <point x="42" y="166" type="curve" smooth="yes"/>
      <point x="42" y="61"/>
      <point x="108" y="-10"/>
    </contour>
    <contour>
      <point x="279" y="132" type="curve" smooth="yes"/>
      <point x="233" y="132"/>
      <point x="201" y="147"/>
      <point x="201" y="182" type="curve" smooth="yes"/>
      <point x="201" y="224"/>
      <point x="245" y="242"/>
      <point x="325" y="243" type="curve" smooth="yes"/>
      <point x="391" y="245" type="line"/>
      <point x="391" y="214" type="line" smooth="yes"/>
      <point x="391" y="159"/>
      <point x="340" y="132"/>
    </contour>
  </outline>
</glyph>
<glyph name="b" format="2">
  <advance width="620"/>
  <unicode hex="0062"/>
  <anchor x="301" y="0" name="bottom"/>
  <anchor x="301" y="760" name="top"/>
  <anchor x="589" y="760" name="topright"/>
  <outline>
    <contour>
      <point x="360" y="-10" type="curve" smooth="yes"/>
      <point x="496" y="-10"/>
      <point x="579" y="114"/>
      <point x="579" y="279" type="curve" smooth="yes"/>
      <point x="579" y="428"/>
      <point x="509" y="564"/>
      <point x="365" y="564" type="curve" smooth="yes"/>
      <point x="299" y="564"/>
      <point x="240" y="542"/>
      <point x="207" y="484" type="curve"/>
      <point x="200" y="484" type="line"/>
      <point x="205" y="528"/>
      <point x="208" y="552"/>
      <point x="208" y="579" type="curve" smooth="yes"/>
      <point x="208" y="760" type="line"/>
      <point x="42" y="760" type="line"/>
      <point x="42" y="0" type="line"/>
      <point x="176" y="0" type="line"/>
      <point x="197" y="55" type="line"/>
      <point x="208" y="55" type="line"/>
      <point x="247" y="6"/>
      <point x="302" y="-10"/>
    </contour>
    <contour>
      <point x="305" y="134" type="curve" smooth="yes"/>
      <point x="238" y="134"/>
      <point x="205" y="176"/>
      <point x="205" y="278" type="curve" smooth="yes"/>
      <point x="205" y="376"/>
      <point x="238" y="419"/>
      <point x="306" y="419" type="curve" smooth="yes"/>
      <point x="375" y="419"/>
      <point x="405" y="376"/>
      <point x="405" y="279" type="curve" smooth="yes"/>
      <point x="405" y="180"/>
      <point x="374" y="134"/>
    </contour>
  </outline>
</glyph>
<glyph name="c" format="2">
  <advance width="620"/>
  <unicode hex="0063"/>
  <anchor x="348" y="0" name="bottom"/>
  <anchor x="337" y="554" name="top"/>
  <anchor x="589" y="554" name="topright"/>
  <outline>
    <contour>
      <point x="350" y="-10" type="curve" smooth="yes"/>
      <point x="412" y="-10"/>
      <point x="482" y="0"/>
      <point x="533" y="30" type="curve"/>
      <point x="533" y="185" type="line"/>
      <point x="482" y="145"/>
      <point x="421" y="134"/>
      <point x="372" y="134" type="curve" smooth="yes"/>
      <point x="283" y="134"/>
      <point x="227" y="175"/>
      <point x="227" y="280" type="curve" smooth="yes"/>
      <point x="227" y="370"/>
      <point x="271" y="419"/>
      <point x="368" y="419" type="curve" smooth="yes"/>
      <point x="415" y="419"/>
      <point x="455" y="410"/>
      <point x="501" y="389" type="curve"/>
      <point x="552" y="521" type="line"/>
      <point x="496" y="550"/>
      <point x="426" y="564"/>
      <point x="354" y="564" type="curve" smooth="yes"/>
      <point x="148" y="564"/>
      <point x="54" y="438"/>
      <point x="54" y="274" type="curve" smooth="yes"/>
      <point x="54" y="83"/>
      <point x="172" y="-10"/>
    </contour>
  </outline>
</glyph>
<glyph name="d" format="2">
  <advance width="620"/>
  <unicode hex="0064"/>
  <anchor x="301" y="0" name="bottom"/>
  <anchor x="301" y="277" name="center"/>
  <anchor x="301" y="760" name="top"/>
  <anchor x="602" y="760" name="topright"/>
  <outline>
    <contour>
      <point x="239" y="-10" type="curve" smooth="yes"/>
      <point x="309" y="-10"/>
      <point x="363" y="15"/>
      <point x="397" y="72" type="curve"/>
      <point x="405" y="72" type="line"/>
      <point x="424" y="0" type="line"/>
      <point x="560" y="0" type="line"/>
      <point x="560" y="760" type="line"/>
      <point x="394" y="760" type="line"/>
      <point x="394" y="602" type="line" smooth="yes"/>
      <point x="394" y="562"/>
      <point x="399" y="527"/>
      <point x="405" y="484" type="curve"/>
      <point x="397" y="484" type="line"/>
      <point x="363" y="543"/>
      <point x="309" y="564"/>
      <point x="245" y="564" type="curve" smooth="yes"/>
      <point x="98" y="564"/>
      <point x="23" y="443"/>
      <point x="23" y="275" type="curve" smooth="yes"/>
      <point x="23" y="119"/>
      <point x="93" y="-10"/>
    </contour>
    <contour>
      <point x="296" y="134" type="curve" smooth="yes"/>
      <point x="227" y="134"/>
      <point x="193" y="178"/>
      <point x="193" y="276" type="curve" smooth="yes"/>
      <point x="193" y="367"/>
      <point x="227" y="419"/>
      <point x="301" y="419" type="curve" smooth="yes"/>
      <point x="374" y="419"/>
      <point x="400" y="377"/>
      <point x="400" y="275" type="curve" smooth="yes"/>
      <point x="400" y="260" type="line" smooth="yes"/>
      <point x="400" y="173"/>
      <point x="364" y="134"/>
    </contour>
  </outline>
</glyph>
<glyph name="e" format="2">
  <advance width="620"/>
  <unicode hex="0065"/>
  <anchor x="312" y="0" name="bottom"/>
  <anchor x="311" y="10" name="ogonek"/>
  <anchor x="310" y="554" name="top"/>
  <anchor x="600" y="554" name="topright"/>
  <outline>
    <contour>
      <point x="337" y="-10" type="curve" smooth="yes"/>
      <point x="416" y="-10"/>
      <point x="486" y="4"/>
      <point x="542" y="28" type="curve"/>
      <point x="542" y="171" type="line"/>
      <point x="492" y="144"/>
      <point x="431" y="129"/>
      <point x="358" y="129" type="curve" smooth="yes"/>
      <point x="272" y="129"/>
      <point x="202" y="157"/>
      <point x="199" y="219" type="curve"/>
      <point x="571" y="219" type="line"/>
      <point x="571" y="302" type="line" smooth="yes"/>
      <point x="571" y="477"/>
      <point x="472" y="564"/>
      <point x="313" y="564" type="curve" smooth="yes"/>
      <point x="130" y="564"/>
      <point x="30" y="449"/>
      <point x="30" y="276" type="curve" smooth="yes"/>
      <point x="30" y="92"/>
      <point x="137" y="-10"/>
    </contour>
    <contour>
      <point x="199" y="333" type="line"/>
      <point x="205" y="394"/>
      <point x="243" y="429"/>
      <point x="310" y="429" type="curve" smooth="yes"/>
      <point x="373" y="429"/>
      <point x="408" y="399"/>
      <point x="411" y="333" type="curve"/>
    </contour>
  </outline>
</glyph>
<glyph name="f" format="2">
  <advance width="620"/>
  <unicode hex="0066"/>
  <anchor x="301" y="0" name="bottom"/>
  <anchor x="391" y="765" name="top"/>
  <anchor x="589" y="766" name="topright"/>
  <outline>
    <contour>
      <point x="193" y="0" type="line"/>
      <point x="363" y="0" type="line"/>
      <point x="363" y="413" type="line"/>
      <point x="545" y="413" type="line"/>
      <point x="545" y="554" type="line"/>
      <point x="363" y="554" type="line"/>
      <point x="363" y="563" type="line" smooth="yes"/>
      <point x="363" y="603"/>
      <point x="393" y="621"/>
      <point x="452" y="621" type="curve" smooth="yes"/>
      <point x="480" y="621"/>
      <point x="512" y="618"/>
      <point x="546" y="605" type="curve"/>
      <point x="590" y="738" type="line"/>
      <point x="534" y="759"/>
      <point x="479" y="766"/>
      <point x="426" y="766" type="curve" smooth="yes"/>
      <point x="269" y="766"/>
      <point x="193" y="698"/>
      <point x="193" y="580" type="curve" smooth="yes"/>
      <point x="193" y="553" type="line"/>
      <point x="36" y="504" type="line"/>
      <point x="36" y="413" type="line"/>
      <point x="193" y="413" type="line"/>
    </contour>
  </outline>
</glyph>
<glyph name="g" format="2">
  <advance width="620"/>
  <unicode hex="0067"/>
  <anchor x="301" y="-245" name="bottom"/>
  <anchor x="301" y="554" name="top"/>
  <anchor x="601" y="554" name="topright"/>
  <outline>
    <contour>
      <point x="257" y="-245" type="curve" smooth="yes"/>
      <point x="469" y="-245"/>
      <point x="560" y="-151"/>
      <point x="560" y="24" type="curve" smooth="yes"/>
      <point x="560" y="554" type="line"/>
      <point x="424" y="554" type="line"/>
      <point x="401" y="484" type="line"/>
      <point x="393" y="484" type="line"/>
      <point x="352" y="542"/>
      <point x="307" y="564"/>
      <point x="243" y="564" type="curve" smooth="yes"/>
      <point x="107" y="564"/>
      <point x="23" y="458"/>
      <point x="23" y="275" type="curve" smooth="yes"/>
      <point x="23" y="97"/>
      <point x="103" y="-10"/>
      <point x="244" y="-10" type="curve" smooth="yes"/>
      <point x="305" y="-10"/>
      <point x="352" y="8"/>
      <point x="391" y="66" type="curve"/>
      <point x="397" y="66" type="line"/>
      <point x="395" y="46"/>
      <point x="395" y="29"/>
      <point x="395" y="5" type="curve" smooth="yes"/>
      <point x="395" y="-7" type="line" smooth="yes"/>
      <point x="395" y="-75"/>
      <point x="345" y="-102"/>
      <point x="248" y="-102" type="curve" smooth="yes"/>
      <point x="192" y="-102"/>
      <point x="127" y="-92"/>
      <point x="56" y="-61" type="curve"/>
      <point x="56" y="-208" type="line"/>
      <point x="121" y="-234"/>
      <point x="181" y="-245"/>
    </contour>
    <contour>
      <point x="302" y="134" type="curve" smooth="yes"/>
      <point x="227" y="134"/>
      <point x="199" y="184"/>
      <point x="199" y="271" type="curve" smooth="yes"/>
      <point x="199" y="370"/>
      <point x="229" y="419"/>
      <point x="304" y="419" type="curve" smooth="yes"/>
      <point x="372" y="419"/>
      <point x="400" y="377"/>
      <point x="400" y="275" type="curve" smooth="yes"/>
      <point x="400" y="259" type="line" smooth="yes"/>
      <point x="400" y="169"/>
      <point x="366" y="134"/>
    </contour>
  </outline>
</glyph>
<glyph name="h" format="2">
  <advance width="620"/>
  <unicode hex="0068"/>
  <anchor x="301" y="0" name="bottom"/>
  <anchor x="301" y="277" name="center"/>
  <anchor x="127" y="760" name="top"/>
  <anchor x="589" y="760" name="topright"/>
  <outline>
    <contour>
      <point x="42" y="0" type="line"/>
      <point x="213" y="0" type="line"/>
      <point x="213" y="263" type="line" smooth="yes"/>
      <point x="213" y="370"/>
      <point x="241" y="416"/>
      <point x="312" y="416" type="curve" smooth="yes"/>
      <point x="381" y="416"/>
      <point x="395" y="373"/>
      <point x="395" y="303" type="curve" smooth="yes"/>
      <point x="395" y="0" type="line"/>
      <point x="566" y="0" type="line"/>
      <point x="566" y="360" type="line" smooth="yes"/>
      <point x="566" y="487"/>
      <point x="495" y="564"/>
      <point x="372" y="564" type="curve" smooth="yes"/>
      <point x="295" y="564"/>
      <point x="242" y="535"/>
      <point x="210" y="486" type="curve"/>
      <point x="200" y="486" type="line"/>
      <point x="208" y="536"/>
      <point x="213" y="586"/>
      <point x="213" y="637" type="curve" smooth="yes"/>
      <point x="213" y="760" type="line"/>
      <point x="42" y="760" type="line"/>
    </contour>
  </outline>
</glyph>
<glyph name="i" format="2">
  <advance width="620"/>
  <unicode hex="0069"/>
  <anchor x="317" y="0" name="bottom"/>
  <anchor x="313" y="776" name="top"/>
  <anchor x="521" y="776" name="topright"/>
  <outline>
    <contour>
      <point x="41" y="0" type="line"/>
      <point x="565" y="0" type="line"/>
      <point x="565" y="122" type="line"/>
      <point x="399" y="139" type="line"/>
      <point x="399" y="554" type="line"/>
      <point x="76" y="554" type="line"/>
      <point x="76" y="426" type="line"/>
      <point x="231" y="413" type="line"/>
      <point x="231" y="139" type="line"/>
      <point x="41" y="122" type="line"/>
    </contour>
    <contour>
      <point x="313" y="603" type="curve" smooth="yes"/>
      <point x="381" y="603"/>
      <point x="413" y="636"/>
      <point x="413" y="691" type="curve" smooth="yes"/>
      <point x="413" y="745"/>
      <point x="380" y="776"/>
      <point x="313" y="776" type="curve" smooth="yes"/>
      <point x="247" y="776"/>
      <point x="212" y="745"/>
      <point x="212" y="691" type="curve" smooth="yes"/>
      <point x="212" y="633"/>
      <point x="249" y="603"/>
    </contour>
  </outline>
</glyph>
<glyph name="j" format="2">
  <advance width="620"/>
  <unicode hex="006A"/>
  <anchor x="214" y="-245" name="bottom"/>
  <anchor x="348" y="776" name="top"/>
  <anchor x="589" y="776" name="topright"/>
  <outline>
    <contour>
      <point x="203" y="-245" type="curve" smooth="yes"/>
      <point x="377" y="-245"/>
      <point x="445" y="-174"/>
      <point x="445" y="-29" type="curve" smooth="yes"/>
      <point x="445" y="554" type="line"/>
      <point x="95" y="554" type="line"/>
      <point x="95" y="425" type="line"/>
      <point x="276" y="412" type="line"/>
      <point x="276" y="9" type="line" smooth="yes"/>
      <point x="276" y="-76"/>
      <point x="254" y="-100"/>
      <point x="175" y="-100" type="curve" smooth="yes"/>
      <point x="143" y="-100"/>
      <point x="77" y="-95"/>
      <point x="27" y="-81" type="curve"/>
      <point x="27" y="-221" type="line"/>
      <point x="81" y="-238"/>
      <point x="153" y="-245"/>
    </contour>
    <contour>
      <point x="351" y="603" type="curve" smooth="yes"/>
      <point x="418" y="603"/>
      <point x="453" y="636"/>
      <point x="453" y="690" type="curve" smooth="yes"/>
      <point x="453" y="745"/>
      <point x="418" y="776"/>
      <point x="351" y="776" type="curve" smooth="yes"/>
      <point x="284" y="776"/>
      <point x="249" y="746"/>
      <point x="249" y="690" type="curve" smooth="yes"/>
      <point x="249" y="633"/>
      <point x="285" y="603"/>
    </contour>
  </outline>
</glyph>
<glyph name="k" format="2">
  <advance width="620"/>
  <unicode hex="006B"/>
  <anchor x="313" y="0" name="bottom"/>
  <anchor x="337" y="760" name="top"/>
  <anchor x="589" y="760" name="topright"/>
  <outline>
    <contour>
      <point x="46" y="0" type="line"/>
      <point x="213" y="0" type="line"/>
      <point x="213" y="159" type="line"/>
      <point x="276" y="195" type="line"/>
      <point x="408" y="0" type="line"/>
      <point x="601" y="0" type="line"/>
      <point x="393" y="302" type="line"/>
      <point x="595" y="554" type="line"/>
      <point x="405" y="554" type="line"/>
      <point x="274" y="399" type="line" smooth="yes"/>
      <point x="247" y="368"/>
      <point x="227" y="339"/>
      <point x="205" y="308" type="curve"/>
      <point x="202" y="308" type="line"/>
      <point x="207" y="353"/>
      <point x="213" y="415"/>
      <point x="213" y="461" type="curve" smooth="yes"/>
      <point x="213" y="760" type="line"/>
      <point x="46" y="760" type="line"/>
    </contour>
  </outline>
</glyph>
<glyph name="l" format="2">
  <advance width="620"/>
  <unicode hex="006C"/>
  <anchor x="314" y="0" name="bottom"/>
  <anchor x="314" y="393" name="center"/>
  <anchor x="301" y="760" name="top"/>
  <anchor x="513" y="760" name="topright"/>
  <outline>
    <contour>
      <point x="41" y="0" type="line"/>
      <point x="565" y="0" type="line"/>
      <point x="565" y="121" type="line"/>
      <point x="395" y="139" type="line"/>
      <point x="395" y="760" type="line"/>
      <point x="69" y="760" type="line"/>
      <point x="69" y="635" type="line"/>
      <point x="227" y="624" type="line"/>
      <point x="227" y="139" type="line"/>
      <point x="41" y="121" type="line"/>
    </contour>
  </outline>
</glyph>
<glyph name="m" format="2">
  <advance width="620"/>
  <unicode hex="006D"/>
  <anchor x="310" y="0" name="bottom"/>
  <anchor x="323" y="554" name="top"/>
  <anchor x="601" y="554" name="topright"/>
  <outline>
    <contour>
      <point x="15" y="0" type="line"/>
      <point x="156" y="0" type="line"/>
      <point x="156" y="381" type="line" smooth="yes"/>
      <point x="156" y="412"/>
      <point x="163" y="433"/>
      <point x="199" y="433" type="curve" smooth="yes"/>
      <point x="227" y="433"/>
      <point x="234" y="419"/>
      <point x="234" y="376" type="curve" smooth="yes"/>
      <point x="234" y="0" type="line"/>
      <point x="369" y="0" type="line"/>
      <point x="369" y="382" type="line" smooth="yes"/>
      <point x="369" y="412"/>
      <point x="379" y="433"/>
      <point x="412" y="433" type="curve" smooth="yes"/>
      <point x="441" y="433"/>
      <point x="447" y="419"/>
      <point x="447" y="378" type="curve" smooth="yes"/>
      <point x="447" y="0" type="line"/>
      <point x="587" y="0" type="line"/>
      <point x="587" y="357" type="line" smooth="yes"/>
      <point x="587" y="486"/>
      <point x="574" y="564"/>
      <point x="482" y="564" type="curve" smooth="yes"/>
      <point x="423" y="564"/>
      <point x="390" y="530"/>
      <point x="367" y="478" type="curve"/>
      <point x="363" y="478" type="line"/>
      <point x="350" y="530"/>
      <point x="326" y="564"/>
      <point x="266" y="564" type="curve" smooth="yes"/>
      <point x="213" y="564"/>
      <point x="181" y="543"/>
      <point x="159" y="490" type="curve"/>
      <point x="152" y="490" type="line"/>
      <point x="133" y="554" type="line"/>
      <point x="15" y="554" type="line"/>
    </contour>
  </outline>
</glyph>
<glyph name="n" format="2">
  <advance width="620"/>
  <unicode hex="006E"/>
  <anchor x="308" y="0" name="bottom"/>
  <anchor x="314" y="554" name="top"/>
  <anchor x="603" y="554" name="topright"/>
  <outline>
    <contour>
      <point x="42" y="0" type="line"/>
      <point x="213" y="0" type="line"/>
      <point x="213" y="275" type="line" smooth="yes"/>
      <point x="213" y="378"/>
      <point x="239" y="424"/>
      <point x="315" y="424" type="curve" smooth="yes"/>
      <point x="370" y="424"/>
      <point x="395" y="396"/>
      <point x="395" y="318" type="curve" smooth="yes"/>
      <point x="395" y="0" type="line"/>
      <point x="566" y="0" type="line"/>
      <point x="566" y="360" type="line" smooth="yes"/>
      <point x="566" y="495"/>
      <point x="496" y="564"/>
      <point x="372" y="564" type="curve" smooth="yes"/>
      <point x="290" y="564"/>
      <point x="238" y="536"/>
      <point x="206" y="491" type="curve"/>
      <point x="198" y="491" type="line"/>
      <point x="177" y="554" type="line"/>
      <point x="42" y="554" type="line"/>
    </contour>
  </outline>
</glyph>
<glyph name="o" format="2">
  <advance width="620"/>
  <unicode hex="006F"/>
  <anchor x="301" y="0" name="bottom"/>
  <anchor x="301" y="277" name="center"/>
  <anchor x="304" y="10" name="ogonek"/>
  <anchor x="301" y="554" name="top"/>
  <anchor x="601" y="554" name="topright"/>
  <outline>
    <contour>
      <point x="303" y="-10" type="curve" smooth="yes"/>
      <point x="502" y="-10"/>
      <point x="579" y="126"/>
      <point x="579" y="276" type="curve" smooth="yes"/>
      <point x="579" y="456"/>
      <point x="468" y="564"/>
      <point x="299" y="564" type="curve" smooth="yes"/>
      <point x="114" y="564"/>
      <point x="23" y="439"/>
      <point x="23" y="280" type="curve" smooth="yes"/>
      <point x="23" y="126"/>
      <point x="109" y="-10"/>
    </contour>
    <contour>
      <point x="301" y="134" type="curve" smooth="yes"/>
      <point x="227" y="134"/>
      <point x="195" y="186"/>
      <point x="195" y="278" type="curve" smooth="yes"/>
      <point x="195" y="368"/>
      <point x="226" y="419"/>
      <point x="301" y="419" type="curve" smooth="yes"/>
      <point x="375" y="419"/>
      <point x="407" y="369"/>
      <point x="407" y="278" type="curve" smooth="yes"/>
      <point x="407" y="186"/>
      <point x="376" y="134"/>
    </contour>
  </outline>
</glyph>
<glyph name="p" format="2">
  <advance width="620"/>
  <unicode hex="0070"/>
  <anchor x="327" y="-240" name="bottom"/>
  <anchor x="327" y="554" name="top"/>
  <anchor x="589" y="554" name="topright"/>
  <outline>
    <contour>
      <point x="42" y="-240" type="line"/>
      <point x="209" y="-240" type="line"/>
      <point x="209" y="-59" type="line" smooth="yes"/>
      <point x="209" y="-17"/>
      <point x="202" y="36"/>
      <point x="199" y="55" type="curve"/>
      <point x="209" y="55" type="line"/>
      <point x="246" y="9"/>
      <point x="295" y="-10"/>
      <point x="362" y="-10" type="curve" smooth="yes"/>
      <point x="489" y="-10"/>
      <point x="579" y="104"/>
      <point x="579" y="281" type="curve" smooth="yes"/>
      <point x="579" y="425"/>
      <point x="512" y="564"/>
      <point x="368" y="564" type="curve" smooth="yes"/>
      <point x="290" y="564"/>
      <point x="239" y="539"/>
      <point x="206" y="481" type="curve"/>
      <point x="197" y="481" type="line"/>
      <point x="169" y="554" type="line"/>
      <point x="42" y="554" type="line"/>
    </contour>
    <contour>
      <point x="311" y="134" type="curve" smooth="yes"/>
      <point x="242" y="134"/>
      <point x="209" y="169"/>
      <point x="209" y="278" type="curve" smooth="yes"/>
      <point x="209" y="293" type="line" smooth="yes"/>
      <point x="209" y="384"/>
      <point x="245" y="419"/>
      <point x="309" y="419" type="curve" smooth="yes"/>
      <point x="380" y="419"/>
      <point x="405" y="374"/>
      <point x="405" y="278" type="curve" smooth="yes"/>
      <point x="405" y="184"/>
      <point x="378" y="134"/>
    </contour>
  </outline>
</glyph>
<glyph name="r" format="2">
  <advance width="620"/>
  <unicode hex="0072"/>
  <anchor x="262" y="0" name="bottom"/>
  <anchor x="327" y="554" name="top"/>
  <anchor x="589" y="554" name="topright"/>
  <outline>
    <contour>
      <point x="27" y="0" type="line"/>
      <point x="495" y="0" type="line"/>
      <point x="495" y="122" type="line"/>
      <point x="333" y="139" type="line"/>
      <point x="333" y="266" type="line" smooth="yes"/>
      <point x="333" y="350"/>
      <point x="382" y="392"/>
      <point x="463" y="392" type="curve" smooth="yes"/>
      <point x="491" y="392"/>
      <point x="529" y="387"/>
      <point x="553" y="377" type="curve"/>
      <point x="596" y="546" type="line"/>
      <point x="552" y="562"/>
      <point x="512" y="564"/>
      <point x="484" y="564" type="curve" smooth="yes"/>
      <point x="399" y="564"/>
      <point x="347" y="520"/>
      <point x="321" y="464" type="curve"/>
      <point x="313" y="464" type="line"/>
      <point x="293" y="554" type="line"/>
      <point x="45" y="554" type="line"/>
      <point x="45" y="426" type="line"/>
      <point x="173" y="413" type="line"/>
      <point x="173" y="139" type="line"/>
      <point x="27" y="122" type="line"/>
    </contour>
  </outline>
</glyph>
<glyph name="s" format="2">
  <advance width="620"/>
  <unicode hex="0073"/>
  <anchor x="313" y="0" name="bottom"/>
  <anchor x="313" y="554" name="top"/>
  <anchor x="589" y="554" name="topright"/>
  <outline>
    <contour>
      <point x="271" y="-10" type="curve" smooth="yes"/>
      <point x="456" y="-10"/>
      <point x="540" y="58"/>
      <point x="540" y="172" type="curve" smooth="yes"/>
      <point x="540" y="256"/>
      <point x="489" y="290"/>
      <point x="373" y="335" type="curve" smooth="yes"/>
      <point x="285" y="368"/>
      <point x="247" y="375"/>
      <point x="247" y="398" type="curve" smooth="yes"/>
      <point x="247" y="415"/>
      <point x="273" y="427"/>
      <point x="331" y="427" type="curve" smooth="yes"/>
      <point x="376" y="427"/>
      <point x="427" y="416"/>
      <point x="487" y="390" type="curve"/>
      <point x="540" y="521" type="line"/>
      <point x="464" y="552"/>
      <point x="396" y="564"/>
      <point x="323" y="564" type="curve" smooth="yes"/>
      <point x="163" y="564"/>
      <point x="75" y="506"/>
      <point x="75" y="398" type="curve" smooth="yes"/>
      <point x="75" y="323"/>
      <point x="133" y="271"/>
      <point x="235" y="234" type="curve" smooth="yes"/>
      <point x="334" y="197"/>
      <point x="370" y="188"/>
      <point x="370" y="161" type="curve" smooth="yes"/>
      <point x="370" y="140"/>
      <point x="345" y="130"/>
      <point x="278" y="130" type="curve" smooth="yes"/>
      <point x="210" y="130"/>
      <point x="131" y="145"/>
      <point x="71" y="174" type="curve"/>
      <point x="71" y="22" type="line"/>
      <point x="130" y="0"/>
      <point x="196" y="-10"/>
    </contour>
  </outline>
</glyph>
<glyph name="t" format="2">
  <advance width="620"/>
  <unicode hex="0074"/>
  <anchor x="368" y="0" name="bottom"/>
  <anchor x="246" y="284" name="center"/>
  <anchor x="277" y="680" name="top"/>
  <anchor x="589" y="680" name="topright"/>
  <outline>
    <contour>
      <point x="388" y="-10" type="curve" smooth="yes"/>
      <point x="447" y="-10"/>
      <point x="512" y="0"/>
      <point x="565" y="19" type="curve"/>
      <point x="565" y="160" type="line"/>
      <point x="515" y="143"/>
      <point x="472" y="138"/>
      <point x="436" y="138" type="curve" smooth="yes"/>
      <point x="385" y="138"/>
      <point x="333" y="144"/>
      <point x="333" y="226" type="curve" smooth="yes"/>
      <point x="333" y="412" type="line"/>
      <point x="559" y="412" type="line"/>
      <point x="559" y="554" type="line"/>
      <point x="334" y="554" type="line"/>
      <point x="334" y="680" type="line"/>
      <point x="217" y="680" type="line"/>
      <point x="175" y="553" type="line"/>
      <point x="15" y="492" type="line"/>
      <point x="15" y="412" type="line"/>
      <point x="163" y="412" type="line"/>
      <point x="163" y="198" type="line" smooth="yes"/>
      <point x="163" y="59"/>
      <point x="246" y="-10"/>
    </contour>
  </outline>
</glyph>
<glyph name="v" format="2">
  <advance width="620"/>
  <unicode hex="0076"/>
  <anchor x="301" y="0" name="bottom"/>
  <anchor x="301" y="554" name="top"/>
  <anchor x="589" y="554" name="topright"/>
  <outline>
    <contour>
      <point x="197" y="0" type="line"/>
      <point x="396" y="0" type="line"/>
      <point x="597" y="554" type="line"/>
      <point x="416" y="554" type="line"/>
      <point x="329" y="244" type="line" smooth="yes"/>
      <point x="317" y="202"/>
      <point x="310" y="184"/>
      <point x="303" y="150" type="curve"/>
      <point x="299" y="150" type="line"/>
      <point x="290" y="184"/>
      <point x="283" y="202"/>
      <point x="271" y="245" type="curve" smooth="yes"/>
      <point x="182" y="554" type="line"/>
      <point x="5" y="554" type="line"/>
    </contour>
  </outline>
</glyph>
<glyph name="w" format="2">
  <advance width="620"/>
  <unicode hex="0077"/>
  <anchor x="301" y="0" name="bottom"/>
  <anchor x="302" y="554" name="top"/>
  <anchor x="606" y="554" name="topright"/>
  <outline>
    <contour>
      <point x="67" y="0" type="line"/>
      <point x="243" y="0" type="line"/>
      <point x="273" y="151" type="line" smooth="yes"/>
      <point x="281" y="200"/>
      <point x="292" y="255"/>
      <point x="296" y="295" type="curve"/>
      <point x="302" y="295" type="line"/>
      <point x="307" y="254"/>
      <point x="314" y="200"/>
      <point x="323" y="151" type="curve" smooth="yes"/>
      <point x="351" y="0" type="line"/>
      <point x="533" y="0" type="line"/>
      <point x="607" y="554" type="line"/>
      <point x="459" y="554" type="line"/>
      <point x="444" y="295" type="line" smooth="yes"/>
      <point x="441" y="262"/>
      <point x="440" y="212"/>
      <point x="439" y="178" type="curve"/>
      <point x="433" y="178" type="line"/>
      <point x="428" y="209"/>
      <point x="421" y="232"/>
      <point x="414" y="269" type="curve" smooth="yes"/>
      <point x="369" y="486" type="line"/>
      <point x="233" y="486" type="line"/>
      <point x="184" y="269" type="line" smooth="yes"/>
      <point x="177" y="235"/>
      <point x="169" y="206"/>
      <point x="167" y="178" type="curve"/>
      <point x="161" y="178" type="line"/>
      <point x="160" y="209"/>
      <point x="158" y="265"/>
      <point x="157" y="297" type="curve" smooth="yes"/>
      <point x="143" y="554" type="line"/>
      <point x="-7" y="554" type="line"/>
    </contour>
  </outline>
</glyph>
<glyph name="x" format="2">
  <advance width="620"/>
  <unicode hex="0078"/>
  <anchor x="301" y="0" name="bottom"/>
  <anchor x="301" y="554" name="top"/>
  <anchor x="589" y="554" name="topright"/>
  <outline>
    <contour>
      <point x="5" y="0" type="line"/>
      <point x="196" y="0" type="line"/>
      <point x="298" y="157" type="line"/>
      <point x="402" y="0" type="line"/>
      <point x="597" y="0" type="line"/>
      <point x="410" y="282" type="line"/>
      <point x="589" y="554" type="line"/>
      <point x="396" y="554" type="line"/>
      <point x="301" y="408" type="line"/>
      <point x="205" y="554" type="line"/>
      <point x="11" y="554" type="line"/>
      <point x="191" y="282" type="line"/>
    </contour>
  </outline>
</glyph>
<glyph name="y" format="2">
  <advance width="620"/>
  <unicode hex="0079"/>
  <anchor x="301" y="-245" name="bottom"/>
  <anchor x="301" y="554" name="top"/>
  <anchor x="589" y="554" name="topright"/>
  <outline>
    <contour>
      <point x="112" y="-245" type="curve" smooth="yes"/>
      <point x="253" y="-245"/>
      <point x="330" y="-188"/>
      <point x="380" y="-45" type="curve" smooth="yes"/>
      <point x="597" y="554" type="line"/>
      <point x="415" y="554" type="line"/>
      <point x="338" y="293" type="line" smooth="yes"/>
      <point x="331" y="262"/>
      <point x="320" y="230"/>
      <point x="314" y="205" type="curve"/>
      <point x="310" y="205" type="line"/>
      <point x="302" y="233"/>
      <point x="293" y="258"/>
      <point x="282" y="293" type="curve" smooth="yes"/>
      <point x="189" y="554" type="line"/>
      <point x="5" y="554" type="line"/>
      <point x="237" y="3" type="line"/>
      <point x="227" y="-13" type="line" smooth="yes"/>
      <point x="194" y="-92"/>
      <point x="140" y="-108"/>
      <point x="85" y="-108" type="curve" smooth="yes"/>
      <point x="67" y="-108"/>
      <point x="47" y="-106"/>
      <point x="30" y="-102" type="curve"/>
      <point x="30" y="-237" type="line"/>
      <point x="56" y="-242"/>
      <point x="83" y="-245"/>
    </contour>
  </outline>
</glyph>
<glyph name="z" format="2">
  <advance width="620"/>
  <unicode hex="007A"/>
  <anchor x="303" y="0" name="bottom"/>
  <anchor x="303" y="554" name="top"/>
  <anchor x="589" y="554" name="topright"/>
  <outline>
    <contour>
      <point x="54" y="0" type="line"/>
      <point x="549" y="0" type="line"/>
      <point x="549" y="141" type="line"/>
      <point x="266" y="141" type="line"/>
      <point x="536" y="439" type="line"/>
      <point x="536" y="554" type="line"/>
      <point x="66" y="554" type="line"/>
      <point x="66" y="414" type="line"/>
      <point x="336" y="414" type="line"/>
      <point x="54" y="104" type="line"/>
    </contour>
  </outline>
</glyph>
<glyph name="braceleft" format="2">
  <advance width="620"/>
  <unicode hex="007B"/>
  <outline>
    <contour>
      <point x="489" y="-167" type="curve" smooth="yes"/>
      <point x="489" y="-42" type="line" smooth="yes"/>
      <point x="460" y="-40"/>
      <point x="387" y="-28"/>
      <point x="387" y="14" type="curve"/>
      <point x="387" y="154" type="line"/>
      <point x="387" y="226"/>
      <point x="310" y="263"/>
      <point x="276" y="275" type="curve" smooth="yes"/>
      <point x="276" y="281" type="line" smooth="yes"/>
      <point x="310" y="292"/>
      <point x="387" y="328"/>
      <point x="387" y="405" type="curve"/>
      <point x="387" y="543" type="line"/>
      <point x="387" y="592"/>
      <point x="462" y="596"/>
      <point x="489" y="598" type="curve" smooth="yes"/>
      <point x="489" y="723" type="line" smooth="yes"/>
      <point x="409" y="723"/>
      <point x="234" y="678"/>
      <point x="234" y="558" type="curve"/>
      <point x="234" y="426" type="line"/>
      <point x="234" y="370"/>
      <point x="146" y="341"/>
      <point x="112" y="341" type="curve" smooth="yes"/>
      <point x="112" y="214" type="line" smooth="yes"/>
      <point x="146" y="214"/>
      <point x="234" y="184"/>
      <point x="234" y="129" type="curve"/>
      <point x="234" y="-1" type="line"/>
      <point x="234" y="-132"/>
      <point x="411" y="-167"/>
    </contour>
  </outline>
</glyph>
<glyph name="asciitilde" format="2">
  <advance width="620"/>
  <unicode hex="007E"/>
  <outline>
    <contour>
      <point x="49" y="258" type="line"/>
      <point x="88" y="297"/>
      <point x="130" y="317"/>
      <point x="169" y="317" type="curve" smooth="yes"/>
      <point x="202" y="317"/>
      <point x="238" y="310"/>
      <point x="282" y="291" type="curve" smooth="yes"/>
      <point x="334" y="269"/>
      <point x="375" y="260"/>
      <point x="420" y="260" type="curve" smooth="yes"/>
      <point x="473" y="260"/>
      <point x="518" y="277"/>
      <point x="553" y="312" type="curve"/>
      <point x="553" y="447" type="line"/>
      <point x="516" y="410"/>
      <point x="470" y="388"/>
      <point x="433" y="388" type="curve" smooth="yes"/>
      <point x="400" y="388"/>
      <point x="365" y="396"/>
      <point x="319" y="414" type="curve" smooth="yes"/>
      <point x="268" y="434"/>
      <point x="228" y="445"/>
      <point x="181" y="445" type="curve" smooth="yes"/>
      <point x="128" y="445"/>
      <point x="84" y="427"/>
      <point x="49" y="392" type="curve"/>
    </contour>
  </outline>
</glyph>
<glyph name="cent" format="2">
  <advance width="620"/>
  <unicode hex="00A2"/>
  <outline>
    <contour>
      <point x="301" y="-10" type="line"/>
      <point x="395" y="-10" type="line"/>
      <point x="395" y="81" type="line"/>
      <point x="444" y="87"/>
      <point x="496" y="103"/>
      <point x="530" y="125" type="curve"/>
      <point x="530" y="262" type="line"/>
      <point x="485" y="231"/>
      <point x="425" y="215"/>
      <point x="372" y="215" type="curve" smooth="yes"/>
      <point x="276" y="215"/>
      <point x="229" y="254"/>
      <point x="229" y="362" type="curve" smooth="yes"/>
      <point x="229" y="472"/>
      <point x="282" y="513"/>
      <point x="375" y="513" type="curve" smooth="yes"/>
      <point x="414" y="513"/>
      <point x="463" y="503"/>
      <point x="500" y="481" type="curve"/>
      <point x="544" y="609" type="line"/>
      <point x="506" y="631"/>
      <point x="446" y="644"/>
      <point x="395" y="648" type="curve"/>
      <point x="395" y="724" type="line"/>
      <point x="301" y="724" type="line"/>
      <point x="301" y="644" type="line"/>
      <point x="151" y="628"/>
      <point x="69" y="519"/>
      <point x="69" y="362" type="curve" smooth="yes"/>
      <point x="68" y="200"/>
      <point x="146" y="95"/>
      <point x="301" y="82" type="curve"/>
    </contour>
  </outline>
</glyph>
<glyph name="sterling" format="2">
  <advance width="620"/>
  <unicode hex="00A3"/>
  <outline>
    <contour>
      <point x="66" y="0" type="line"/>
      <point x="555" y="0" type="line"/>
      <point x="555" y="144" type="line"/>
      <point x="236" y="144" type="line"/>
      <point x="284" y="169"/>
      <point x="314" y="203"/>
      <point x="314" y="257" type="curve" smooth="yes"/>
      <point x="314" y="308" type="line"/>
      <point x="477" y="308" type="line"/>
      <point x="477" y="430" type="line"/>
      <point x="314" y="430" type="line"/>
      <point x="314" y="501" type="line" smooth="yes"/>
      <point x="314" y="560"/>
      <point x="352" y="580"/>
      <point x="402" y="580" type="curve" smooth="yes"/>
      <point x="437" y="580"/>
      <point x="471" y="571"/>
      <point x="514" y="552" type="curve"/>
      <point x="559" y="684" type="line"/>
      <point x="506" y="711"/>
      <point x="449" y="724"/>
      <point x="384" y="724" type="curve" smooth="yes"/>
      <point x="238" y="724"/>
      <point x="149" y="653"/>
      <point x="149" y="512" type="curve" smooth="yes"/>
      <point x="149" y="430" type="line"/>
      <point x="67" y="430" type="line"/>
      <point x="67" y="308" type="line"/>
      <point x="149" y="308" type="line"/>
      <point x="149" y="256" type="line" smooth="yes"/>
      <point x="149" y="192"/>
      <point x="121" y="169"/>
      <point x="66" y="138" type="curve"/>
    </contour>
  </outline>
</glyph>
<glyph name="currency" format="2">
  <advance width="620"/>
  <unicode hex="00A4"/>
  <outline>
    <contour>
      <point x="492" y="125" type="line"/>
      <point x="569" y="200" type="line"/>
      <point x="497" y="263" type="line"/>
      <point x="518" y="293"/>
      <point x="530" y="326"/>
      <point x="530" y="363" type="curve" smooth="yes"/>
      <point x="530" y="400"/>
      <point x="518" y="434"/>
      <point x="497" y="463" type="curve"/>
      <point x="572" y="528" type="line"/>
      <point x="492" y="602" type="line"/>
      <point x="418" y="536" type="line"/>
      <point x="381" y="555"/>
      <point x="343" y="564"/>
      <point x="301" y="564" type="curve" smooth="yes"/>
      <point x="258" y="564"/>
      <point x="218" y="556"/>
      <point x="182" y="538" type="curve"/>
      <point x="109" y="602" type="line"/>
      <point x="30" y="526" type="line"/>
      <point x="106" y="462" type="line"/>
      <point x="84" y="430"/>
      <point x="72" y="398"/>
      <point x="72" y="363" type="curve" smooth="yes"/>
      <point x="72" y="326"/>
      <point x="83" y="294"/>
      <point x="106" y="264" type="curve"/>
      <point x="31" y="201" type="line"/>
      <point x="109" y="126" type="line"/>
      <point x="181" y="188" type="line"/>
      <point x="215" y="172"/>
      <point x="255" y="164"/>
      <point x="301" y="164" type="curve" smooth="yes"/>
      <point x="342" y="164"/>
      <point x="382" y="172"/>
      <point x="418" y="189" type="curve"/>
    </contour>
    <contour>
      <point x="301" y="270" type="curve" smooth="yes"/>
      <point x="230" y="270"/>
      <point x="182" y="311"/>
      <point x="182" y="364" type="curve" smooth="yes"/>
      <point x="182" y="418"/>
      <point x="231" y="457"/>
      <point x="301" y="457" type="curve" smooth="yes"/>
      <point x="371" y="457"/>
      <point x="421" y="418"/>
      <point x="421" y="367" type="curve" smooth="yes"/>
      <point x="421" y="311"/>
      <point x="372" y="270"/>
    </contour>
  </outline>
</glyph>
<glyph name="yen" format="2">
  <advance width="620"/>
  <unicode hex="00A5"/>
  <outline>
    <contour>
      <point x="219" y="0" type="line"/>
      <point x="383" y="0" type="line"/>
      <point x="383" y="103" type="line"/>
      <point x="531" y="103" type="line"/>
      <point x="531" y="202" type="line"/>
      <point x="383" y="202" type="line"/>
      <point x="383" y="265" type="line"/>
      <point x="531" y="265" type="line"/>
      <point x="531" y="365" type="line"/>
      <point x="410" y="365" type="line"/>
      <point x="590" y="714" type="line"/>
      <point x="414" y="714" type="line"/>
      <point x="301" y="465" type="line"/>
      <point x="187" y="714" type="line"/>
      <point x="12" y="714" type="line"/>
      <point x="189" y="365" type="line"/>
      <point x="71" y="365" type="line"/>
      <point x="71" y="265" type="line"/>
      <point x="219" y="265" type="line"/>
      <point x="219" y="202" type="line"/>
      <point x="71" y="202" type="line"/>
      <point x="71" y="103" type="line"/>
      <point x="219" y="103" type="line"/>
    </contour>
  </outline>
</glyph>
<glyph name="brokenbar" format="2">
  <advance width="620"/>
  <unicode hex="00A6"/>
  <outline>
    <contour>
      <point x="232" y="359" type="line"/>
      <point x="370" y="359" type="line"/>
      <point x="370" y="759" type="line"/>
      <point x="232" y="759" type="line"/>
    </contour>
    <contour>
      <point x="232" y="-228" type="line"/>
      <point x="370" y="-228" type="line"/>
      <point x="370" y="172" type="line"/>
      <point x="232" y="172" type="line"/>
    </contour>
  </outline>
</glyph>
<glyph name="section" format="2">
  <advance width="620"/>
  <unicode hex="00A7"/>
  <outline>
    <contour>
      <point x="265" y="-9" type="curve" smooth="yes"/>
      <point x="415" y="-9"/>
      <point x="504" y="54"/>
      <point x="504" y="148" type="curve" smooth="yes"/>
      <point x="504" y="194"/>
      <point x="481" y="234"/>
      <point x="434" y="263" type="curve"/>
      <point x="488" y="297"/>
      <point x="520" y="334"/>
      <point x="520" y="390" type="curve" smooth="yes"/>
      <point x="520" y="467"/>
      <point x="461" y="505"/>
      <point x="346" y="551" type="curve" smooth="yes"/>
      <point x="283" y="573"/>
      <point x="246" y="591"/>
      <point x="246" y="622" type="curve" smooth="yes"/>
      <point x="246" y="647"/>
      <point x="273" y="661"/>
      <point x="325" y="661" type="curve" smooth="yes"/>
      <point x="376" y="661"/>
      <point x="424" y="645"/>
      <point x="471" y="619" type="curve"/>
      <point x="515" y="725" type="line"/>
      <point x="457" y="752"/>
      <point x="397" y="766"/>
      <point x="326" y="766" type="curve" smooth="yes"/>
      <point x="192" y="766"/>
      <point x="104" y="711"/>
      <point x="104" y="623" type="curve" smooth="yes"/>
      <point x="104" y="578"/>
      <point x="131" y="535"/>
      <point x="182" y="503" type="curve"/>
      <point x="121" y="472"/>
      <point x="87" y="433"/>
      <point x="87" y="382" type="curve" smooth="yes"/>
      <point x="87" y="298"/>
      <point x="154" y="261"/>
      <point x="262" y="215" type="curve" smooth="yes"/>
      <point x="340" y="183"/>
      <point x="364" y="174"/>
      <point x="364" y="145" type="curve" smooth="yes"/>
      <point x="364" y="112"/>
      <point x="329" y="96"/>
      <point x="267" y="96" type="curve" smooth="yes"/>
      <point x="208" y="96"/>
      <point x="135" y="119"/>
      <point x="83" y="149" type="curve"/>
      <point x="83" y="32" type="line"/>
      <point x="132" y="4"/>
      <point x="192" y="-9"/>
    </contour>
    <contour>
      <point x="348" y="312" type="curve"/>
      <point x="317" y="326" type="line" smooth="yes"/>
      <point x="246" y="355"/>
      <point x="217" y="374"/>
      <point x="217" y="405" type="curve" smooth="yes"/>
      <point x="217" y="429"/>
      <point x="237" y="446"/>
      <point x="268" y="456" type="curve"/>
      <point x="360" y="427"/>
      <point x="389" y="402"/>
      <point x="389" y="366" type="curve" smooth="yes"/>
      <point x="389" y="342"/>
      <point x="372" y="326"/>
    </contour>
  </outline>
</glyph>
<glyph name="dieresis" format="2">
  <advance width="620"/>
  <unicode hex="00A8"/>
  <anchor x="301" y="554" name="_top"/>
  <anchor x="301" y="664" name="top"/>
  <outline>
    <contour>
      <point x="420" y="612" type="curve" smooth="yes"/>
      <point x="467" y="612"/>
      <point x="499" y="639"/>
      <point x="499" y="687" type="curve" smooth="yes"/>
      <point x="499" y="735"/>
      <point x="467" y="764"/>
      <point x="420" y="764" type="curve" smooth="yes"/>
      <point x="374" y="764"/>
      <point x="343" y="737"/>
      <point x="343" y="687" type="curve" smooth="yes"/>
      <point x="343" y="639"/>
      <point x="374" y="612"/>
    </contour>
    <contour>
      <point x="181" y="612" type="curve" smooth="yes"/>
      <point x="227" y="612"/>
      <point x="260" y="639"/>
      <point x="260" y="687" type="curve" smooth="yes"/>
      <point x="260" y="735"/>
      <point x="227" y="764"/>
      <point x="181" y="764" type="curve" smooth="yes"/>
      <point x="136" y="764"/>
      <point x="104" y="737"/>
      <point x="104" y="687" type="curve" smooth="yes"/>
      <point x="104" y="638"/>
      <point x="136" y="612"/>
    </contour>
  </outline>
</glyph>
<glyph name="copyright" format="2">
  <advance width="620"/>
  <unicode hex="00A9"/>
  <outline>
    <contour>
      <point x="301" y="107" type="curve" smooth="yes"/>
      <point x="459" y="107"/>
      <point x="587" y="203"/>
      <point x="587" y="360" type="curve" smooth="yes"/>
      <point x="587" y="512"/>
      <point x="463" y="612"/>
      <point x="301" y="612" type="curve" smooth="yes"/>
      <point x="144" y="612"/>
      <point x="14" y="517"/>
      <point x="14" y="360" type="curve" smooth="yes"/>
      <point x="14" y="216"/>
      <point x="129" y="107"/>
    </contour>
    <contour>
      <point x="304" y="206" type="curve" smooth="yes"/>
      <point x="339" y="206"/>
      <point x="369" y="212"/>
      <point x="399" y="227" type="curve"/>
      <point x="399" y="303" type="line"/>
      <point x="369" y="289"/>
      <point x="339" y="281"/>
      <point x="308" y="281" type="curve" smooth="yes"/>
      <point x="257" y="281"/>
      <point x="229" y="305"/>
      <point x="229" y="360" type="curve" smooth="yes"/>
      <point x="229" y="410"/>
      <point x="261" y="438"/>
      <point x="307" y="438" type="curve" smooth="yes"/>
      <point x="332" y="438"/>
      <point x="358" y="432"/>
      <point x="384" y="422" type="curve"/>
      <point x="414" y="488" type="line"/>
      <point x="378" y="505"/>
      <point x="341" y="512"/>
      <point x="301" y="512" type="curve" smooth="yes"/>
      <point x="200" y="512"/>
      <point x="142" y="456"/>
      <point x="142" y="361" type="curve" smooth="yes"/>
      <point x="142" y="261"/>
      <point x="200" y="206"/>
    </contour>
    <contour>
      <point x="301" y="173" type="curve" smooth="yes"/>
      <point x="183" y="173"/>
      <point x="90" y="238"/>
      <point x="90" y="360" type="curve" smooth="yes"/>
      <point x="90" y="472"/>
      <point x="178" y="546"/>
      <point x="301" y="546" type="curve" smooth="yes"/>
      <point x="418" y="546"/>
      <point x="510" y="478"/>
      <point x="510" y="360" type="curve" smooth="yes"/>
      <point x="510" y="248"/>
      <point x="422" y="173"/>
    </contour>
  </outline>
</glyph>
<glyph name="ordfeminine" format="2">
  <advance width="620"/>
  <unicode hex="00AA"/>
  <outline>
    <contour>
      <point x="251" y="360" type="curve" smooth="yes"/>
      <point x="310" y="360"/>
      <point x="346" y="386"/>
      <point x="371" y="424" type="curve"/>
      <point x="391" y="366" type="line"/>
      <point x="469" y="366" type="line"/>
      <point x="469" y="585" type="line" smooth="yes"/>
      <point x="469" y="673"/>
      <point x="415" y="723"/>
      <point x="310" y="723" type="curve" smooth="yes"/>
      <point x="255" y="723"/>
      <point x="202" y="709"/>
      <point x="155" y="685" type="curve"/>
      <point x="188" y="609" type="line"/>
      <point x="226" y="627"/>
      <point x="261" y="637"/>
      <point x="296" y="637" type="curve" smooth="yes"/>
      <point x="338" y="637"/>
      <point x="363" y="621"/>
      <point x="358" y="595" type="curve" smooth="yes"/>
      <point x="358" y="589" type="line"/>
      <point x="306" y="587" type="line" smooth="yes"/>
      <point x="208" y="584"/>
      <point x="134" y="562"/>
      <point x="134" y="470" type="curve" smooth="yes"/>
      <point x="134" y="401"/>
      <point x="178" y="360"/>
    </contour>
    <contour>
      <point x="289" y="443" type="curve" smooth="yes"/>
      <point x="261" y="443"/>
      <point x="245" y="456"/>
      <point x="245" y="479" type="curve" smooth="yes"/>
      <point x="245" y="503"/>
      <point x="262" y="519"/>
      <point x="312" y="523" type="curve" smooth="yes"/>
      <point x="358" y="526" type="line"/>
      <point x="358" y="513" type="line" smooth="yes"/>
      <point x="358" y="474"/>
      <point x="332" y="443"/>
    </contour>
  </outline>
</glyph>
<glyph name="guillemotleft" format="2">
  <advance width="620"/>
  <unicode hex="00AB"/>
  <outline>
    <contour>
      <point x="466" y="34" type="line"/>
      <point x="581" y="96" type="line"/>
      <point x="454" y="270" type="line"/>
      <point x="581" y="445" type="line"/>
      <point x="466" y="506" type="line"/>
      <point x="281" y="277" type="line"/>
      <point x="281" y="263" type="line"/>
    </contour>
    <contour>
      <point x="205" y="34" type="line"/>
      <point x="321" y="96" type="line"/>
      <point x="193" y="270" type="line"/>
      <point x="321" y="446" type="line"/>
      <point x="205" y="506" type="line"/>
      <point x="21" y="277" type="line"/>
      <point x="21" y="263" type="line"/>
    </contour>
  </outline>
</glyph>
<glyph name="logicalnot" format="2">
  <advance width="620"/>
  <unicode hex="00AC"/>
  <outline>
    <contour>
      <point x="413" y="116" type="line"/>
      <point x="545" y="116" type="line"/>
      <point x="545" y="417" type="line"/>
      <point x="52" y="417" type="line"/>
      <point x="52" y="289" type="line"/>
      <point x="413" y="289" type="line"/>
    </contour>
  </outline>
</glyph>
<glyph name="registered" format="2">
  <advance width="620"/>
  <unicode hex="00AE"/>
  <outline>
    <contour>
      <point x="299" y="105" type="curve" smooth="yes"/>
      <point x="458" y="105"/>
      <point x="586" y="201"/>
      <point x="586" y="357" type="curve" smooth="yes"/>
      <point x="586" y="510"/>
      <point x="462" y="610"/>
      <point x="302" y="610" type="curve" smooth="yes"/>
      <point x="146" y="610"/>
      <point x="16" y="516"/>
      <point x="16" y="359" type="curve" smooth="yes"/>
      <point x="16" y="214"/>
      <point x="130" y="105"/>
    </contour>
    <contour>
      <point x="301" y="172" type="curve" smooth="yes"/>
      <point x="184" y="172"/>
      <point x="93" y="239"/>
      <point x="93" y="357" type="curve" smooth="yes"/>
      <point x="93" y="469"/>
      <point x="179" y="544"/>
      <point x="300" y="544" type="curve" smooth="yes"/>
      <point x="416" y="544"/>
      <point x="509" y="475"/>
      <point x="509" y="359" type="curve" smooth="yes"/>
      <point x="509" y="246"/>
      <point x="422" y="172"/>
    </contour>
    <contour>
      <point x="190" y="226" type="line"/>
      <point x="265" y="226" type="line"/>
      <point x="265" y="320" type="line"/>
      <point x="295" y="320" type="line"/>
      <point x="353" y="226" type="line"/>
      <point x="436" y="226" type="line"/>
      <point x="362" y="333" type="line"/>
      <point x="398" y="349"/>
      <point x="415" y="376"/>
      <point x="415" y="410" type="curve" smooth="yes"/>
      <point x="415" y="468"/>
      <point x="375" y="496"/>
      <point x="291" y="496" type="curve" smooth="yes"/>
      <point x="190" y="496" type="line"/>
    </contour>
    <contour>
      <point x="265" y="375" type="line"/>
      <point x="265" y="437" type="line"/>
      <point x="285" y="437" type="line" smooth="yes"/>
      <point x="323" y="437"/>
      <point x="339" y="430"/>
      <point x="339" y="408" type="curve" smooth="yes"/>
      <point x="339" y="384"/>
      <point x="318" y="375"/>
      <point x="285" y="375" type="curve" smooth="yes"/>
    </contour>
  </outline>
</glyph>
<glyph name="overscore" format="2">
  <advance width="620"/>
  <unicode hex="00AF"/>
  <outline>
    <contour>
      <point x="124" y="634" type="line"/>
      <point x="464" y="634" type="line"/>
      <point x="464" y="744" type="line"/>
      <point x="124" y="744" type="line"/>
    </contour>
  </outline>
</glyph>
<glyph name="degree" format="2">
  <advance width="620"/>
  <unicode hex="00B0"/>
  <outline>
    <contour>
      <point x="300" y="411" type="curve" smooth="yes"/>
      <point x="399" y="411"/>
      <point x="478" y="472"/>
      <point x="478" y="567" type="curve" smooth="yes"/>
      <point x="478" y="661"/>
      <point x="399" y="724"/>
      <point x="300" y="724" type="curve" smooth="yes"/>
      <point x="202" y="724"/>
      <point x="123" y="662"/>
      <point x="123" y="568" type="curve" smooth="yes"/>
      <point x="123" y="472"/>
      <point x="201" y="411"/>
    </contour>
    <contour>
      <point x="301" y="505" type="curve" smooth="yes"/>
      <point x="257" y="505"/>
      <point x="222" y="529"/>
      <point x="222" y="568" type="curve" smooth="yes"/>
      <point x="222" y="606"/>
      <point x="256" y="630"/>
      <point x="301" y="630" type="curve" smooth="yes"/>
      <point x="345" y="630"/>
      <point x="380" y="607"/>
      <point x="380" y="568" type="curve" smooth="yes"/>
      <point x="380" y="531"/>
      <point x="346" y="505"/>
    </contour>
  </outline>
</glyph>
<glyph name="plusminus" format="2">
  <advance width="620"/>
  <unicode hex="00B1"/>
  <outline>
    <contour>
      <point x="235" y="167" type="line"/>
      <point x="367" y="167" type="line"/>
      <point x="367" y="345" type="line"/>
      <point x="550" y="345" type="line"/>
      <point x="550" y="472" type="line"/>
      <point x="367" y="472" type="line"/>
      <point x="367" y="652" type="line"/>
      <point x="235" y="652" type="line"/>
      <point x="235" y="472" type="line"/>
      <point x="51" y="472" type="line"/>
      <point x="51" y="345" type="line"/>
      <point x="235" y="345" type="line"/>
    </contour>
    <contour>
      <point x="52" y="0" type="line"/>
      <point x="550" y="0" type="line"/>
      <point x="550" y="127" type="line"/>
      <point x="52" y="127" type="line"/>
    </contour>
  </outline>
</glyph>
<glyph name="twosuperior" format="2">
  <advance width="620"/>
  <unicode hex="00B2"/>
  <outline>
    <contour>
      <point x="141" y="415" type="line"/>
      <point x="478" y="415" type="line"/>
      <point x="478" y="515" type="line"/>
      <point x="278" y="515" type="line"/>
      <point x="305" y="530" type="line" smooth="yes"/>
      <point x="411" y="608"/>
      <point x="462" y="664"/>
      <point x="462" y="735" type="curve" smooth="yes"/>
      <point x="462" y="807"/>
      <point x="405" y="855"/>
      <point x="305" y="855" type="curve" smooth="yes"/>
      <point x="227" y="855"/>
      <point x="169" y="823"/>
      <point x="136" y="790" type="curve"/>
      <point x="193" y="715" type="line"/>
      <point x="226" y="745"/>
      <point x="253" y="757"/>
      <point x="286" y="757" type="curve" smooth="yes"/>
      <point x="322" y="757"/>
      <point x="341" y="744"/>
      <point x="341" y="722" type="curve" smooth="yes"/>
      <point x="341" y="696"/>
      <point x="319" y="670"/>
      <point x="252" y="612" type="curve" smooth="yes"/>
      <point x="141" y="515" type="line"/>
    </contour>
  </outline>
</glyph>
<glyph name="threesuperior" format="2">
  <advance width="620"/>
  <unicode hex="00B3"/>
  <outline>
    <contour>
      <point x="286" y="407" type="curve" smooth="yes"/>
      <point x="400" y="407"/>
      <point x="472" y="453"/>
      <point x="472" y="532" type="curve" smooth="yes"/>
      <point x="472" y="589"/>
      <point x="435" y="622"/>
      <point x="377" y="637" type="curve"/>
      <point x="377" y="641" type="line"/>
      <point x="430" y="662"/>
      <point x="458" y="698"/>
      <point x="458" y="746" type="curve" smooth="yes"/>
      <point x="458" y="813"/>
      <point x="396" y="853"/>
      <point x="302" y="853" type="curve" smooth="yes"/>
      <point x="237" y="853"/>
      <point x="183" y="833"/>
      <point x="136" y="796" type="curve"/>
      <point x="188" y="721" type="line"/>
      <point x="224" y="747"/>
      <point x="254" y="757"/>
      <point x="288" y="757" type="curve" smooth="yes"/>
      <point x="328" y="757"/>
      <point x="346" y="741"/>
      <point x="346" y="719" type="curve" smooth="yes"/>
      <point x="346" y="691"/>
      <point x="321" y="676"/>
      <point x="264" y="676" type="curve" smooth="yes"/>
      <point x="217" y="676" type="line"/>
      <point x="217" y="588" type="line"/>
      <point x="273" y="588" type="line" smooth="yes"/>
      <point x="330" y="588"/>
      <point x="356" y="573"/>
      <point x="356" y="547" type="curve" smooth="yes"/>
      <point x="356" y="522"/>
      <point x="335" y="508"/>
      <point x="279" y="508" type="curve" smooth="yes"/>
      <point x="230" y="508"/>
      <point x="182" y="521"/>
      <point x="141" y="549" type="curve"/>
      <point x="141" y="441" type="line"/>
      <point x="181" y="418"/>
      <point x="230" y="407"/>
    </contour>
  </outline>
</glyph>
<glyph name="acute" format="2">
  <advance width="620"/>
  <unicode hex="00B4"/>
  <outline>
    <contour>
      <point x="193" y="606" type="line"/>
      <point x="307" y="606" type="line"/>
      <point x="363" y="650"/>
      <point x="444" y="720"/>
      <point x="478" y="757" type="curve"/>
      <point x="478" y="766" type="line"/>
      <point x="294" y="766" type="line"/>
      <point x="268" y="721"/>
      <point x="230" y="670"/>
      <point x="193" y="619" type="curve"/>
    </contour>
  </outline>
</glyph>
<glyph name="paragraph" format="2">
  <advance width="620"/>
  <unicode hex="00B6"/>
  <outline>
    <contour>
      <point x="297" y="-127" type="line"/>
      <point x="385" y="-127" type="line"/>
      <point x="385" y="676" type="line"/>
      <point x="464" y="676" type="line"/>
      <point x="464" y="-127" type="line"/>
      <point x="553" y="-127" type="line"/>
      <point x="553" y="760" type="line"/>
      <point x="251" y="760" type="line" smooth="yes"/>
      <point x="108" y="760"/>
      <point x="34" y="678"/>
      <point x="34" y="509" type="curve" smooth="yes"/>
      <point x="34" y="342"/>
      <point x="103" y="264"/>
      <point x="236" y="264" type="curve" smooth="yes"/>
      <point x="259" y="264"/>
      <point x="279" y="267"/>
      <point x="297" y="273" type="curve"/>
    </contour>
  </outline>
</glyph>
<glyph name="cedilla" format="2">
  <advance width="620"/>
  <unicode hex="00B8"/>
  <outline>
    <contour>
      <point x="265" y="-240" type="curve" smooth="yes"/>
      <point x="367" y="-240"/>
      <point x="420" y="-196"/>
      <point x="420" y="-130" type="curve" smooth="yes"/>
      <point x="420" y="-75"/>
      <point x="384" y="-45"/>
      <point x="321" y="-34" type="curve"/>
      <point x="340" y="2" type="line"/>
      <point x="254" y="2" type="line"/>
      <point x="214" y="-79" type="line"/>
      <point x="267" y="-83"/>
      <point x="297" y="-96"/>
      <point x="297" y="-121" type="curve" smooth="yes"/>
      <point x="297" y="-139"/>
      <point x="278" y="-151"/>
      <point x="241" y="-151" type="curve" smooth="yes"/>
      <point x="224" y="-151"/>
      <point x="201" y="-148"/>
      <point x="181" y="-142" type="curve"/>
      <point x="181" y="-230" type="line"/>
      <point x="203" y="-236"/>
      <point x="237" y="-240"/>
    </contour>
  </outline>
</glyph>
<glyph name="onesuperior" format="2">
  <advance width="620"/>
  <unicode hex="00B9"/>
  <outline>
    <contour>
      <point x="272" y="415" type="line"/>
      <point x="385" y="415" type="line"/>
      <point x="385" y="843" type="line"/>
      <point x="290" y="843" type="line"/>
      <point x="122" y="751" type="line"/>
      <point x="178" y="667" type="line"/>
      <point x="228" y="694" type="line" smooth="yes"/>
      <point x="240" y="700"/>
      <point x="261" y="712"/>
      <point x="275" y="722" type="curve"/>
      <point x="272" y="684"/>
      <point x="272" y="631"/>
      <point x="272" y="599" type="curve" smooth="yes"/>
    </contour>
    <contour>
      <point x="157" y="415" type="line"/>
      <point x="493" y="415" type="line"/>
      <point x="493" y="500" type="line"/>
      <point x="359" y="510" type="line"/>
      <point x="302" y="510" type="line"/>
      <point x="157" y="499" type="line"/>
    </contour>
  </outline>
</glyph>
<glyph name="ordmasculine" format="2">
  <advance width="620"/>
  <unicode hex="00BA"/>
  <outline>
    <contour>
      <point x="301" y="359" type="curve" smooth="yes"/>
      <point x="411" y="359"/>
      <point x="479" y="428"/>
      <point x="479" y="541" type="curve" smooth="yes"/>
      <point x="479" y="656"/>
      <point x="407" y="722"/>
      <point x="303" y="722" type="curve" smooth="yes"/>
      <point x="192" y="722"/>
      <point x="123" y="655"/>
      <point x="123" y="541" type="curve" smooth="yes"/>
      <point x="123" y="430"/>
      <point x="192" y="359"/>
    </contour>
    <contour>
      <point x="302" y="450" type="curve" smooth="yes"/>
      <point x="257" y="450"/>
      <point x="236" y="479"/>
      <point x="236" y="541" type="curve" smooth="yes"/>
      <point x="236" y="603"/>
      <point x="257" y="632"/>
      <point x="302" y="632" type="curve" smooth="yes"/>
      <point x="346" y="632"/>
      <point x="365" y="602"/>
      <point x="365" y="541" type="curve" smooth="yes"/>
      <point x="365" y="479"/>
      <point x="346" y="450"/>
    </contour>
  </outline>
</glyph>
<glyph name="AE" format="2">
  <advance width="620"/>
  <unicode hex="00C6"/>
  <anchor x="301" y="0" name="bottom"/>
  <anchor x="332" y="714" name="top"/>
  <outline>
    <contour>
      <point x="-1" y="0" type="line"/>
      <point x="156" y="0" type="line"/>
      <point x="276" y="571" type="line"/>
      <point x="303" y="571" type="line"/>
      <point x="303" y="0" type="line"/>
      <point x="587" y="0" type="line"/>
      <point x="587" y="149" type="line"/>
      <point x="451" y="149" type="line"/>
      <point x="451" y="294" type="line"/>
      <point x="566" y="294" type="line"/>
      <point x="566" y="443" type="line"/>
      <point x="451" y="443" type="line"/>
      <point x="451" y="566" type="line"/>
      <point x="587" y="566" type="line"/>
      <point x="587" y="714" type="line"/>
      <point x="162" y="714" type="line"/>
    </contour>
    <contour>
      <point x="160" y="145" type="line"/>
      <point x="336" y="145" type="line"/>
      <point x="333" y="293" type="line"/>
      <point x="186" y="293" type="line"/>
    </contour>
  </outline>
</glyph>
<glyph name="Eth" format="2">
  <advance width="620"/>
  <unicode hex="00D0"/>
  <anchor x="301" y="0" name="bottom"/>
  <anchor x="301" y="714" name="top"/>
  <anchor x="611" y="714" name="topright"/>
  <anchor x="302" y="357" name="center"/>
  <outline>
    <contour>
      <point x="-10" y="293" type="line"/>
      <point x="301" y="293" type="line"/>
      <point x="301" y="422" type="line"/>
      <point x="-10" y="422" type="line"/>
    </contour>
    <component base="D" xOffset="-1"/>
  </outline>
</glyph>
<glyph name="multiply" format="2">
  <advance width="620"/>
  <unicode hex="00D7"/>
  <outline>
    <contour>
      <point x="144" y="139" type="line"/>
      <point x="298" y="264" type="line"/>
      <point x="453" y="140" type="line"/>
      <point x="543" y="228" type="line"/>
      <point x="390" y="353" type="line"/>
      <point x="545" y="480" type="line"/>
      <point x="453" y="566" type="line"/>
      <point x="298" y="444" type="line"/>
      <point x="145" y="566" type="line"/>
      <point x="56" y="476" type="line"/>
      <point x="208" y="353" type="line"/>
      <point x="57" y="230" type="line"/>
    </contour>
  </outline>
</glyph>
<glyph name="Oslash" format="2">
  <advance width="620"/>
  <unicode hex="00D8"/>
  <anchor x="301" y="0" name="bottom"/>
  <anchor x="301" y="714" name="top"/>
  <anchor x="3" y="714" name="topleft"/>
  <anchor x="301" y="10" name="ogonek"/>
  <anchor x="291" y="357" name="center"/>
  <anchor x="602" y="714" name="topright"/>
  <outline>
    <contour>
      <point x="108" y="-47" type="line"/>
      <point x="588" y="716" type="line"/>
      <point x="500" y="761" type="line"/>
      <point x="20" y="-1" type="line"/>
    </contour>
    <component base="O" xOffset="-10"/>
  </outline>
</glyph>
<glyph name="Thorn" format="2">
  <advance width="620"/>
  <unicode hex="00DE"/>
  <anchor x="301" y="0" name="bottom"/>
  <anchor x="301" y="714" name="top"/>
  <outline>
    <contour>
      <point x="56" y="0" type="line"/>
      <point x="223" y="0" type="line"/>
      <point x="223" y="120" type="line"/>
      <point x="300" y="120" type="line" smooth="yes"/>
      <point x="500" y="120"/>
      <point x="576" y="225"/>
      <point x="576" y="366" type="curve" smooth="yes"/>
      <point x="576" y="513"/>
      <point x="490" y="594"/>
      <point x="306" y="594" type="curve" smooth="yes"/>
      <point x="223" y="594" type="line"/>
      <point x="223" y="714" type="line"/>
      <point x="56" y="714" type="line"/>
    </contour>
    <contour>
      <point x="223" y="262" type="line"/>
      <point x="223" y="454" type="line"/>
      <point x="294" y="454" type="line" smooth="yes"/>
      <point x="372" y="454"/>
      <point x="411" y="423"/>
      <point x="411" y="360" type="curve" smooth="yes"/>
      <point x="411" y="296"/>
      <point x="371" y="262"/>
      <point x="283" y="262" type="curve" smooth="yes"/>
    </contour>
  </outline>
</glyph>
<glyph name="germandbls" format="2">
  <advance width="620"/>
  <unicode hex="00DF"/>
  <anchor x="301" y="0" name="bottom"/>
  <anchor x="301" y="765" name="top"/>
  <outline>
    <contour>
      <point x="387" y="-10" type="curve" smooth="yes"/>
      <point x="521" y="-10"/>
      <point x="596" y="52"/>
      <point x="596" y="168" type="curve" smooth="yes"/>
      <point x="596" y="255"/>
      <point x="552" y="295"/>
      <point x="503" y="327" type="curve" smooth="yes"/>
      <point x="454" y="362"/>
      <point x="436" y="378"/>
      <point x="436" y="396" type="curve" smooth="yes"/>
      <point x="436" y="440"/>
      <point x="534" y="470"/>
      <point x="534" y="580" type="curve" smooth="yes"/>
      <point x="534" y="702"/>
      <point x="435" y="765"/>
      <point x="295" y="765" type="curve" smooth="yes"/>
      <point x="138" y="765"/>
      <point x="37" y="678"/>
      <point x="37" y="538" type="curve" smooth="yes"/>
      <point x="37" y="0" type="line"/>
      <point x="197" y="0" type="line"/>
      <point x="197" y="513" type="line" smooth="yes"/>
      <point x="197" y="591"/>
      <point x="225" y="631"/>
      <point x="289" y="631" type="curve" smooth="yes"/>
      <point x="346" y="631"/>
      <point x="373" y="605"/>
      <point x="373" y="570" type="curve" smooth="yes"/>
      <point x="373" y="494"/>
      <point x="273" y="480"/>
      <point x="273" y="377" type="curve" smooth="yes"/>
      <point x="273" y="306"/>
      <point x="312" y="277"/>
      <point x="367" y="235" type="curve" smooth="yes"/>
      <point x="424" y="194"/>
      <point x="433" y="182"/>
      <point x="433" y="170" type="curve" smooth="yes"/>
      <point x="433" y="137"/>
      <point x="411" y="124"/>
      <point x="367" y="124" type="curve" smooth="yes"/>
      <point x="327" y="124"/>
      <point x="286" y="138"/>
      <point x="249" y="163" type="curve"/>
      <point x="249" y="18" type="line"/>
      <point x="292" y="-3"/>
      <point x="337" y="-10"/>
    </contour>
  </outline>
</glyph>
<glyph name="ae" format="2">
  <advance width="620"/>
  <unicode hex="00E6"/>
  <anchor x="301" y="0" name="bottom"/>
  <anchor x="301" y="554" name="top"/>
  <outline>
    <contour>
      <point x="155" y="-10" type="curve" smooth="yes"/>
      <point x="223" y="-10"/>
      <point x="262" y="15"/>
      <point x="301" y="67" type="curve"/>
      <point x="339" y="16"/>
      <point x="390" y="-10"/>
      <point x="458" y="-10" type="curve" smooth="yes"/>
      <point x="507" y="-10"/>
      <point x="548" y="3"/>
      <point x="580" y="29" type="curve"/>
      <point x="580" y="162" type="line"/>
      <point x="546" y="138"/>
      <point x="520" y="127"/>
      <point x="485" y="127" type="curve" smooth="yes"/>
      <point x="421" y="127"/>
      <point x="380" y="165"/>
      <point x="379" y="230" type="curve"/>
      <point x="603" y="230" type="line"/>
      <point x="603" y="290" type="line" smooth="yes"/>
      <point x="603" y="446"/>
      <point x="562" y="564"/>
      <point x="434" y="564" type="curve" smooth="yes"/>
      <point x="387" y="564"/>
      <point x="349" y="550"/>
      <point x="313" y="520" type="curve"/>
      <point x="282" y="549"/>
      <point x="237" y="564"/>
      <point x="181" y="564" type="curve" smooth="yes"/>
      <point x="129" y="564"/>
      <point x="73" y="551"/>
      <point x="24" y="523" type="curve"/>
      <point x="77" y="411" type="line"/>
      <point x="104" y="423"/>
      <point x="134" y="429"/>
      <point x="164" y="429" type="curve" smooth="yes"/>
      <point x="205" y="429"/>
      <point x="236" y="417"/>
      <point x="236" y="370" type="curve" smooth="yes"/>
      <point x="236" y="341" type="line"/>
      <point x="172" y="337" type="line" smooth="yes"/>
      <point x="63" y="331"/>
      <point x="-1" y="280"/>
      <point x="-1" y="164" type="curve" smooth="yes"/>
      <point x="-1" y="59"/>
      <point x="57" y="-10"/>
    </contour>
    <contour>
      <point x="183" y="125" type="curve" smooth="yes"/>
      <point x="156" y="125"/>
      <point x="140" y="145"/>
      <point x="140" y="176" type="curve" smooth="yes"/>
      <point x="140" y="215"/>
      <point x="164" y="241"/>
      <point x="207" y="240" type="curve" smooth="yes"/>
      <point x="236" y="240" type="line"/>
      <point x="236" y="204" type="line" smooth="yes"/>
      <point x="236" y="155"/>
      <point x="219" y="125"/>
    </contour>
    <contour>
      <point x="380" y="336" type="line"/>
      <point x="381" y="400"/>
      <point x="396" y="424"/>
      <point x="427" y="424" type="curve" smooth="yes"/>
      <point x="458" y="424"/>
      <point x="472" y="403"/>
      <point x="472" y="336" type="curve"/>
    </contour>
  </outline>
</glyph>
<glyph name="eth" format="2">
  <advance width="620"/>
  <unicode hex="00F0"/>
  <anchor x="301" y="0" name="bottom"/>
  <anchor x="301" y="277" name="center"/>
  <anchor x="301" y="767" name="top"/>
  <anchor x="589" y="760" name="topright"/>
  <outline>
    <contour>
      <point x="300" y="-10" type="curve" smooth="yes"/>
      <point x="475" y="-10"/>
      <point x="579" y="97"/>
      <point x="579" y="281" type="curve" smooth="yes"/>
      <point x="579" y="487"/>
      <point x="446" y="680"/>
      <point x="213" y="767" type="curve"/>
      <point x="150" y="681" type="line"/>
      <point x="243" y="638"/>
      <point x="350" y="543"/>
      <point x="382" y="470" type="curve"/>
      <point x="379" y="468" type="line"/>
      <point x="356" y="484"/>
      <point x="321" y="493"/>
      <point x="271" y="493" type="curve" smooth="yes"/>
      <point x="131" y="493"/>
      <point x="23" y="403"/>
      <point x="23" y="244" type="curve" smooth="yes"/>
      <point x="23" y="86"/>
      <point x="132" y="-10"/>
    </contour>
    <contour>
      <point x="301" y="118" type="curve" smooth="yes"/>
      <point x="222" y="118"/>
      <point x="189" y="163"/>
      <point x="189" y="243" type="curve" smooth="yes"/>
      <point x="189" y="324"/>
      <point x="222" y="364"/>
      <point x="300" y="364" type="curve" smooth="yes"/>
      <point x="380" y="364"/>
      <point x="413" y="319"/>
      <point x="413" y="239" type="curve" smooth="yes"/>
      <point x="413" y="164"/>
      <point x="381" y="118"/>
    </contour>
    <contour>
      <point x="200" y="513" type="line"/>
      <point x="487" y="692" type="line"/>
      <point x="427" y="767" type="line"/>
      <point x="141" y="589" type="line"/>
    </contour>
  </outline>
</glyph>
<glyph name="divide" format="2">
  <advance width="620"/>
  <unicode hex="00F7"/>
  <outline>
    <contour>
      <point x="50" y="289" type="line"/>
      <point x="552" y="289" type="line"/>
      <point x="552" y="417" type="line"/>
      <point x="50" y="417" type="line"/>
    </contour>
    <contour>
      <point x="302" y="73" type="curve" smooth="yes"/>
      <point x="350" y="73"/>
      <point x="382" y="103"/>
      <point x="382" y="157" type="curve" smooth="yes"/>
      <point x="382" y="212"/>
      <point x="352" y="241"/>
      <point x="302" y="241" type="curve" smooth="yes"/>
      <point x="250" y="241"/>
      <point x="219" y="212"/>
      <point x="219" y="157" type="curve" smooth="yes"/>
      <point x="219" y="102"/>
      <point x="252" y="73"/>
    </contour>
    <contour>
      <point x="302" y="464" type="curve" smooth="yes"/>
      <point x="350" y="464"/>
      <point x="382" y="494"/>
      <point x="382" y="548" type="curve" smooth="yes"/>
      <point x="382" y="603"/>
      <point x="352" y="632"/>
      <point x="302" y="632" type="curve" smooth="yes"/>
      <point x="250" y="632"/>
      <point x="219" y="603"/>
      <point x="219" y="548" type="curve" smooth="yes"/>
      <point x="219" y="494"/>
      <point x="252" y="464"/>
    </contour>
  </outline>
</glyph>
<glyph name="oslash" format="2">
  <advance width="620"/>
  <unicode hex="00F8"/>
  <anchor x="301" y="0" name="bottom"/>
  <anchor x="301" y="554" name="top"/>
  <anchor x="294" y="10" name="ogonek"/>
  <anchor x="591" y="554" name="topright"/>
  <anchor x="291" y="277" name="center"/>
  <outline>
    <contour>
      <point x="144" y="-54" type="line"/>
      <point x="538" y="556" type="line"/>
      <point x="457" y="597" type="line"/>
      <point x="63" y="-14" type="line"/>
    </contour>
    <component base="o" xOffset="-10"/>
  </outline>
</glyph>
<glyph name="dcaron" format="2">
  <advance width="620"/>
  <unicode hex="010F"/>
  <anchor x="272" y="0" name="bottom"/>
  <anchor x="264" y="277" name="center"/>
  <anchor x="296" y="760" name="top"/>
  <anchor x="561" y="760" name="topright"/>
  <outline>
    <contour>
      <point x="212" y="-10" type="curve" smooth="yes"/>
      <point x="275" y="-10"/>
      <point x="320" y="15"/>
      <point x="351" y="72" type="curve"/>
      <point x="360" y="72" type="line"/>
      <point x="378" y="0" type="line"/>
      <point x="514" y="0" type="line"/>
      <point x="514" y="760" type="line"/>
      <point x="349" y="760" type="line"/>
      <point x="349" y="602" type="line" smooth="yes"/>
      <point x="349" y="563"/>
      <point x="354" y="526"/>
      <point x="359" y="484" type="curve"/>
      <point x="351" y="484" type="line"/>
      <point x="319" y="546"/>
      <point x="275" y="564"/>
      <point x="217" y="564" type="curve" smooth="yes"/>
      <point x="83" y="564"/>
      <point x="11" y="442"/>
      <point x="11" y="275" type="curve" smooth="yes"/>
      <point x="11" y="119"/>
      <point x="78" y="-10"/>
    </contour>
    <contour>
      <point x="262" y="134" type="curve" smooth="yes"/>
      <point x="200" y="134"/>
      <point x="176" y="177"/>
      <point x="176" y="275" type="curve" smooth="yes"/>
      <point x="176" y="370"/>
      <point x="200" y="419"/>
      <point x="266" y="419" type="curve" smooth="yes"/>
      <point x="327" y="419"/>
      <point x="354" y="385"/>
      <point x="354" y="282" type="curve" smooth="yes"/>
      <point x="354" y="267" type="line" smooth="yes"/>
      <point x="354" y="173"/>
      <point x="321" y="134"/>
    </contour>
    <component base="caroncommaaccent" xOffset="321" yOffset="-3"/>
  </outline>
</glyph>
<glyph name="dcroat" format="2">
  <advance width="620"/>
  <unicode hex="0111"/>
  <anchor x="300" y="0" name="bottom"/>
  <anchor x="300" y="277" name="center"/>
  <anchor x="300" y="760" name="top"/>
  <anchor x="588" y="760" name="topright"/>
  <outline>
    <contour>
      <point x="239" y="-10" type="curve" smooth="yes"/>
      <point x="309" y="-10"/>
      <point x="363" y="15"/>
      <point x="397" y="72" type="curve"/>
      <point x="405" y="72" type="line"/>
      <point x="424" y="0" type="line"/>
      <point x="560" y="0" type="line"/>
      <point x="560" y="760" type="line"/>
      <point x="394" y="760" type="line"/>
      <point x="394" y="602" type="line" smooth="yes"/>
      <point x="394" y="541"/>
      <point x="399" y="505"/>
      <point x="405" y="462" type="curve"/>
      <point x="397" y="462" type="line"/>
      <point x="363" y="522"/>
      <point x="309" y="543"/>
      <point x="245" y="543" type="curve" smooth="yes"/>
      <point x="98" y="543"/>
      <point x="23" y="426"/>
      <point x="23" y="265" type="curve" smooth="yes"/>
      <point x="23" y="115"/>
      <point x="93" y="-10"/>
    </contour>
    <contour>
      <point x="296" y="134" type="curve" smooth="yes"/>
      <point x="227" y="134"/>
      <point x="193" y="175"/>
      <point x="193" y="265" type="curve" smooth="yes"/>
      <point x="193" y="350"/>
      <point x="227" y="398"/>
      <point x="301" y="398" type="curve" smooth="yes"/>
      <point x="374" y="398"/>
      <point x="400" y="359"/>
      <point x="400" y="265" type="curve" smooth="yes"/>
      <point x="400" y="249" type="line" smooth="yes"/>
      <point x="400" y="169"/>
      <point x="364" y="134"/>
    </contour>
    <contour>
      <point x="250" y="577" type="line"/>
      <point x="612" y="577" type="line"/>
      <point x="612" y="685" type="line"/>
      <point x="250" y="685" type="line"/>
    </contour>
  </outline>
</glyph>
<glyph name="eogonek" format="2">
  <advance width="620"/>
  <unicode hex="0119"/>
  <anchor x="317" y="-241" name="bottom"/>
  <anchor x="301" y="554" name="top"/>
  <anchor x="301" y="10" name="ogonek"/>
  <anchor x="590" y="554" name="topright"/>
  <outline>
    <contour>
      <point x="450" y="-241" type="curve" smooth="yes"/>
      <point x="485" y="-241"/>
      <point x="511" y="-234"/>
      <point x="530" y="-227" type="curve"/>
      <point x="530" y="-129" type="line"/>
      <point x="518" y="-134"/>
      <point x="502" y="-139"/>
      <point x="485" y="-139" type="curve" smooth="yes"/>
      <point x="452" y="-139"/>
      <point x="434" y="-123"/>
      <point x="434" y="-95" type="curve" smooth="yes"/>
      <point x="434" y="-60"/>
      <point x="466" y="-26"/>
      <point x="543" y="30" type="curve"/>
      <point x="467" y="49" type="line"/>
      <point x="389" y="4"/>
      <point x="313" y="-39"/>
      <point x="313" y="-124" type="curve" smooth="yes"/>
      <point x="313" y="-197"/>
      <point x="360" y="-241"/>
    </contour>
    <component base="e" xOffset="-10"/>
  </outline>
</glyph>
<glyph name="Hbar" format="2">
  <advance width="620"/>
  <unicode hex="0126"/>
  <anchor x="301" y="0" name="bottom"/>
  <anchor x="301" y="357" name="center"/>
  <anchor x="301" y="714" name="top"/>
  <anchor x="13" y="714" name="topleft"/>
  <outline>
    <contour>
      <point x="-10" y="523" type="line"/>
      <point x="612" y="523" type="line"/>
      <point x="612" y="630" type="line"/>
      <point x="-10" y="630" type="line"/>
    </contour>
    <contour>
      <point x="41" y="0" type="line"/>
      <point x="211" y="0" type="line"/>
      <point x="211" y="295" type="line"/>
      <point x="390" y="295" type="line"/>
      <point x="390" y="0" type="line"/>
      <point x="560" y="0" type="line"/>
      <point x="560" y="714" type="line"/>
      <point x="390" y="714" type="line"/>
      <point x="390" y="444" type="line"/>
      <point x="211" y="444" type="line"/>
      <point x="211" y="714" type="line"/>
      <point x="41" y="714" type="line"/>
    </contour>
  </outline>
</glyph>
<glyph name="hbar" format="2">
  <advance width="620"/>
  <unicode hex="0127"/>
  <anchor x="301" y="0" name="bottom"/>
  <anchor x="301" y="277" name="center"/>
  <anchor x="127" y="760" name="top"/>
  <outline>
    <contour>
      <point x="-10" y="577" type="line"/>
      <point x="364" y="577" type="line"/>
      <point x="364" y="685" type="line"/>
      <point x="-10" y="685" type="line"/>
    </contour>
    <contour>
      <point x="42" y="0" type="line"/>
      <point x="212" y="0" type="line"/>
      <point x="212" y="240" type="line" smooth="yes"/>
      <point x="212" y="346"/>
      <point x="241" y="392"/>
      <point x="312" y="392" type="curve" smooth="yes"/>
      <point x="381" y="392"/>
      <point x="395" y="350"/>
      <point x="395" y="280" type="curve" smooth="yes"/>
      <point x="395" y="0" type="line"/>
      <point x="566" y="0" type="line"/>
      <point x="566" y="337" type="line" smooth="yes"/>
      <point x="566" y="464"/>
      <point x="495" y="541"/>
      <point x="372" y="541" type="curve" smooth="yes"/>
      <point x="295" y="541"/>
      <point x="242" y="512"/>
      <point x="210" y="463" type="curve"/>
      <point x="200" y="463" type="line"/>
      <point x="207" y="512"/>
      <point x="212" y="573"/>
      <point x="212" y="630" type="curve" smooth="yes"/>
      <point x="212" y="760" type="line"/>
      <point x="42" y="760" type="line"/>
    </contour>
  </outline>
</glyph>
<glyph name="idotless" format="2">
  <advance width="602"/>
  <unicode hex="0131"/>
  <anchor x="301" y="0" name="bottom"/>
  <anchor x="550" y="10" name="ogonek"/>
  <anchor x="301" y="554" name="top"/>
  <outline>
    <contour>
      <point x="41" y="0" type="line"/>
      <point x="565" y="0" type="line"/>
      <point x="565" y="122" type="line"/>
      <point x="399" y="139" type="line"/>
      <point x="399" y="554" type="line"/>
      <point x="76" y="554" type="line"/>
      <point x="76" y="426" type="line"/>
      <point x="231" y="413" type="line"/>
      <point x="231" y="139" type="line"/>
      <point x="41" y="122" type="line"/>
    </contour>
  </outline>
</glyph>
<glyph name="IJ" format="2">
  <advance width="620"/>
  <unicode hex="0132"/>
  <anchor x="301" y="0" name="bottom"/>
  <anchor x="-10" y="0" name="caret_1"/>
  <anchor x="301" y="714" name="top"/>
  <anchor x="13" y="714" name="topleft"/>
  <outline>
    <contour>
      <point x="247" y="-9" type="curve" smooth="yes"/>
      <point x="445" y="-9"/>
      <point x="535" y="104"/>
      <point x="535" y="286" type="curve" smooth="yes"/>
      <point x="535" y="714" type="line"/>
      <point x="367" y="714" type="line"/>
      <point x="367" y="322" type="line" smooth="yes"/>
      <point x="367" y="178"/>
      <point x="313" y="142"/>
      <point x="215" y="142" type="curve" smooth="yes"/>
      <point x="176" y="142"/>
      <point x="123" y="146"/>
      <point x="68" y="158" type="curve"/>
      <point x="68" y="10" type="line"/>
      <point x="128" y="-3"/>
      <point x="196" y="-9"/>
    </contour>
    <contour>
      <point x="67" y="237" type="line"/>
      <point x="234" y="237" type="line"/>
      <point x="234" y="714" type="line"/>
      <point x="67" y="714" type="line"/>
    </contour>
  </outline>
</glyph>
<glyph name="ij" format="2">
  <advance width="620"/>
  <unicode hex="0133"/>
  <anchor x="315" y="-245" name="bottom"/>
  <anchor x="-10" y="0" name="caret_1"/>
  <anchor x="305" y="776" name="top"/>
  <outline>
    <contour>
      <point x="291" y="-245" type="curve" smooth="yes"/>
      <point x="462" y="-245"/>
      <point x="530" y="-172"/>
      <point x="530" y="-29" type="curve" smooth="yes"/>
      <point x="530" y="554" type="line"/>
      <point x="362" y="554" type="line"/>
      <point x="362" y="9" type="line" smooth="yes"/>
      <point x="362" y="-74"/>
      <point x="338" y="-100"/>
      <point x="257" y="-100" type="curve" smooth="yes"/>
      <point x="222" y="-100"/>
      <point x="174" y="-95"/>
      <point x="128" y="-81" type="curve"/>
      <point x="128" y="-221" type="line"/>
      <point x="180" y="-238"/>
      <point x="240" y="-245"/>
    </contour>
    <contour>
      <point x="75" y="0" type="line"/>
      <point x="243" y="0" type="line"/>
      <point x="243" y="554" type="line"/>
      <point x="75" y="554" type="line"/>
    </contour>
    <contour>
      <point x="161" y="603" type="curve" smooth="yes"/>
      <point x="228" y="603"/>
      <point x="261" y="636"/>
      <point x="261" y="690" type="curve" smooth="yes"/>
      <point x="261" y="745"/>
      <point x="227" y="776"/>
      <point x="161" y="776" type="curve" smooth="yes"/>
      <point x="94" y="776"/>
      <point x="59" y="746"/>
      <point x="59" y="690" type="curve" smooth="yes"/>
      <point x="59" y="633"/>
      <point x="96" y="603"/>
    </contour>
    <contour>
      <point x="441" y="603" type="curve" smooth="yes"/>
      <point x="508" y="603"/>
      <point x="543" y="636"/>
      <point x="543" y="691" type="curve" smooth="yes"/>
      <point x="543" y="745"/>
      <point x="508" y="776"/>
      <point x="441" y="776" type="curve" smooth="yes"/>
      <point x="374" y="776"/>
      <point x="339" y="746"/>
      <point x="339" y="690" type="curve" smooth="yes"/>
      <point x="339" y="633"/>
      <point x="376" y="603"/>
    </contour>
  </outline>
</glyph>
<glyph name="kgreenlandic" format="2">
  <advance width="620"/>
  <unicode hex="0138"/>
  <anchor x="301" y="0" name="bottom"/>
  <anchor x="301" y="554" name="top"/>
  <outline>
    <contour>
      <point x="46" y="0" type="line"/>
      <point x="213" y="0" type="line"/>
      <point x="213" y="159" type="line"/>
      <point x="276" y="195" type="line"/>
      <point x="408" y="0" type="line"/>
      <point x="601" y="0" type="line"/>
      <point x="393" y="302" type="line"/>
      <point x="595" y="554" type="line"/>
      <point x="405" y="554" type="line"/>
      <point x="274" y="399" type="line" smooth="yes"/>
      <point x="247" y="368"/>
      <point x="227" y="339"/>
      <point x="205" y="308" type="curve"/>
      <point x="202" y="308" type="line"/>
      <point x="207" y="353"/>
      <point x="213" y="415"/>
      <point x="213" y="461" type="curve" smooth="yes"/>
      <point x="213" y="554" type="line"/>
      <point x="46" y="554" type="line"/>
    </contour>
  </outline>
</glyph>
<glyph name="Lslash" format="2">
  <advance width="620"/>
  <unicode hex="0141"/>
  <anchor x="363" y="0" name="bottom"/>
  <anchor x="194" y="714" name="top"/>
  <anchor x="462" y="714" name="topright"/>
  <anchor x="301" y="357" name="center"/>
  <outline>
    <contour>
      <point x="-3" y="244" type="line"/>
      <point x="466" y="443" type="line"/>
      <point x="466" y="552" type="line"/>
      <point x="-3" y="353" type="line"/>
    </contour>
    <component base="L"/>
  </outline>
</glyph>
<glyph name="lslash" format="2">
  <advance width="620"/>
  <unicode hex="0142"/>
  <anchor x="301" y="0" name="bottom"/>
  <anchor x="301" y="760" name="top"/>
  <anchor x="513" y="760" name="topright"/>
  <anchor x="314" y="393" name="center"/>
  <outline>
    <contour>
      <point x="81" y="244" type="line"/>
      <point x="550" y="443" type="line"/>
      <point x="550" y="552" type="line"/>
      <point x="81" y="353" type="line"/>
    </contour>
    <component base="l"/>
  </outline>
</glyph>
<glyph name="napostrophe" format="2">
  <advance width="620"/>
  <unicode hex="0149"/>
  <anchor x="314" y="0" name="bottom"/>
  <anchor x="319" y="554" name="top"/>
  <outline>
    <contour>
      <point x="55" y="0" type="line"/>
      <point x="225" y="0" type="line"/>
      <point x="225" y="247" type="line" smooth="yes"/>
      <point x="225" y="361"/>
      <point x="251" y="416"/>
      <point x="319" y="416" type="curve" smooth="yes"/>
      <point x="370" y="416"/>
      <point x="395" y="381"/>
      <point x="395" y="302" type="curve" smooth="yes"/>
      <point x="395" y="0" type="line"/>
      <point x="566" y="0" type="line"/>
      <point x="566" y="360" type="line" smooth="yes"/>
      <point x="566" y="495"/>
      <point x="497" y="564"/>
      <point x="379" y="564" type="curve" smooth="yes"/>
      <point x="301" y="564"/>
      <point x="252" y="536"/>
      <point x="221" y="486" type="curve"/>
      <point x="211" y="486" type="line"/>
      <point x="189" y="554" type="line"/>
      <point x="55" y="554" type="line"/>
    </contour>
    <component base="quoteright" xOffset="-351"/>
  </outline>
</glyph>
<glyph name="Eng" format="2">
  <advance width="620"/>
  <unicode hex="014A"/>
  <anchor x="317" y="-224" name="bottom"/>
  <anchor x="317" y="714" name="top"/>
  <anchor x="612" y="714" name="topright"/>
  <outline>
    <contour>
      <point x="340" y="-224" type="curve" smooth="yes"/>
      <point x="492" y="-224"/>
      <point x="570" y="-144"/>
      <point x="570" y="-4" type="curve" smooth="yes"/>
      <point x="570" y="133" type="line"/>
      <point x="431" y="113" type="line"/>
      <point x="431" y="2" type="line" smooth="yes"/>
      <point x="431" y="-69"/>
      <point x="393" y="-104"/>
      <point x="320" y="-104" type="curve" smooth="yes"/>
      <point x="292" y="-104"/>
      <point x="267" y="-99"/>
      <point x="245" y="-94" type="curve"/>
      <point x="245" y="-213" type="line"/>
      <point x="272" y="-221"/>
      <point x="305" y="-224"/>
    </contour>
    <component base="N"/>
  </outline>
</glyph>
<glyph name="eng" format="2">
  <advance width="620"/>
  <unicode hex="014B"/>
  <anchor x="308" y="-240" name="bottom"/>
  <anchor x="314" y="554" name="top"/>
  <anchor x="603" y="554" name="topright"/>
  <outline>
    <contour>
      <point x="363" y="-240" type="curve" smooth="yes"/>
      <point x="502" y="-240"/>
      <point x="564" y="-150"/>
      <point x="564" y="-49" type="curve" smooth="yes"/>
      <point x="564" y="271" type="line"/>
      <point x="446" y="241" type="line" smooth="yes"/>
      <point x="390" y="119" type="line" smooth="yes"/>
      <point x="307" y="-32"/>
      <point x="364" y="-103"/>
      <point x="327" y="-103" type="curve" smooth="yes"/>
      <point x="308" y="-103"/>
      <point x="290" y="-100"/>
      <point x="270" y="-94" type="curve"/>
      <point x="270" y="-229" type="line"/>
      <point x="297" y="-237"/>
      <point x="332" y="-240"/>
    </contour>
    <component base="n"/>
  </outline>
</glyph>
<glyph name="OE" format="2">
  <advance width="620"/>
  <unicode hex="0152"/>
  <anchor x="301" y="0" name="bottom"/>
  <anchor x="301" y="714" name="top"/>
  <outline>
    <contour>
      <point x="250" y="-11" type="curve" smooth="yes"/>
      <point x="277" y="-11"/>
      <point x="305" y="-8"/>
      <point x="334" y="0" type="curve"/>
      <point x="593" y="0" type="line"/>
      <point x="593" y="149" type="line"/>
      <point x="450" y="149" type="line"/>
      <point x="450" y="295" type="line"/>
      <point x="573" y="295" type="line"/>
      <point x="573" y="444" type="line"/>
      <point x="450" y="444" type="line"/>
      <point x="450" y="566" type="line"/>
      <point x="593" y="566" type="line"/>
      <point x="593" y="714" type="line"/>
      <point x="331" y="714" type="line"/>
      <point x="294" y="722"/>
      <point x="265" y="725"/>
      <point x="240" y="725" type="curve" smooth="yes"/>
      <point x="69" y="725"/>
      <point x="14" y="580"/>
      <point x="14" y="361" type="curve" smooth="yes"/>
      <point x="14" y="131"/>
      <point x="71" y="-11"/>
    </contour>
    <contour>
      <point x="263" y="138" type="curve" smooth="yes"/>
      <point x="193" y="138"/>
      <point x="170" y="208"/>
      <point x="170" y="355" type="curve" smooth="yes"/>
      <point x="170" y="502"/>
      <point x="197" y="578"/>
      <point x="267" y="578" type="curve" smooth="yes"/>
      <point x="278" y="578"/>
      <point x="291" y="577"/>
      <point x="303" y="571" type="curve"/>
      <point x="303" y="145" type="line"/>
      <point x="290" y="139"/>
      <point x="279" y="138"/>
    </contour>
  </outline>
</glyph>
<glyph name="oe" format="2">
  <advance width="620"/>
  <unicode hex="0153"/>
  <anchor x="301" y="0" name="bottom"/>
  <anchor x="301" y="554" name="top"/>
  <outline>
    <contour>
      <point x="187" y="-10" type="curve" smooth="yes"/>
      <point x="244" y="-10"/>
      <point x="288" y="9"/>
      <point x="323" y="49" type="curve"/>
      <point x="356" y="9"/>
      <point x="404" y="-10"/>
      <point x="464" y="-10" type="curve" smooth="yes"/>
      <point x="508" y="-10"/>
      <point x="551" y="1"/>
      <point x="587" y="27" type="curve"/>
      <point x="587" y="154" type="line"/>
      <point x="551" y="128"/>
      <point x="515" y="118"/>
      <point x="484" y="118" type="curve" smooth="yes"/>
      <point x="418" y="118"/>
      <point x="389" y="157"/>
      <point x="387" y="229" type="curve"/>
      <point x="603" y="229" type="line"/>
      <point x="603" y="283" type="line" smooth="yes"/>
      <point x="603" y="448"/>
      <point x="561" y="563"/>
      <point x="437" y="563" type="curve" smooth="yes"/>
      <point x="382" y="563"/>
      <point x="345" y="542"/>
      <point x="317" y="500" type="curve"/>
      <point x="288" y="542"/>
      <point x="243" y="563"/>
      <point x="183" y="563" type="curve" smooth="yes"/>
      <point x="45" y="563"/>
      <point x="2" y="434"/>
      <point x="2" y="284" type="curve" smooth="yes"/>
      <point x="2" y="107"/>
      <point x="57" y="-10"/>
    </contour>
    <contour>
      <point x="193" y="122" type="curve" smooth="yes"/>
      <point x="151" y="122"/>
      <point x="137" y="176"/>
      <point x="137" y="282" type="curve" smooth="yes"/>
      <point x="137" y="382"/>
      <point x="151" y="432"/>
      <point x="193" y="432" type="curve" smooth="yes"/>
      <point x="236" y="432"/>
      <point x="247" y="382"/>
      <point x="247" y="283" type="curve" smooth="yes"/>
      <point x="247" y="178"/>
      <point x="237" y="122"/>
    </contour>
    <contour>
      <point x="382" y="336" type="line"/>
      <point x="383" y="414"/>
      <point x="403" y="434"/>
      <point x="432" y="434" type="curve" smooth="yes"/>
      <point x="462" y="434"/>
      <point x="479" y="412"/>
      <point x="479" y="336" type="curve"/>
    </contour>
  </outline>
</glyph>
<glyph name="tbar" format="2">
  <advance width="620"/>
  <unicode hex="0167"/>
  <anchor x="343" y="0" name="bottom"/>
  <anchor x="273" y="680" name="top"/>
  <anchor x="589" y="680" name="topright"/>
  <anchor x="246" y="284" name="center"/>
  <outline>
    <contour>
      <point x="18" y="225" type="line"/>
      <point x="562" y="225" type="line"/>
      <point x="562" y="334" type="line"/>
      <point x="18" y="334" type="line"/>
    </contour>
    <component base="t"/>
  </outline>
</glyph>
<glyph name="Uogonek" format="2">
  <advance width="620"/>
  <unicode hex="0172"/>
  <anchor x="340" y="-241" name="bottom"/>
  <anchor x="301" y="714" name="top"/>
  <anchor x="550" y="10" name="ogonek"/>
  <anchor x="589" y="714" name="topright"/>
  <outline>
    <contour>
      <point x="338" y="-241" type="curve" smooth="yes"/>
      <point x="374" y="-241"/>
      <point x="400" y="-234"/>
      <point x="419" y="-227" type="curve"/>
      <point x="419" y="-129" type="line"/>
      <point x="407" y="-134"/>
      <point x="391" y="-139"/>
      <point x="374" y="-139" type="curve" smooth="yes"/>
      <point x="339" y="-139"/>
      <point x="323" y="-122"/>
      <point x="323" y="-97" type="curve" smooth="yes"/>
      <point x="323" y="-60"/>
      <point x="360" y="-24"/>
      <point x="440" y="18" type="curve"/>
      <point x="355" y="36" type="line"/>
      <point x="253" y="-8"/>
      <point x="202" y="-65"/>
      <point x="202" y="-130" type="curve" smooth="yes"/>
      <point x="202" y="-202"/>
      <point x="250" y="-241"/>
    </contour>
    <component base="U"/>
  </outline>
</glyph>
<glyph name="longs" format="2">
  <advance width="620"/>
  <unicode hex="017F"/>
  <anchor x="301" y="0" name="bottom"/>
  <anchor x="385" y="765" name="top"/>
  <outline>
    <contour>
      <point x="189" y="0" type="line"/>
      <point x="359" y="0" type="line"/>
      <point x="359" y="553" type="line" smooth="yes"/>
      <point x="359" y="611"/>
      <point x="387" y="628"/>
      <point x="436" y="628" type="curve" smooth="yes"/>
      <point x="463" y="628"/>
      <point x="492" y="624"/>
      <point x="516" y="617" type="curve"/>
      <point x="550" y="742" type="line"/>
      <point x="503" y="759"/>
      <point x="458" y="765"/>
      <point x="409" y="765" type="curve" smooth="yes"/>
      <point x="262" y="765"/>
      <point x="189" y="710"/>
      <point x="189" y="564" type="curve" smooth="yes"/>
    </contour>
  </outline>
</glyph>
<glyph name="uni0181" format="2">
  <advance width="620"/>
  <unicode hex="0181"/>
  <anchor x="343" y="0" name="bottom"/>
  <anchor x="343" y="714" name="top"/>
  <outline>
    <contour>
      <point x="171" y="0" type="line"/>
      <point x="372" y="0" type="line" smooth="yes"/>
      <point x="512" y="0"/>
      <point x="594" y="79"/>
      <point x="594" y="211" type="curve" smooth="yes"/>
      <point x="594" y="310"/>
      <point x="544" y="356"/>
      <point x="471" y="374" type="curve"/>
      <point x="471" y="379" type="line"/>
      <point x="533" y="395"/>
      <point x="579" y="441"/>
      <point x="579" y="536" type="curve" smooth="yes"/>
      <point x="579" y="651"/>
      <point x="511" y="714"/>
      <point x="348" y="714" type="curve" smooth="yes"/>
      <point x="171" y="714" type="line"/>
    </contour>
    <contour>
      <point x="326" y="135" type="line"/>
      <point x="326" y="305" type="line"/>
      <point x="355" y="305" type="line" smooth="yes"/>
      <point x="422" y="305"/>
      <point x="440" y="270"/>
      <point x="440" y="224" type="curve" smooth="yes"/>
      <point x="440" y="175"/>
      <point x="419" y="135"/>
      <point x="360" y="135" type="curve" smooth="yes"/>
    </contour>
    <contour>
      <point x="1" y="460" type="curve"/>
      <point x="121" y="460" type="line"/>
      <point x="118" y="472"/>
      <point x="113" y="495"/>
      <point x="113" y="518" type="curve" smooth="yes"/>
      <point x="113" y="558"/>
      <point x="133" y="580"/>
      <point x="169" y="580" type="curve" smooth="yes"/>
      <point x="199" y="580" type="line"/>
      <point x="199" y="714" type="line"/>
      <point x="168" y="714" type="line"/>
      <point x="49" y="714"/>
      <point x="-8" y="640"/>
      <point x="-8" y="532" type="curve" smooth="yes"/>
      <point x="-8" y="503"/>
      <point x="-3" y="471"/>
    </contour>
    <contour>
      <point x="326" y="433" type="line"/>
      <point x="326" y="580" type="line"/>
      <point x="346" y="580" type="line" smooth="yes"/>
      <point x="409" y="580"/>
      <point x="426" y="555"/>
      <point x="426" y="510" type="curve" smooth="yes"/>
      <point x="426" y="468"/>
      <point x="404" y="433"/>
      <point x="350" y="433" type="curve" smooth="yes"/>
    </contour>
  </outline>
</glyph>
<glyph name="uni0184" format="2">
  <advance width="620"/>
  <unicode hex="0184"/>
  <anchor x="301" y="0" name="bottom"/>
  <anchor x="301" y="760" name="top"/>
  <outline>
    <contour>
      <point x="310" y="-10" type="curve"/>
      <point x="486" y="-10"/>
      <point x="576" y="84"/>
      <point x="576" y="228" type="curve" smooth="yes"/>
      <point x="576" y="372"/>
      <point x="501" y="456"/>
      <point x="308" y="456" type="curve" smooth="yes"/>
      <point x="225" y="456" type="line"/>
      <point x="225" y="714" type="line"/>
      <point x="57" y="714" type="line"/>
      <point x="57" y="222" type="line" smooth="yes"/>
      <point x="57" y="59"/>
      <point x="138" y="-10"/>
    </contour>
    <contour>
      <point x="315" y="130" type="curve"/>
      <point x="251" y="130"/>
      <point x="225" y="159"/>
      <point x="225" y="226" type="curve" smooth="yes"/>
      <point x="225" y="315" type="line"/>
      <point x="289" y="315" type="line" smooth="yes"/>
      <point x="365" y="315"/>
      <point x="407" y="295"/>
      <point x="407" y="222" type="curve" smooth="yes"/>
      <point x="407" y="155"/>
      <point x="372" y="130"/>
    </contour>
  </outline>
</glyph>
<glyph name="uni0185" format="2">
  <advance width="620"/>
  <unicode hex="0185"/>
  <anchor x="301" y="0" name="bottom"/>
  <anchor x="301" y="760" name="top"/>
  <outline>
    <contour>
      <point x="303" y="-10" type="curve" smooth="yes"/>
      <point x="460" y="-10"/>
      <point x="579" y="75"/>
      <point x="579" y="276" type="curve" smooth="yes"/>
      <point x="579" y="471"/>
      <point x="499" y="563"/>
      <point x="369" y="563" type="curve" smooth="yes"/>
      <point x="281" y="563"/>
      <point x="236" y="528"/>
      <point x="208" y="489" type="curve"/>
      <point x="199" y="489" type="line"/>
      <point x="204" y="512"/>
      <point x="208" y="545"/>
      <point x="208" y="591" type="curve" smooth="yes"/>
      <point x="208" y="760" type="line"/>
      <point x="42" y="760" type="line"/>
      <point x="42" y="265" type="line" smooth="yes"/>
      <point x="42" y="91"/>
      <point x="128" y="-10"/>
    </contour>
    <contour>
      <point x="307" y="134" type="curve"/>
      <point x="242" y="134"/>
      <point x="208" y="167"/>
      <point x="208" y="267" type="curve" smooth="yes"/>
      <point x="208" y="302" type="line" smooth="yes"/>
      <point x="208" y="379"/>
      <point x="238" y="420"/>
      <point x="307" y="420" type="curve" smooth="yes"/>
      <point x="376" y="420"/>
      <point x="404" y="376"/>
      <point x="404" y="276" type="curve" smooth="yes"/>
      <point x="404" y="171"/>
      <point x="371" y="134"/>
    </contour>
  </outline>
</glyph>
<glyph name="uni0187" format="2">
  <advance width="620"/>
  <unicode hex="0187"/>
  <anchor x="352" y="0" name="bottom"/>
  <anchor x="352" y="888" name="top"/>
  <anchor x="579" y="714" name="topright"/>
  <outline>
    <contour>
      <point x="437" y="678" type="line"/>
      <point x="582" y="678" type="line"/>
      <point x="582" y="688" type="line" smooth="yes"/>
      <point x="582" y="731"/>
      <point x="602" y="746"/>
      <point x="633" y="746" type="curve" smooth="yes"/>
      <point x="654" y="746"/>
      <point x="671" y="743"/>
      <point x="682" y="740" type="curve"/>
      <point x="682" y="877" type="line"/>
      <point x="667" y="883"/>
      <point x="642" y="888"/>
      <point x="604" y="888" type="curve" smooth="yes"/>
      <point x="515" y="888"/>
      <point x="437" y="840"/>
      <point x="437" y="724" type="curve" smooth="yes"/>
    </contour>
    <component base="C" xOffset="-10"/>
  </outline>
</glyph>
<glyph name="uni0188" format="2">
  <advance width="620"/>
  <unicode hex="0188"/>
  <anchor x="301" y="0" name="bottom"/>
  <anchor x="301" y="764" name="top"/>
  <anchor x="579" y="554" name="topright"/>
  <outline>
    <contour>
      <point x="409" y="521" type="line"/>
      <point x="553" y="521" type="line"/>
      <point x="553" y="577" type="line" smooth="yes"/>
      <point x="553" y="615"/>
      <point x="571" y="631"/>
      <point x="601" y="631" type="curve" smooth="yes"/>
      <point x="625" y="631"/>
      <point x="642" y="625"/>
      <point x="654" y="621" type="curve"/>
      <point x="654" y="748" type="line"/>
      <point x="642" y="754"/>
      <point x="611" y="764"/>
      <point x="573" y="764" type="curve" smooth="yes"/>
      <point x="474" y="764"/>
      <point x="409" y="712"/>
      <point x="409" y="580" type="curve" smooth="yes"/>
    </contour>
    <component base="c" xOffset="-10"/>
  </outline>
</glyph>
<glyph name="uni018A" format="2">
  <advance width="620"/>
  <unicode hex="018A"/>
  <anchor x="301" y="0" name="bottom"/>
  <anchor x="301" y="714" name="top"/>
  <outline>
    <contour>
      <point x="161" y="0" type="line"/>
      <point x="329" y="0" type="line" smooth="yes"/>
      <point x="513" y="0"/>
      <point x="589" y="117"/>
      <point x="589" y="372" type="curve" smooth="yes"/>
      <point x="589" y="605"/>
      <point x="522" y="714"/>
      <point x="337" y="714" type="curve" smooth="yes"/>
      <point x="161" y="714" type="line"/>
    </contour>
    <contour>
      <point x="320" y="147" type="line"/>
      <point x="320" y="567" type="line"/>
      <point x="334" y="567" type="line" smooth="yes"/>
      <point x="406" y="567"/>
      <point x="430" y="526"/>
      <point x="430" y="360" type="curve" smooth="yes"/>
      <point x="430" y="185"/>
      <point x="399" y="147"/>
      <point x="333" y="147" type="curve" smooth="yes"/>
    </contour>
    <contour>
      <point x="1" y="460" type="curve"/>
      <point x="117" y="460" type="line"/>
      <point x="114" y="472"/>
      <point x="109" y="494"/>
      <point x="109" y="518" type="curve" smooth="yes"/>
      <point x="109" y="559"/>
      <point x="129" y="580"/>
      <point x="165" y="580" type="curve" smooth="yes"/>
      <point x="198" y="580" type="line"/>
      <point x="198" y="714" type="line"/>
      <point x="167" y="714" type="line"/>
      <point x="49" y="714"/>
      <point x="-8" y="640"/>
      <point x="-8" y="532" type="curve" smooth="yes"/>
      <point x="-8" y="503"/>
      <point x="-3" y="471"/>
    </contour>
  </outline>
</glyph>
<glyph name="uni018B" format="2">
  <advance width="620"/>
  <unicode hex="018B"/>
  <anchor x="301" y="0" name="bottom"/>
  <anchor x="317" y="714" name="top"/>
  <anchor x="0" y="0" name="topright"/>
  <outline>
    <contour>
      <point x="90" y="561" type="line"/>
      <point x="448" y="561" type="line"/>
      <point x="448" y="714" type="line"/>
      <point x="90" y="714" type="line"/>
    </contour>
    <component base="P" xScale="-1" yScale="-1" xOffset="612" yOffset="714"/>
  </outline>
</glyph>
<glyph name="uni0191" format="2">
  <advance width="620"/>
  <unicode hex="0191"/>
  <anchor x="310" y="-244" name="bottom"/>
  <anchor x="317" y="714" name="top"/>
  <outline>
    <contour>
      <point x="12" y="-261" type="curve" smooth="yes"/>
      <point x="137" y="-261"/>
      <point x="225" y="-210"/>
      <point x="225" y="-42" type="curve" smooth="yes"/>
      <point x="225" y="262" type="line"/>
      <point x="533" y="262" type="line"/>
      <point x="533" y="411" type="line"/>
      <point x="225" y="411" type="line"/>
      <point x="225" y="566" type="line"/>
      <point x="551" y="566" type="line"/>
      <point x="551" y="714" type="line"/>
      <point x="56" y="714" type="line"/>
      <point x="56" y="-31" type="line" smooth="yes"/>
      <point x="56" y="-93"/>
      <point x="35" y="-117"/>
      <point x="-18" y="-117" type="curve" smooth="yes"/>
      <point x="-42" y="-117"/>
      <point x="-64" y="-112"/>
      <point x="-79" y="-107" type="curve"/>
      <point x="-79" y="-248" type="line"/>
      <point x="-56" y="-255"/>
      <point x="-22" y="-261"/>
    </contour>
  </outline>
</glyph>
<glyph name="florin" format="2">
  <advance width="620"/>
  <unicode hex="0192"/>
  <anchor x="281" y="-242" name="bottom"/>
  <anchor x="393" y="733" name="top"/>
  <outline>
    <contour>
      <point x="170" y="-242" type="curve" smooth="yes"/>
      <point x="320" y="-242"/>
      <point x="370" y="-168"/>
      <point x="370" y="-23" type="curve" smooth="yes"/>
      <point x="370" y="384" type="line"/>
      <point x="512" y="384" type="line"/>
      <point x="512" y="516" type="line"/>
      <point x="370" y="516" type="line"/>
      <point x="370" y="537" type="line" smooth="yes"/>
      <point x="370" y="581"/>
      <point x="397" y="600"/>
      <point x="452" y="600" type="curve" smooth="yes"/>
      <point x="478" y="600"/>
      <point x="502" y="596"/>
      <point x="524" y="589" type="curve"/>
      <point x="557" y="707" type="line"/>
      <point x="510" y="725"/>
      <point x="471" y="733"/>
      <point x="417" y="733" type="curve" smooth="yes"/>
      <point x="275" y="733"/>
      <point x="208" y="674"/>
      <point x="208" y="530" type="curve" smooth="yes"/>
      <point x="208" y="514" type="line"/>
      <point x="87" y="478" type="line"/>
      <point x="87" y="384" type="line"/>
      <point x="207" y="384" type="line"/>
      <point x="207" y="-45" type="line" smooth="yes"/>
      <point x="207" y="-87"/>
      <point x="186" y="-108"/>
      <point x="130" y="-108" type="curve" smooth="yes"/>
      <point x="108" y="-108"/>
      <point x="86" y="-105"/>
      <point x="64" y="-97" type="curve"/>
      <point x="64" y="-228" type="line"/>
      <point x="89" y="-236"/>
      <point x="120" y="-242"/>
    </contour>
  </outline>
</glyph>
<glyph name="uni0193" format="2">
  <advance width="620"/>
  <unicode hex="0193"/>
  <anchor x="303" y="0" name="bottom"/>
  <anchor x="303" y="888" name="top"/>
  <anchor x="579" y="714" name="topright"/>
  <outline>
    <contour>
      <point x="419" y="680" type="line"/>
      <point x="566" y="680" type="line"/>
      <point x="566" y="688" type="line" smooth="yes"/>
      <point x="566" y="727"/>
      <point x="583" y="741"/>
      <point x="612" y="741" type="curve" smooth="yes"/>
      <point x="635" y="741"/>
      <point x="656" y="735"/>
      <point x="668" y="731" type="curve"/>
      <point x="668" y="873" type="line"/>
      <point x="655" y="879"/>
      <point x="623" y="888"/>
      <point x="586" y="888" type="curve" smooth="yes"/>
      <point x="498" y="888"/>
      <point x="419" y="841"/>
      <point x="419" y="725" type="curve" smooth="yes"/>
    </contour>
    <component base="G" xOffset="-10"/>
  </outline>
</glyph>
<glyph name="uni0194" format="2">
  <advance width="620"/>
  <unicode hex="0194"/>
  <anchor x="301" y="-240" name="bottom"/>
  <anchor x="301" y="714" name="top"/>
  <outline>
    <contour>
      <point x="299" y="-240" type="curve" smooth="yes"/>
      <point x="425" y="-240"/>
      <point x="481" y="-166"/>
      <point x="481" y="-71" type="curve" smooth="yes"/>
      <point x="481" y="-1"/>
      <point x="447" y="54"/>
      <point x="393" y="142" type="curve"/>
      <point x="597" y="714" type="line"/>
      <point x="420" y="714" type="line"/>
      <point x="341" y="464" type="line" smooth="yes"/>
      <point x="325" y="413"/>
      <point x="307" y="320"/>
      <point x="302" y="282" type="curve"/>
      <point x="297" y="320"/>
      <point x="279" y="414"/>
      <point x="262" y="464" type="curve" smooth="yes"/>
      <point x="183" y="714" type="line"/>
      <point x="5" y="714" type="line"/>
      <point x="207" y="146" type="line"/>
      <point x="157" y="58"/>
      <point x="123" y="1"/>
      <point x="123" y="-69" type="curve" smooth="yes"/>
      <point x="123" y="-171"/>
      <point x="177" y="-240"/>
    </contour>
    <contour>
      <point x="302" y="-139" type="curve" smooth="yes"/>
      <point x="279" y="-139"/>
      <point x="262" y="-120"/>
      <point x="262" y="-76" type="curve" smooth="yes"/>
      <point x="262" y="-49"/>
      <point x="271" y="-6"/>
      <point x="302" y="35" type="curve"/>
      <point x="331" y="-8"/>
      <point x="344" y="-50"/>
      <point x="344" y="-80" type="curve" smooth="yes"/>
      <point x="344" y="-120"/>
      <point x="327" y="-139"/>
    </contour>
  </outline>
</glyph>
<glyph name="uni0195" format="2">
  <advance width="620"/>
  <unicode hex="0195"/>
  <anchor x="306" y="0" name="bottom"/>
  <anchor x="110" y="760" name="top"/>
  <outline>
    <contour>
      <point x="403" y="-14" type="curve" smooth="yes"/>
      <point x="512" y="-14"/>
      <point x="567" y="45"/>
      <point x="567" y="135" type="curve" smooth="yes"/>
      <point x="567" y="554" type="line"/>
      <point x="432" y="554" type="line"/>
      <point x="432" y="141" type="line" smooth="yes"/>
      <point x="432" y="125"/>
      <point x="421" y="118"/>
      <point x="403" y="118" type="curve" smooth="yes"/>
      <point x="384" y="118"/>
      <point x="375" y="126"/>
      <point x="375" y="140" type="curve" smooth="yes"/>
      <point x="375" y="446" type="line" smooth="yes"/>
      <point x="375" y="534"/>
      <point x="334" y="564"/>
      <point x="271" y="564" type="curve" smooth="yes"/>
      <point x="222" y="564"/>
      <point x="191" y="542"/>
      <point x="175" y="506" type="curve"/>
      <point x="169" y="506" type="line"/>
      <point x="175" y="547"/>
      <point x="177" y="578"/>
      <point x="177" y="626" type="curve" smooth="yes"/>
      <point x="177" y="760" type="line"/>
      <point x="42" y="760" type="line"/>
      <point x="42" y="0" type="line"/>
      <point x="176" y="0" type="line"/>
      <point x="176" y="401" type="line" smooth="yes"/>
      <point x="176" y="423"/>
      <point x="188" y="431"/>
      <point x="212" y="431" type="curve" smooth="yes"/>
      <point x="230" y="431"/>
      <point x="241" y="424"/>
      <point x="241" y="407" type="curve" smooth="yes"/>
      <point x="241" y="133" type="line" smooth="yes"/>
      <point x="241" y="44"/>
      <point x="294" y="-14"/>
    </contour>
  </outline>
</glyph>
<glyph name="uni0196" format="2">
  <advance width="620"/>
  <unicode hex="0196"/>
  <anchor x="341" y="0" name="bottom"/>
  <anchor x="249" y="714" name="top"/>
  <outline>
    <contour>
      <point x="371" y="-10" type="curve" smooth="yes"/>
      <point x="426" y="-10"/>
      <point x="481" y="1"/>
      <point x="516" y="21" type="curve"/>
      <point x="516" y="169" type="line"/>
      <point x="487" y="155"/>
      <point x="451" y="148"/>
      <point x="419" y="148" type="curve" smooth="yes"/>
      <point x="367" y="148"/>
      <point x="327" y="162"/>
      <point x="327" y="235" type="curve" smooth="yes"/>
      <point x="327" y="714" type="line"/>
      <point x="157" y="714" type="line"/>
      <point x="157" y="184" type="line" smooth="yes"/>
      <point x="157" y="39"/>
      <point x="247" y="-10"/>
    </contour>
  </outline>
</glyph>
<glyph name="uni0197" format="2">
  <advance width="620"/>
  <unicode hex="0197"/>
  <anchor x="303" y="0" name="bottom"/>
  <anchor x="303" y="714" name="top"/>
  <anchor x="3" y="714" name="topleft"/>
  <anchor x="395" y="10" name="ogonek"/>
  <anchor x="579" y="714" name="topright"/>
  <outline>
    <contour>
      <point x="93" y="301" type="line"/>
      <point x="509" y="301" type="line"/>
      <point x="509" y="444" type="line"/>
      <point x="93" y="444" type="line"/>
    </contour>
    <component base="I" xOffset="-10"/>
  </outline>
</glyph>
<glyph name="uni0198" format="2">
  <advance width="620"/>
  <unicode hex="0198"/>
  <anchor x="301" y="0" name="bottom"/>
  <anchor x="301" y="714" name="top"/>
  <outline>
    <contour>
      <point x="32" y="0" type="line"/>
      <point x="199" y="0" type="line"/>
      <point x="199" y="211" type="line"/>
      <point x="262" y="260" type="line"/>
      <point x="396" y="0" type="line"/>
      <point x="588" y="0" type="line"/>
      <point x="388" y="392" type="line"/>
      <point x="484" y="526" type="line" smooth="yes"/>
      <point x="509" y="559"/>
      <point x="526" y="574"/>
      <point x="553" y="574" type="curve" smooth="yes"/>
      <point x="572" y="574"/>
      <point x="593" y="568"/>
      <point x="605" y="563" type="curve"/>
      <point x="605" y="709" type="line"/>
      <point x="585" y="717"/>
      <point x="559" y="727"/>
      <point x="517" y="727" type="curve" smooth="yes"/>
      <point x="435" y="727"/>
      <point x="402" y="669"/>
      <point x="331" y="575" type="curve" smooth="yes"/>
      <point x="263" y="489" type="line" smooth="yes"/>
      <point x="248" y="473"/>
      <point x="217" y="421"/>
      <point x="199" y="386" type="curve"/>
      <point x="199" y="714" type="line"/>
      <point x="32" y="714" type="line"/>
    </contour>
  </outline>
</glyph>
<glyph name="uni0199" format="2">
  <advance width="620"/>
  <unicode hex="0199"/>
  <anchor x="301" y="0" name="bottom"/>
  <anchor x="301" y="766" name="top"/>
  <outline>
    <contour>
      <point x="46" y="0" type="line"/>
      <point x="213" y="0" type="line"/>
      <point x="213" y="159" type="line"/>
      <point x="276" y="195" type="line"/>
      <point x="408" y="0" type="line"/>
      <point x="601" y="0" type="line"/>
      <point x="393" y="302" type="line"/>
      <point x="595" y="554" type="line"/>
      <point x="405" y="554" type="line"/>
      <point x="274" y="399" type="line" smooth="yes"/>
      <point x="247" y="368"/>
      <point x="227" y="339"/>
      <point x="205" y="308" type="curve"/>
      <point x="202" y="308" type="line"/>
      <point x="207" y="353"/>
      <point x="213" y="415"/>
      <point x="213" y="461" type="curve" smooth="yes"/>
      <point x="213" y="560" type="line" smooth="yes"/>
      <point x="213" y="599"/>
      <point x="231" y="616"/>
      <point x="267" y="616" type="curve" smooth="yes"/>
      <point x="288" y="616"/>
      <point x="309" y="612"/>
      <point x="322" y="607" type="curve"/>
      <point x="322" y="752" type="line"/>
      <point x="303" y="759"/>
      <point x="267" y="766"/>
      <point x="229" y="766" type="curve" smooth="yes"/>
      <point x="110" y="766"/>
      <point x="46" y="700"/>
      <point x="46" y="567" type="curve" smooth="yes"/>
    </contour>
  </outline>
</glyph>
<glyph name="uni019A" format="2">
  <advance width="620"/>
  <unicode hex="019A"/>
  <anchor x="301" y="0" name="bottom"/>
  <anchor x="301" y="760" name="top"/>
  <anchor x="503" y="760" name="topright"/>
  <anchor x="304" y="393" name="center"/>
  <outline>
    <contour>
      <point x="89" y="307" type="line"/>
      <point x="529" y="307" type="line"/>
      <point x="529" y="433" type="line"/>
      <point x="89" y="433" type="line"/>
    </contour>
    <component base="l" xOffset="-10"/>
  </outline>
</glyph>
<glyph name="uni019B" format="2">
  <advance width="620"/>
  <unicode hex="019B"/>
  <anchor x="283" y="0" name="bottom"/>
  <anchor x="290" y="766" name="top"/>
  <outline>
    <contour>
      <point x="123" y="482" type="line"/>
      <point x="465" y="591" type="line"/>
      <point x="427" y="694" type="line"/>
      <point x="85" y="583" type="line"/>
    </contour>
    <component base="lambda" xOffset="-10"/>
  </outline>
</glyph>
<glyph name="uni019C" format="2">
  <advance width="620"/>
  <unicode hex="019C"/>
  <anchor x="301" y="0" name="bottom"/>
  <anchor x="301" y="357" name="center"/>
  <anchor x="301" y="714" name="top"/>
  <anchor x="13" y="714" name="topleft"/>
  <outline>
    <contour>
      <point x="122" y="-10" type="curve" smooth="yes"/>
      <point x="182" y="-10"/>
      <point x="210" y="22"/>
      <point x="235" y="72" type="curve"/>
      <point x="239" y="72" type="line"/>
      <point x="254" y="20"/>
      <point x="279" y="-10"/>
      <point x="339" y="-10" type="curve" smooth="yes"/>
      <point x="387" y="-10"/>
      <point x="418" y="11"/>
      <point x="439" y="65" type="curve"/>
      <point x="446" y="65" type="line"/>
      <point x="466" y="0" type="line"/>
      <point x="586" y="0" type="line"/>
      <point x="586" y="714" type="line"/>
      <point x="446" y="714" type="line"/>
      <point x="446" y="177" type="line" smooth="yes"/>
      <point x="446" y="140"/>
      <point x="438" y="120"/>
      <point x="405" y="120" type="curve" smooth="yes"/>
      <point x="372" y="120"/>
      <point x="368" y="143"/>
      <point x="368" y="183" type="curve" smooth="yes"/>
      <point x="368" y="714" type="line"/>
      <point x="233" y="714" type="line"/>
      <point x="233" y="177" type="line" smooth="yes"/>
      <point x="233" y="149"/>
      <point x="226" y="120"/>
      <point x="190" y="120" type="curve" smooth="yes"/>
      <point x="158" y="120"/>
      <point x="155" y="143"/>
      <point x="155" y="181" type="curve" smooth="yes"/>
      <point x="155" y="714" type="line"/>
      <point x="15" y="714" type="line"/>
      <point x="15" y="179" type="line" smooth="yes"/>
      <point x="15" y="65"/>
      <point x="30" y="-10"/>
    </contour>
  </outline>
</glyph>
<glyph name="uni019D" format="2">
  <advance width="620"/>
  <unicode hex="019D"/>
  <anchor x="301" y="-260" name="bottom"/>
  <anchor x="301" y="714" name="top"/>
  <anchor x="602" y="714" name="topright"/>
  <outline>
    <contour>
      <point x="-5" y="-260" type="curve" smooth="yes"/>
      <point x="118" y="-260"/>
      <point x="187" y="-199"/>
      <point x="187" y="-29" type="curve" smooth="yes"/>
      <point x="187" y="229" type="line"/>
      <point x="32" y="227" type="line"/>
      <point x="32" y="-16" type="line" smooth="yes"/>
      <point x="32" y="-108"/>
      <point x="12" y="-137"/>
      <point x="-33" y="-137" type="curve" smooth="yes"/>
      <point x="-57" y="-137"/>
      <point x="-76" y="-131"/>
      <point x="-92" y="-127" type="curve"/>
      <point x="-92" y="-247" type="line"/>
      <point x="-68" y="-254"/>
      <point x="-39" y="-260"/>
    </contour>
    <component base="N" xOffset="-10"/>
  </outline>
</glyph>
<glyph name="uni01A2" format="2">
  <advance width="620"/>
  <unicode hex="01A2"/>
  <anchor x="105" y="0" name="bottom"/>
  <anchor x="117" y="10" name="ogonek"/>
  <anchor x="339" y="714" name="top"/>
  <anchor x="-178" y="714" name="topleft"/>
  <anchor x="869" y="714" name="topright"/>
  <outline>
    <contour>
      <point x="107" y="-10" type="curve" smooth="yes"/>
      <point x="334" y="-10"/>
      <point x="446" y="128"/>
      <point x="446" y="357" type="curve" smooth="yes"/>
      <point x="446" y="557"/>
      <point x="350" y="725"/>
      <point x="107" y="725" type="curve" smooth="yes"/>
      <point x="-121" y="725"/>
      <point x="-234" y="592"/>
      <point x="-234" y="359" type="curve" smooth="yes"/>
      <point x="-234" y="128"/>
      <point x="-122" y="-10"/>
    </contour>
    <contour>
      <point x="107" y="135" type="curve" smooth="yes"/>
      <point x="-4" y="135"/>
      <point x="-57" y="212"/>
      <point x="-57" y="358" type="curve" smooth="yes"/>
      <point x="-57" y="505"/>
      <point x="-4" y="582"/>
      <point x="107" y="582" type="curve" smooth="yes"/>
      <point x="218" y="582"/>
      <point x="268" y="505"/>
      <point x="268" y="358" type="curve" smooth="yes"/>
      <point x="268" y="209"/>
      <point x="217" y="135"/>
    </contour>
    <contour>
      <point x="667" y="0" type="line"/>
      <point x="836" y="0" type="line"/>
      <point x="836" y="481" type="line" smooth="yes"/>
      <point x="836" y="663"/>
      <point x="734" y="724"/>
      <point x="583" y="724" type="curve" smooth="yes"/>
      <point x="478" y="724"/>
      <point x="389" y="689"/>
      <point x="319" y="625" type="curve"/>
      <point x="377" y="538" type="line"/>
      <point x="412" y="563"/>
      <point x="465" y="581"/>
      <point x="526" y="581" type="curve" smooth="yes"/>
      <point x="623" y="581"/>
      <point x="667" y="545"/>
      <point x="667" y="450" type="curve" smooth="yes"/>
    </contour>
  </outline>
</glyph>
<glyph name="uni01A3" format="2">
  <advance width="620"/>
  <unicode hex="01A3"/>
  <anchor x="193" y="0" name="bottom"/>
  <anchor x="193" y="277" name="center"/>
  <anchor x="197" y="10" name="ogonek"/>
  <anchor x="317" y="554" name="top"/>
  <outline>
    <contour>
      <point x="433" y="-240" type="line"/>
      <point x="578" y="-240" type="line"/>
      <point x="578" y="401" type="line" smooth="yes"/>
      <point x="578" y="510"/>
      <point x="534" y="565"/>
      <point x="450" y="565" type="curve" smooth="yes"/>
      <point x="383" y="565"/>
      <point x="349" y="534"/>
      <point x="330" y="494" type="curve"/>
      <point x="303" y="545"/>
      <point x="266" y="565"/>
      <point x="195" y="565" type="curve" smooth="yes"/>
      <point x="60" y="565"/>
      <point x="13" y="473"/>
      <point x="13" y="278" type="curve" smooth="yes"/>
      <point x="13" y="106"/>
      <point x="63" y="-10"/>
      <point x="193" y="-10" type="curve" smooth="yes"/>
      <point x="334" y="-10"/>
      <point x="373" y="105"/>
      <point x="373" y="278" type="curve" smooth="yes"/>
      <point x="373" y="337"/>
      <point x="366" y="393"/>
      <point x="361" y="416" type="curve"/>
      <point x="368" y="424"/>
      <point x="380" y="430"/>
      <point x="399" y="430" type="curve" smooth="yes"/>
      <point x="422" y="430"/>
      <point x="433" y="417"/>
      <point x="433" y="390" type="curve" smooth="yes"/>
    </contour>
    <contour>
      <point x="193" y="121" type="curve" smooth="yes"/>
      <point x="170" y="121"/>
      <point x="157" y="137"/>
      <point x="157" y="276" type="curve" smooth="yes"/>
      <point x="157" y="421"/>
      <point x="168" y="434"/>
      <point x="193" y="434" type="curve" smooth="yes"/>
      <point x="218" y="434"/>
      <point x="229" y="421"/>
      <point x="229" y="278" type="curve" smooth="yes"/>
      <point x="229" y="137"/>
      <point x="220" y="121"/>
    </contour>
  </outline>
</glyph>
<glyph name="uni01A4" format="2">
  <advance width="620"/>
  <unicode hex="01A4"/>
  <anchor x="337" y="0" name="bottom"/>
  <anchor x="337" y="714" name="top"/>
  <outline>
    <contour>
      <point x="145" y="0" type="line"/>
      <point x="312" y="0" type="line"/>
      <point x="312" y="239" type="line"/>
      <point x="344" y="239" type="line" smooth="yes"/>
      <point x="516" y="239"/>
      <point x="585" y="345"/>
      <point x="585" y="485" type="curve" smooth="yes"/>
      <point x="585" y="633"/>
      <point x="510" y="714"/>
      <point x="351" y="714" type="curve" smooth="yes"/>
      <point x="161" y="714" type="line" smooth="yes"/>
      <point x="36" y="714"/>
      <point x="-14" y="644"/>
      <point x="-14" y="535" type="curve" smooth="yes"/>
      <point x="-14" y="506"/>
      <point x="-9" y="469"/>
      <point x="-5" y="458" type="curve"/>
      <point x="111" y="458" type="line"/>
      <point x="108" y="471"/>
      <point x="104" y="492"/>
      <point x="104" y="515" type="curve" smooth="yes"/>
      <point x="104" y="554"/>
      <point x="118" y="572"/>
      <point x="145" y="576" type="curve"/>
    </contour>
    <contour>
      <point x="312" y="381" type="line"/>
      <point x="312" y="574" type="line"/>
      <point x="339" y="574" type="line" smooth="yes"/>
      <point x="394" y="574"/>
      <point x="420" y="549"/>
      <point x="420" y="478" type="curve" smooth="yes"/>
      <point x="420" y="411"/>
      <point x="391" y="381"/>
      <point x="334" y="381" type="curve" smooth="yes"/>
    </contour>
  </outline>
</glyph>
<glyph name="uni01A5" format="2">
  <advance width="620"/>
  <unicode hex="01A5"/>
  <anchor x="324" y="-240" name="bottom"/>
  <anchor x="324" y="765" name="top"/>
  <outline>
    <contour>
      <point x="42" y="-240" type="line"/>
      <point x="209" y="-240" type="line"/>
      <point x="209" y="-55" type="line" smooth="yes"/>
      <point x="209" y="-19"/>
      <point x="202" y="36"/>
      <point x="199" y="55" type="curve"/>
      <point x="209" y="55" type="line"/>
      <point x="246" y="9"/>
      <point x="295" y="-10"/>
      <point x="362" y="-10" type="curve" smooth="yes"/>
      <point x="489" y="-10"/>
      <point x="579" y="104"/>
      <point x="579" y="281" type="curve" smooth="yes"/>
      <point x="579" y="426"/>
      <point x="512" y="564"/>
      <point x="368" y="564" type="curve" smooth="yes"/>
      <point x="290" y="564"/>
      <point x="239" y="539"/>
      <point x="206" y="481" type="curve"/>
      <point x="198" y="481" type="line"/>
      <point x="205" y="518"/>
      <point x="209" y="543"/>
      <point x="209" y="576" type="curve" smooth="yes"/>
      <point x="209" y="580" type="line" smooth="yes"/>
      <point x="209" y="612"/>
      <point x="226" y="625"/>
      <point x="258" y="625" type="curve" smooth="yes"/>
      <point x="278" y="625"/>
      <point x="299" y="620"/>
      <point x="312" y="616" type="curve"/>
      <point x="312" y="751" type="line"/>
      <point x="294" y="757"/>
      <point x="251" y="765"/>
      <point x="219" y="765" type="curve" smooth="yes"/>
      <point x="103" y="765"/>
      <point x="42" y="700"/>
      <point x="42" y="570" type="curve" smooth="yes"/>
    </contour>
    <contour>
      <point x="311" y="134" type="curve" smooth="yes"/>
      <point x="242" y="134"/>
      <point x="209" y="169"/>
      <point x="209" y="278" type="curve" smooth="yes"/>
      <point x="209" y="293" type="line" smooth="yes"/>
      <point x="209" y="384"/>
      <point x="245" y="419"/>
      <point x="309" y="419" type="curve" smooth="yes"/>
      <point x="380" y="419"/>
      <point x="405" y="374"/>
      <point x="405" y="278" type="curve" smooth="yes"/>
      <point x="405" y="184"/>
      <point x="378" y="134"/>
    </contour>
  </outline>
</glyph>
<glyph name="uni01A6" format="2">
  <advance width="620"/>
  <unicode hex="01A6"/>
  <anchor x="324" y="-96" name="bottom"/>
  <anchor x="324" y="714" name="top"/>
  <outline>
    <contour>
      <point x="412" y="-97" type="line"/>
      <point x="594" y="-97" type="line"/>
      <point x="435" y="207" type="line"/>
      <point x="517" y="254"/>
      <point x="557" y="318"/>
      <point x="557" y="407" type="curve" smooth="yes"/>
      <point x="557" y="545"/>
      <point x="464" y="617"/>
      <point x="269" y="617" type="curve" smooth="yes"/>
      <point x="221" y="617" type="line"/>
      <point x="221" y="714" type="line"/>
      <point x="56" y="714" type="line"/>
      <point x="56" y="0" type="line"/>
      <point x="221" y="0" type="line"/>
      <point x="221" y="160" type="line"/>
      <point x="290" y="160" type="line"/>
    </contour>
    <contour>
      <point x="221" y="304" type="line"/>
      <point x="221" y="472" type="line"/>
      <point x="268" y="472" type="line" smooth="yes"/>
      <point x="355" y="472"/>
      <point x="392" y="444"/>
      <point x="392" y="393" type="curve" smooth="yes"/>
      <point x="392" y="332"/>
      <point x="347" y="304"/>
      <point x="267" y="304" type="curve" smooth="yes"/>
    </contour>
  </outline>
</glyph>
<glyph name="uni01AA" format="2">
  <advance width="620"/>
  <unicode hex="01AA"/>
  <anchor x="308" y="-240" name="bottom"/>
  <anchor x="308" y="770" name="top"/>
  <outline>
    <contour>
      <point x="413" y="-240" type="curve" smooth="yes"/>
      <point x="470" y="-240"/>
      <point x="520" y="-228"/>
      <point x="557" y="-209" type="curve"/>
      <point x="557" y="-69" type="line"/>
      <point x="524" y="-83"/>
      <point x="499" y="-90"/>
      <point x="463" y="-90" type="curve" smooth="yes"/>
      <point x="416" y="-90"/>
      <point x="388" y="-74"/>
      <point x="388" y="-22" type="curve" smooth="yes"/>
      <point x="388" y="572" type="line" smooth="yes"/>
      <point x="388" y="692"/>
      <point x="340" y="772"/>
      <point x="206" y="772" type="curve" smooth="yes"/>
      <point x="84" y="772"/>
      <point x="31" y="718"/>
      <point x="31" y="649" type="curve" smooth="yes"/>
      <point x="31" y="580"/>
      <point x="78" y="525"/>
      <point x="199" y="525" type="curve" smooth="yes"/>
      <point x="219" y="525" type="line"/>
      <point x="219" y="-44" type="line" smooth="yes"/>
      <point x="219" y="-191"/>
      <point x="292" y="-240"/>
    </contour>
    <contour>
      <point x="199" y="617" type="line" smooth="yes"/>
      <point x="159" y="617"/>
      <point x="140" y="628"/>
      <point x="140" y="651" type="curve" smooth="yes"/>
      <point x="140" y="663"/>
      <point x="154" y="674"/>
      <point x="177" y="674" type="curve" smooth="yes"/>
      <point x="204" y="674"/>
      <point x="219" y="664"/>
      <point x="219" y="643" type="curve" smooth="yes"/>
      <point x="219" y="617" type="line"/>
    </contour>
  </outline>
</glyph>
<glyph name="uni01AB" format="2">
  <advance width="620"/>
  <unicode hex="01AB"/>
  <anchor x="380" y="-240" name="bottom"/>
  <anchor x="301" y="680" name="top"/>
  <anchor x="579" y="680" name="topright"/>
  <anchor x="236" y="284" name="center"/>
  <outline>
    <contour>
      <point x="387" y="-240" type="curve" smooth="yes"/>
      <point x="504" y="-240"/>
      <point x="565" y="-173"/>
      <point x="565" y="-43" type="curve" smooth="yes"/>
      <point x="565" y="95" type="line"/>
      <point x="411" y="42" type="line"/>
      <point x="411" y="-42" type="line" smooth="yes"/>
      <point x="411" y="-85"/>
      <point x="384" y="-103"/>
      <point x="347" y="-103" type="curve" smooth="yes"/>
      <point x="328" y="-103"/>
      <point x="311" y="-100"/>
      <point x="295" y="-95" type="curve"/>
      <point x="295" y="-228" type="line"/>
      <point x="315" y="-234"/>
      <point x="357" y="-240"/>
    </contour>
    <component base="t" xOffset="-10"/>
  </outline>
</glyph>
<glyph name="uni01AC" format="2">
  <advance width="620"/>
  <unicode hex="01AC"/>
  <anchor x="322" y="0" name="bottom"/>
  <anchor x="322" y="714" name="top"/>
  <outline>
    <contour>
      <point x="238" y="0" type="line"/>
      <point x="407" y="0" type="line"/>
      <point x="407" y="565" type="line"/>
      <point x="589" y="565" type="line"/>
      <point x="589" y="714" type="line"/>
      <point x="208" y="714" type="line" smooth="yes"/>
      <point x="54" y="714"/>
      <point x="5" y="624"/>
      <point x="5" y="532" type="curve" smooth="yes"/>
      <point x="5" y="492"/>
      <point x="14" y="469"/>
      <point x="19" y="460" type="curve"/>
      <point x="154" y="460" type="line"/>
      <point x="150" y="471"/>
      <point x="144" y="487"/>
      <point x="144" y="508" type="curve" smooth="yes"/>
      <point x="144" y="536"/>
      <point x="159" y="560"/>
      <point x="202" y="560" type="curve" smooth="yes"/>
      <point x="238" y="560" type="line"/>
    </contour>
  </outline>
</glyph>
